<?xml version="1.0" encoding="UTF-8" standalone="no"?>
<!-- Generator: Adobe Illustrator 16.0.0, SVG Export Plug-In . SVG Version: 6.00 Build 0)  -->

<svg
   xmlns:dc="http://purl.org/dc/elements/1.1/"
   xmlns:cc="http://creativecommons.org/ns#"
   xmlns:rdf="http://www.w3.org/1999/02/22-rdf-syntax-ns#"
   xmlns:svg="http://www.w3.org/2000/svg"
   xmlns="http://www.w3.org/2000/svg"
   xmlns:sodipodi="http://sodipodi.sourceforge.net/DTD/sodipodi-0.dtd"
   xmlns:inkscape="http://www.inkscape.org/namespaces/inkscape"
   version="1.1"
   id="Capa_1"
   x="0px"
   y="0px"
   width="466.623px"
   height="466.622px"
   viewBox="0 0 466.623 466.622"
   style="enable-background:new 0 0 466.623 466.622;"
   xml:space="preserve"
   inkscape:version="0.91 r13725"
   sodipodi:docname="dossier.svg"
   inkscape:export-filename="C:\Users\Guillaume BEGUIN\AndroidStudioProjects\perso\VideosEnfants\app\src\main\res\drawable-ldpi\dossier.png"
   inkscape:export-xdpi="44.463928"
   inkscape:export-ydpi="44.463928"><metadata
     id="metadata4866"><rdf:RDF><cc:Work
         rdf:about=""><dc:format>image/svg+xml</dc:format><dc:type
           rdf:resource="http://purl.org/dc/dcmitype/StillImage" /><dc:title></dc:title></cc:Work></rdf:RDF></metadata><defs
     id="defs4864" /><sodipodi:namedview
     pagecolor="#ffffff"
     bordercolor="#666666"
     borderopacity="1"
     objecttolerance="10"
     gridtolerance="10"
     guidetolerance="10"
     inkscape:pageopacity="0"
     inkscape:pageshadow="2"
     inkscape:window-width="1366"
     inkscape:window-height="705"
     id="namedview4862"
     showgrid="false"
     inkscape:zoom="1.0115254"
     inkscape:cx="162.33468"
     inkscape:cy="218.18809"
     inkscape:window-x="-8"
     inkscape:window-y="-8"
     inkscape:window-maximized="1"
     inkscape:current-layer="g4826" /><g
     id="g4824"><g
       id="g4826"><path
         style="fill:#0000ff"
         d="m 442.07354,410.86522 c -2.3108,-1.10205 -11.49508,-1.38966 -45.53374,-1.42585 -23.4515,-0.0248 -42.86583,-0.42744 -43.14297,-0.89449 -0.27713,-0.46702 -8.44395,-1.13076 -18.14849,-1.47497 -9.70454,-0.34418 -20.24978,-1.06464 -23.43389,-1.60097 -10.21683,-1.72101 -41.33336,-3.0688 -84.90964,-3.67788 -23.35013,-0.32636 -43.32321,-1.00317 -44.38456,-1.50405 -1.06139,-0.50086 -8.00853,-1.11802 -15.43813,-1.37145 -47.17327,-1.60923 -61.19853,-2.5563 -68.647859,-4.63554 -4.14303,-1.15639 -8.034025,-2.53579 -8.646657,-3.06537 -3.059538,-2.64468 -12.560718,-3.93038 -29.130805,-3.94195 -17.725653,-0.0124 -25.646543,-1.23014 -28.702075,-4.41263 -0.84769,-0.8829 -2.080302,-1.60528 -2.739136,-1.60528 -0.658836,0 -2.346119,-1.24829 -3.74952,-2.77399 l -2.551636,-2.77399 0.744825,-16.57177 c 0.409656,-9.11445 0.512274,-17.02398 0.228044,-17.57671 -0.284229,-0.55273 -0.637945,-1.81536 -0.786037,-2.80583 -0.148092,-0.99047 -1.137783,-2.77185 -2.199314,-3.95862 -1.061529,-1.18676 -1.861387,-2.63755 -1.777459,-3.224 0.08393,-0.58644 -0.241536,-1.97074 -0.723248,-3.07621 -1.453053,-3.33457 -0.96066,-76.1452 0.584481,-86.42771 0.320337,-2.13177 -1.139065,-49.2048 -1.546792,-49.89193 -0.236984,-0.39937 -0.340412,-4.26094 -0.229841,-8.58124 0.132396,-5.17303 -0.240863,-8.57801 -1.093177,-9.97227 -1.0678,-1.74678 -1.111065,-6.9333 -0.247311,-29.64672 1.727583,-45.428763 2.174748,-54.545169 2.804525,-57.176269 0.330755,-1.381839 0.710569,-3.066492 0.84403,-3.743671 0.133461,-0.67718 1.151053,-2.434061 2.261317,-3.904181 1.110263,-1.470118 2.01866,-3.263721 2.01866,-3.985783 0,-1.440784 -2.877441,-1.281345 59.82269,-3.314768 20.530995,-0.665839 38.021085,-1.659168 39.099865,-2.22063 2.81922,-1.467291 71.71867,-0.790043 74.27378,0.730076 1.06136,0.631444 3.05505,1.606656 4.43041,2.167135 1.37535,0.560482 3.22448,2.607849 4.1092,4.549705 0.88471,1.941857 1.93041,3.680074 2.32377,3.862706 0.85807,0.398389 6.02205,11.339516 6.02205,12.759179 0,0.548049 0.54275,1.600953 1.20611,2.339785 0.66336,0.738832 1.90306,2.919267 2.75488,4.845406 6.62349,14.97712 7.83649,16.95031 12.0154,19.54587 l 3.81948,2.37228 105.14217,1.14845 c 96.73308,1.05657 105.26361,1.28464 106.66032,2.85164 2.03109,2.27872 2.9713,5.0166 1.85678,5.40692 -0.49658,0.1739 -1.15614,2.56254 -1.46572,5.3081 -0.30959,2.74556 -0.77483,5.34912 -1.03389,5.78569 -0.25905,0.43658 0.20781,1.06509 1.03748,1.3967 0.82965,0.33159 1.50848,1.48872 1.50848,2.5714 0,1.08267 0.52151,2.95629 1.1589,4.1636 0.63743,1.20734 1.29737,3.06413 1.46654,4.1262 0.16916,1.06209 0.6597,2.41881 1.09005,3.01492 0.43035,0.59611 0.71868,57.22354 0.64074,125.83871 -0.12866,113.29951 -0.28454,124.90365 -1.6976,126.37542 -1.85049,1.92739 -4.04094,1.94851 -7.96548,0.0767 l 0,5e-5 z"
         id="path4881"
         inkscape:connector-curvature="0"
         inkscape:export-filename="C:\Users\Guillaume BEGUIN\AndroidStudioProjects\perso\VideosEnfants\app\src\main\res\drawable-mdpi\dossier.png"
         inkscape:export-xdpi="59.586132"
         inkscape:export-ydpi="59.586132" /><path
         style="fill:#000080"
         d="m 314.75586,121.78009 c -68.31008,-0.74122 -80.26851,-1.08537 -81.60851,-2.34844 -0.86354,-0.81398 -2.00894,-1.47992 -2.54532,-1.47992 -0.53639,0 -1.51929,-1.24368 -2.18424,-2.76369 -0.66494,-1.52004 -1.06197,-2.76369 -0.88229,-2.76369 0.17967,0 -0.658,-1.44032 -1.86149,-3.20069 -1.2035,-1.76039 -2.07021,-3.57809 -1.92601,-4.03933 0.14419,-0.46121 -0.71477,-1.93267 -1.90882,-3.26986 -4.54793,-5.093221 -4.71145,-5.066323 30.87624,-5.078637 18.17597,-0.0063 46.63343,0.518098 63.23881,1.165307 22.89707,0.89243 30.46192,0.895191 31.31041,0.01144 0.80393,-0.837319 10.09438,-1.161442 33.00819,-1.151583 17.53915,0.0075 32.80201,0.268902 33.91748,0.580787 1.11547,0.311886 2.85226,2.190981 3.85952,4.175766 1.00727,1.98478 2.26002,4.43685 2.78388,5.44903 0.52384,1.01222 1.28369,1.84037 1.68855,1.84037 0.40483,0 0.73606,3.16567 0.73606,7.03481 l 0,7.03482 -14.232,-0.16397 c -7.82761,-0.0902 -50.24931,-0.55483 -94.27046,-1.0325 z"
         id="path4900"
         inkscape:connector-curvature="0"
         inkscape:export-filename="C:\Users\Guillaume BEGUIN\AndroidStudioProjects\perso\VideosEnfants\app\src\main\res\drawable-mdpi\dossier.png"
         inkscape:export-xdpi="59.586132"
         inkscape:export-ydpi="59.586132" /><path
         inkscape:connector-curvature="0"
         d="m 460.11095,123.30511 c -0.34648,-4.90185 -3.17201,-8.05622 -6.63584,-9.52716 -1.42302,-0.85188 -3.11736,-1.39372 -5.16501,-1.39372 -5.43634,-0.005 -10.86876,-0.0589 -16.30511,-0.0742 -0.57975,-8.33678 -1.95297,-16.598329 -3.85521,-24.728747 -1.34883,-5.74456 -5.79842,-7.929139 -10.15043,-7.484904 -0.67831,-0.151466 -1.39275,-0.253122 -2.16574,-0.268371 -64.21122,-1.306274 -128.4283,-2.415337 -192.63171,-0.08031 -1.89149,-5.120394 -3.80642,-9.888044 -5.73401,-13.477503 -1.49133,-2.779266 -3.58292,-4.318331 -5.83064,-4.967911 -1.54404,-1.11008 -3.47165,-1.80947 -5.84041,-1.80947 -44.51352,0 -115.239562,-0.126053 -159.738455,-1.07145 -1.598692,-1.03282 -3.452121,-1.662068 -5.434382,-1.662068 l -18.358612,0 c -5.036174,0 -9.327659,3.855798 -10.282188,8.839974 -0.777875,1.373368 -1.344934,2.955128 -1.513781,4.818477 -8.5244083,92.769913 2.148181,223.507183 1.310771,316.403143 -0.06637,7.4229 5.709616,10.88731 11.221104,10.48883 0.605122,0.18603 1.212195,0.35172 1.888566,0.43407 131.869687,16.08497 290.893707,17.84055 423.426087,23.20798 5.99755,0.24295 9.31205,-3.92187 9.98159,-8.67123 1.14972,-1.64174 1.83879,-3.74805 1.81341,-6.34941 -0.9516,-85.13963 5.98777,-197.56669 0,-282.62603 z m -49.93718,-22.46589 c 0.6832,3.76837 1.20829,7.5469 1.52158,11.36917 -59.21116,-0.35886 -118.41646,-1.35305 -177.61687,-2.45195 -1.13021,-2.58611 -2.31509,-5.73541 -3.52631,-9.1246 59.85629,-1.934514 119.73699,-0.997239 179.6216,0.20738 z m 28.95312,297.91503 c -126.83645,-4.98622 -280.11961,-7.08236 -406.351902,-21.9383 0.04685,-86.4073 -8.825017,-210.64266 -2.078886,-296.932029 0.252786,0.02338 0.48117,0.09047 0.751522,0.09556 47.957846,1.225966 122.141856,1.355068 170.116296,1.366251 5.38948,9.871777 10.94587,30.259808 15.09388,40.774058 0.81984,2.07784 1.99691,3.91374 3.47456,5.30746 1.68557,2.34924 4.31003,4.01335 7.94956,4.07535 70.56596,1.31137 141.13486,2.54241 211.72037,2.69187 4.57842,79.03826 -1.16633,185.44018 -0.6754,264.55977 z"
         id="path4828"
         inkscape:export-filename="C:\Users\Guillaume BEGUIN\AndroidStudioProjects\perso\VideosEnfants\app\src\main\res\drawable-mdpi\dossier.png"
         inkscape:export-xdpi="59.586132"
         inkscape:export-ydpi="59.586132" /></g></g><g
     id="g4832" /><g
     id="g4834" /><g
     id="g4836" /><g
     id="g4838" /><g
     id="g4840" /><g
     id="g4842" /><g
     id="g4844" /><g
     id="g4846" /><g
     id="g4848" /><g
     id="g4850" /><g
     id="g4852" /><g
     id="g4854" /><g
     id="g4856" /><g
     id="g4858" /><g
     id="g4860" /></svg>