<?xml version="1.0" encoding="UTF-8" standalone="no"?>
<!-- Created with Inkscape (http://www.inkscape.org/) -->

<svg
   xmlns:dc="http://purl.org/dc/elements/1.1/"
   xmlns:cc="http://creativecommons.org/ns#"
   xmlns:rdf="http://www.w3.org/1999/02/22-rdf-syntax-ns#"
   xmlns:svg="http://www.w3.org/2000/svg"
   xmlns="http://www.w3.org/2000/svg"
   xmlns:sodipodi="http://sodipodi.sourceforge.net/DTD/sodipodi-0.dtd"
   xmlns:inkscape="http://www.inkscape.org/namespaces/inkscape"
   width="210mm"
   height="297mm"
   viewBox="0 0 744.09448819 1052.3622047"
   id="svg4695"
   version="1.1"
   inkscape:version="0.91 r13725"
   sodipodi:docname="fichier.svg">
  <defs
     id="defs4697" />
  <sodipodi:namedview
     id="base"
     pagecolor="#ffffff"
     bordercolor="#666666"
     borderopacity="1.0"
     inkscape:pageopacity="0.0"
     inkscape:pageshadow="2"
     inkscape:zoom="0.35"
     inkscape:cx="-146.42857"
     inkscape:cy="520"
     inkscape:document-units="px"
     inkscape:current-layer="layer1"
     showgrid="false"
     inkscape:window-width="1366"
     inkscape:window-height="705"
     inkscape:window-x="-8"
     inkscape:window-y="-8"
     inkscape:window-maximized="1" />
  <metadata
     id="metadata4700">
    <rdf:RDF>
      <cc:Work
         rdf:about="">
        <dc:format>image/svg+xml</dc:format>
        <dc:type
           rdf:resource="http://purl.org/dc/dcmitype/StillImage" />
        <dc:title></dc:title>
      </cc:Work>
    </rdf:RDF>
  </metadata>
  <g
     inkscape:label="Calque 1"
     inkscape:groupmode="layer"
     id="layer1">
    <g
       id="g4265"
       transform="matrix(4.1726469,0,0,-4.1726469,391.68367,678.28182)">
      <path
         d="m 0,0 c -10.646,-5.246 -21.05,-10.988 -33.224,-13.435 2.155,-1.243 3.943,-1.746 5.841,-1.45 8.351,1.307 16.38,3.587 23.968,7.443 C -0.216,-5.815 0.944,-3.633 0,0 m 50.735,115.736 c -0.413,-2.79 -0.643,-4.832 -1.029,-6.847 -1.228,-6.413 -0.755,-7.363 5.245,-9.665 1.571,-0.602 3.193,-1.089 4.815,-1.544 1.215,-0.34 2.498,-0.09 2.5,1.356 0.007,4.085 0.282,8.492 -2.986,11.53 -2.249,2.091 -4.995,3.819 -8.545,5.17 M 8.335,34.303 C 4.028,31.679 0.228,28.706 -3.637,25.811 c -6.938,-5.207 -6.807,-5.607 -1.031,-12.148 1.777,-2.014 3.118,-2.177 5.191,-0.839 1.81,1.172 3.071,2.539 3.585,4.742 1.31,5.602 2.806,11.161 4.227,16.737 M -38.51,4.632 c 1.765,-2.819 4.265,-3.968 6.009,-5.894 1.559,-1.718 3.191,-1.532 5.056,-0.661 3.219,1.507 6.456,2.989 9.723,4.388 5.484,2.344 5.581,2.68 1.581,7.096 -0.629,0.694 -1.312,1.337 -1.946,2.026 -1.506,1.637 -3.176,1.834 -5.005,0.589 -4.664,-3.185 -9.872,-5.287 -15.418,-7.544 m -9.027,-1.335 c -0.401,-0.919 -0.118,-1.459 0.293,-1.815 3.397,-2.953 6.737,-5.983 10.28,-8.75 1.914,-1.498 4.082,-2.325 6.814,-1.728 10.997,2.404 20.768,7.477 30.194,13.369 C 0.502,4.66 0.867,5.135 1.196,5.581 1.673,6.225 1.759,7.029 1.444,7.718 1.071,8.529 0.212,8.637 -0.451,8.201 -3.116,6.45 -4.597,8.143 -6.033,10.016 c -1.827,2.385 -3.648,4.775 -5.451,7.178 -1.321,1.756 -2.599,0.813 -3.88,-0.027 -1.438,-0.945 -1.412,-2.045 -0.354,-3.282 1.464,-1.712 3.014,-3.364 4.324,-5.188 3.113,-4.329 2.895,-5.53 -1.67,-7.743 -4.731,-2.294 -9.599,-4.302 -14.379,-6.494 -2.559,-1.174 -4.647,-0.689 -6.644,1.262 -2.284,2.228 -4.779,4.239 -7.107,6.422 -1.994,1.873 -4.098,2.252 -6.343,1.153 M 66.226,110.699 C 72.043,103.783 71.894,96.733 70.854,89.291 69.568,80.07 66.542,71.465 62.973,62.975 60.397,56.854 58.13,50.64 56.943,43.919 c 1.363,0.15 1.651,0.919 2.059,1.515 8.001,11.608 12.654,24.641 15.994,38.191 1.759,7.134 0.506,14.184 -1.382,21.109 -0.845,3.102 -2.482,5.666 -7.388,5.965 M 51.072,63.027 c 0.949,0 1.418,0.669 1.666,1.335 2.34,6.315 6.09,11.999 7.969,18.543 0.727,2.535 -0.337,3.344 -2.125,4.32 -3.479,1.898 -7.295,2.921 -10.939,4.387 -2.027,0.813 -3.337,0.138 -3.921,-1.802 -1.793,-5.967 -4.936,-11.321 -7.507,-16.936 -1.569,-3.424 -1.357,-4.077 2.187,-5.518 3.805,-1.543 7.755,-2.731 11.644,-4.066 0.346,-0.12 0.712,-0.182 1.026,-0.263 M 43.353,14.836 c -0.401,12.477 0.89,23.994 4.126,35.244 0.657,2.284 -0.666,3.092 -2.348,3.717 -3.695,1.37 -7.45,2.588 -11.111,4.04 -5.451,2.16 -6.567,1.813 -9.213,-3.438 -0.42,-0.832 -0.707,-1.746 -0.938,-2.651 -1.903,-7.45 -3.711,-14.929 -5.709,-22.355 -0.543,-2.015 -0.041,-3.208 1.692,-4.17 7.195,-3.998 14.52,-7.689 23.501,-10.387 M 13.678,148.324 c -16.551,0.079 -28.131,-4.187 -39.316,-9.743 -7.656,-3.803 -14.06,-9.337 -20.103,-15.306 -7.624,-7.53 -15.629,-14.818 -21.112,-24.12 -9.112,-15.459 -16.169,-31.782 -19.022,-49.7 -1.539,-9.665 0.35,-18.672 4.541,-27.337 1.002,-2.07 2.635,-3.605 4.349,-5.108 13.711,-12.026 32.377,-13.299 47.255,-4.779 22.955,13.145 43.103,29.457 57.22,52.311 8.348,13.515 14.701,27.908 18.572,43.326 3.502,13.957 -2.277,27.778 -12.514,34.252 -7.194,4.549 -15.204,6.29 -19.87,6.204 M 17.377,44.59 C 13.235,42.787 13.217,38.715 12.203,35.188 8.367,21.842 4.507,8.495 3.284,-5.416 2.742,-11.583 1.373,-17.663 1.486,-23.895 c 0.036,-1.934 0.06,-3.667 2.037,-4.85 5.958,-3.564 11.186,-8.376 17.692,-10.976 11.486,-4.596 22.756,-9.84 34.969,-12.404 1.254,-0.262 2.502,-0.974 4.013,0.541 -3.051,7.855 -4.772,16.203 -5.923,24.804 -2.046,15.278 -3.275,30.613 -3.702,45.966 -0.426,15.361 3.113,30.186 9.159,44.331 3.93,9.191 7.19,18.587 8.216,28.552 0.425,4.122 1.624,8.665 -1.915,12.298 -0.058,0.147 -0.09,0.317 -0.187,0.431 -0.057,0.065 -0.312,0.074 -0.32,0.053 -0.118,-0.333 0.052,-0.508 0.479,-0.512 -0.066,-2.624 -0.011,-5.257 -0.228,-7.868 -0.275,-3.32 -1.386,-4.154 -4.35,-3.104 -3.7,1.312 -7.317,2.87 -10.934,4.4 -1.172,0.497 -2.473,1.774 -3.391,0.161 -1.072,-1.882 0.714,-2.582 2.046,-3.242 1.009,-0.498 2.05,-0.949 3.116,-1.308 3.386,-1.134 6.683,-2.398 9.744,-4.324 2.214,-1.39 2.999,-2.796 2.299,-5.535 C 62.33,75.794 58.372,68.97 55.04,61.858 c -1.166,-2.491 -2.794,-3.07 -5.464,-1.995 -4.692,1.891 -9.544,3.383 -14.297,5.124 -1.472,0.543 -2.965,1.317 -3.803,-0.638 -0.819,-1.912 1.101,-2.064 2.128,-2.597 4.011,-2.091 8.368,-3.299 12.6,-4.83 5.397,-1.95 5.843,-2.945 4.355,-8.295 -2.525,-9.08 -4.05,-18.299 -3.854,-27.756 0.043,-2.068 0.084,-4.139 -0.024,-6.2 -0.21,-3.993 -1.262,-4.687 -4.887,-3.276 -2.273,0.882 -4.478,1.943 -6.759,2.8 -5.642,2.119 -11.033,4.768 -16.243,7.763 -4.651,2.672 -4.814,3.405 -3.729,8.568 0.962,4.568 2.845,8.966 2.614,13.766 0.123,0.248 0.246,0.496 0.368,0.744 C 17.822,44.887 17.6,44.74 17.377,44.59 M -1.095,-10.292 c -6.96,-2.881 -13.921,-5.703 -21.332,-7.118 -4.092,-0.781 -8.18,-1.349 -12.168,0.547 -2.291,1.091 -4.478,2.339 -4.321,5.282 0.101,1.875 -1.265,2.603 -2.234,3.665 -3.559,3.897 -8.556,6.186 -11.743,10.505 -0.92,1.248 -2.36,0.97 -3.624,1.163 -9.235,1.406 -16.979,5.813 -23.946,11.815 -2.351,2.022 -3.716,4.672 -4.987,7.424 -5.671,12.286 -5.106,24.864 -1.62,37.505 6.999,25.376 19.342,47.404 39.002,65.46 12.676,11.644 26.694,19.937 43.342,24.061 9.351,2.316 18.747,2.228 27.976,0.237 13.74,-2.966 22.428,-11.85 25.992,-25.334 1.116,-4.223 4.202,-5.972 7.084,-8.214 2.988,-2.321 5.97,-4.081 10.289,-3.073 4.683,1.096 8.062,-1.666 9.899,-7.127 2.695,-8.017 3.382,-16.305 1.452,-24.497 C 74.807,68.593 69.768,55.93 62.28,44.193 53.235,30.016 53.578,34.542 53.952,15.958 c 0.351,-17.312 2.316,-34.517 4.754,-51.654 0.342,-2.396 1.169,-4.733 1.86,-7.07 0.747,-2.521 1.686,-4.988 2.389,-7.521 1.702,-6.134 0.69,-7.046 -5.558,-5.571 -10.826,2.555 -21.164,6.55 -31.555,10.413 -9.468,3.522 -17.321,9.77 -25.77,15.016 -1.669,1.038 -2.109,2.557 -1.987,4.347 0.242,3.566 0.54,7.125 0.771,10.689 0.108,1.627 0.876,3.245 0.049,5.101"
         style="fill:#151515;fill-opacity:1;fill-rule:evenodd;stroke:none"
         id="path4267"
         inkscape:connector-curvature="0" />
    </g>
    <g
       id="g4269"
       transform="matrix(4.1726469,0,0,-4.1726469,409.57221,148.11947)">
      <path
         d="m 0,0 c 1.038,-0.066 2.342,-0.186 3.648,-0.223 4.232,-0.114 7.516,1.551 8.391,4.214 0.94,2.859 -0.976,6.697 -4.487,8.888 -1.441,0.898 -3.009,1.525 -4.731,1.583 -4.158,0.142 -8.215,-0.428 -12.024,-2.147 -2.23,-1.005 -4.305,-2.357 -5.605,-4.507 -1.181,-1.954 -2.138,-4.157 -0.743,-6.326 1.461,-2.268 3.782,-3.037 6.38,-2.272 C -6.237,0.074 -3.25,-0.105 0,0 m 32.277,-15.666 c 0.042,3.408 -0.478,6.762 -1.532,9.965 -1.018,3.107 -3.926,4.833 -6.986,4.628 -2.619,-0.175 -5.03,-1.861 -4.943,-4.457 0.213,-6.225 -0.626,-12.294 -1.598,-18.392 -0.195,-1.218 0.216,-2.64 0.678,-3.842 1.292,-3.354 5.294,-4.71 8.404,-2.908 2.19,1.268 3.77,3.129 4.428,5.597 0.82,3.079 1.605,6.176 1.549,9.409 m -93.359,-42.336 c 0,0.749 0.019,1.496 -0.004,2.243 -0.088,2.853 -0.199,5.76 -3.396,7.056 -2.76,1.119 -5.325,-0.058 -7.977,-3.681 -2.69,-3.674 -4.085,-7.925 -5.156,-12.307 -0.723,-2.957 -0.973,-5.916 -0.195,-8.865 0.691,-2.614 1.856,-4.977 4.871,-5.567 2.951,-0.575 5.051,0.915 6.707,3.127 0.89,1.188 1.718,2.461 2.326,3.812 2.028,4.497 2.811,9.269 2.824,14.182 m 0.54,30.427 c 0.062,-4.52 2.694,-6.372 6.828,-5.871 8.726,1.059 18.043,14.212 18.379,20.65 0.253,4.835 -2.704,7.201 -7.082,5.195 -7.696,-3.522 -13.65,-9.037 -17.252,-16.829 -0.535,-1.157 -0.697,-2.488 -0.873,-3.145 m 12.911,-75.206 c 6.298,1.057 12.786,2.16 18.045,6.618 2.582,2.187 4.236,4.839 3.199,8.396 -0.807,2.766 -3.557,4.269 -7.867,4.012 -6.867,-0.412 -13.212,-2.769 -19.086,-6.195 -3.47,-2.022 -4.289,-6.126 -2.374,-9.283 1.803,-2.969 4.846,-3.222 8.083,-3.548 m 64.934,52.141 c -0.29,2.479 -1.247,4.919 -3.882,6.121 -2.776,1.264 -5.537,0.896 -7.831,-1.222 -4.828,-4.463 -8.894,-9.6 -12.893,-14.793 -1.345,-1.742 -1.514,-3.787 -1.385,-5.878 0.265,-4.313 2.927,-6.452 7.138,-5.62 1.262,0.248 2.519,0.772 3.645,1.406 4.286,2.408 8.009,5.519 11.082,9.37 2.413,3.024 3.422,6.611 4.126,10.616 m -33.21,22.527 c -2.297,0.032 -4.515,-0.429 -6.56,-1.425 -9.102,-4.43 -15.729,-11.428 -20.546,-20.211 -1.191,-2.173 -1.594,-4.584 -1.167,-7.106 0.97,-5.729 4.687,-8.015 10.204,-6.175 0.884,0.297 1.763,0.695 2.544,1.2 5.534,3.573 10.875,7.413 15.501,12.13 3.313,3.38 6.213,7.118 7.475,11.783 1.528,5.647 -1.698,9.791 -7.451,9.804 m 25.298,49.38 c 4.666,0.087 12.676,-1.654 19.87,-6.204 C 39.498,8.589 45.277,-5.232 41.774,-19.188 37.904,-34.606 31.551,-49 23.203,-62.515 9.086,-85.369 -11.063,-101.68 -34.018,-114.826 c -14.878,-8.52 -33.544,-7.247 -47.254,4.78 -1.714,1.503 -3.347,3.037 -4.349,5.108 -4.192,8.665 -6.08,17.671 -4.541,27.336 2.852,17.918 9.91,34.241 19.022,49.701 5.483,9.301 13.488,16.589 21.112,24.119 6.043,5.97 12.447,11.504 20.103,15.306 11.185,5.557 22.765,9.822 39.316,9.743"
         style="fill:#96a5b7;fill-opacity:1;fill-rule:evenodd;stroke:none"
         id="path4271"
         inkscape:connector-curvature="0" />
    </g>
    <g
       id="g4273"
       transform="matrix(4.1726469,0,0,-4.1726469,420.48872,765.57736)">
      <path
         d="m 0,0 c -0.697,-2.289 1.895,-4.692 4.967,-6.832 9.766,-6.798 20.481,-11.739 31.566,-15.9 2.675,-1.004 5.764,-3.89 8.266,-1.441 2.146,2.1 0.572,5.676 0.035,8.594 -2.266,12.325 -5.676,24.485 -5.897,37.109 -0.066,3.777 -1.522,5.85 -4.93,7.192 -8.024,3.157 -15.962,6.53 -23.944,9.798 C 5.91,40.22 5.376,40.183 4.658,35.44 2.977,24.337 1.703,13.173 0,0 m 10.779,65.206 c 0.226,-4.793 -1.657,-9.191 -2.62,-13.759 -1.085,-5.163 -0.922,-5.896 3.73,-8.569 5.21,-2.994 10.6,-5.643 16.243,-7.762 2.281,-0.857 4.486,-1.918 6.759,-2.801 3.625,-1.41 4.676,-0.716 4.886,3.277 0.109,2.061 0.068,4.132 0.025,6.2 -0.197,9.457 1.329,18.676 3.853,27.756 1.489,5.349 1.042,6.345 -4.354,8.295 -4.233,1.531 -8.589,2.739 -12.601,4.83 -1.026,0.533 -2.946,0.685 -2.128,2.597 0.839,1.955 2.331,1.181 3.804,0.638 4.753,-1.741 9.604,-3.233 14.297,-5.124 2.67,-1.075 4.298,-0.496 5.464,1.995 3.332,7.112 7.29,13.936 9.265,21.661 0.701,2.739 -0.085,4.145 -2.298,5.535 -3.061,1.926 -6.358,3.19 -9.745,4.324 -1.065,0.359 -2.106,0.809 -3.115,1.308 -1.332,0.66 -3.118,1.36 -2.047,3.242 0.918,1.613 2.22,0.336 3.392,-0.161 3.617,-1.53 7.233,-3.088 10.933,-4.4 2.964,-1.05 4.076,-0.216 4.351,3.104 0.217,2.61 0.161,5.244 0.228,7.868 l 0.028,0.028 c 3.539,-3.633 2.34,-8.176 1.915,-12.298 -1.026,-9.966 -4.286,-19.361 -8.216,-28.552 -6.047,-14.145 -9.586,-28.97 -9.159,-44.331 0.427,-15.354 1.655,-30.689 3.702,-45.966 1.15,-8.601 2.871,-16.949 5.923,-24.805 -1.512,-1.514 -2.759,-0.802 -4.014,-0.54 -12.213,2.564 -23.482,7.808 -34.968,12.404 -6.506,2.6 -11.734,7.412 -17.692,10.976 -1.977,1.183 -2.001,2.916 -2.037,4.85 -0.113,6.232 1.256,12.312 1.798,18.479 1.223,13.911 5.083,27.258 8.919,40.604 1.013,3.527 1.032,7.599 5.174,9.402 l 0.305,-0.305 z"
         style="fill:#8d4d2e;fill-opacity:1;fill-rule:evenodd;stroke:none"
         id="path4275"
         inkscape:connector-curvature="0" />
    </g>
    <g
       id="g4277"
       transform="matrix(4.1726469,0,0,-4.1726469,572.57833,616.37476)">
      <path
         d="m 0,0 c -8.98,2.698 -16.306,6.388 -23.501,10.386 -1.732,0.963 -2.234,2.156 -1.691,4.171 1.998,7.426 3.805,14.905 5.709,22.354 0.23,0.906 0.517,1.82 0.937,2.652 2.647,5.25 3.763,5.597 9.213,3.437 3.661,-1.452 7.416,-2.669 11.111,-4.039 C 3.461,38.336 4.783,37.527 4.126,35.243 0.891,23.993 -0.4,12.477 0,0"
         style="fill:#753d28;fill-opacity:1;fill-rule:evenodd;stroke:none"
         id="path4279"
         inkscape:connector-curvature="0" />
    </g>
    <g
       id="g4281"
       transform="matrix(4.1726469,0,0,-4.1726469,604.78993,415.29076)">
      <path
         d="m 0,0 c -0.314,0.081 -0.681,0.143 -1.026,0.262 -3.889,1.335 -7.839,2.523 -11.644,4.067 -3.544,1.441 -3.757,2.093 -2.187,5.517 2.571,5.616 5.713,10.969 7.506,16.937 0.584,1.939 1.895,2.614 3.921,1.801 3.645,-1.466 7.46,-2.488 10.94,-4.386 1.788,-0.977 2.851,-1.785 2.125,-4.32 C 7.756,13.334 4.006,7.649 1.666,1.335 1.418,0.669 0.949,0 0,0"
         style="fill:#753d28;fill-opacity:1;fill-rule:evenodd;stroke:none"
         id="path4283"
         inkscape:connector-curvature="0" />
    </g>
    <g
       id="g4285"
       transform="matrix(4.1726469,0,0,-4.1726469,668.01928,216.37316)">
      <path
         d="m 0,0 c 4.906,-0.299 6.543,-2.863 7.389,-5.965 1.887,-6.926 3.14,-13.975 1.382,-21.11 -3.34,-13.55 -7.994,-26.582 -15.995,-38.191 -0.408,-0.595 -0.696,-1.364 -2.058,-1.514 1.186,6.721 3.454,12.934 6.029,19.055 3.569,8.491 6.596,17.096 7.882,26.317 C 5.668,-13.966 5.817,-6.917 0,0"
         style="fill:#96a5b7;fill-opacity:1;fill-rule:evenodd;stroke:none"
         id="path4287"
         inkscape:connector-curvature="0" />
    </g>
    <g
       id="g4289"
       transform="matrix(4.1726469,0,0,-4.1726469,193.32773,664.52296)">
      <path
         d="m 0,0 c 2.245,1.098 4.349,0.719 6.343,-1.154 2.328,-2.182 4.823,-4.193 7.107,-6.422 1.997,-1.951 4.085,-2.435 6.644,-1.261 4.78,2.192 9.648,4.2 14.379,6.493 4.565,2.213 4.783,3.415 1.671,7.743 -1.311,1.825 -2.861,3.477 -4.325,5.189 -1.058,1.236 -1.084,2.337 0.354,3.281 1.281,0.841 2.559,1.783 3.88,0.028 1.803,-2.404 3.624,-4.793 5.451,-7.178 C 42.94,4.846 44.421,3.152 47.086,4.903 47.749,5.34 48.608,5.232 48.981,4.421 49.296,3.731 49.21,2.927 48.733,2.284 48.404,1.838 48.039,1.362 47.581,1.075 38.155,-4.816 28.384,-9.89 17.387,-12.293 c -2.732,-0.598 -4.9,0.23 -6.814,1.728 C 7.03,-7.799 3.69,-4.768 0.293,-1.815 -0.118,-1.459 -0.4,-0.919 0,0"
         style="fill:#8d4d2e;fill-opacity:1;fill-rule:evenodd;stroke:none"
         id="path4291"
         inkscape:connector-curvature="0" />
    </g>
    <g
       id="g4293"
       transform="matrix(4.1726469,0,0,-4.1726469,230.99588,658.95288)">
      <path
         d="m 0,0 c 5.546,2.256 10.754,4.359 15.418,7.543 1.829,1.246 3.499,1.048 5.005,-0.588 0.634,-0.689 1.317,-1.332 1.946,-2.026 4,-4.417 3.902,-4.752 -1.581,-7.096 C 17.521,-3.566 14.284,-5.048 11.064,-6.556 9.2,-7.426 7.567,-7.613 6.009,-5.894 4.265,-3.968 1.765,-2.819 0,0"
         style="fill:#753d28;fill-opacity:1;fill-rule:evenodd;stroke:none"
         id="path4295"
         inkscape:connector-curvature="0" />
    </g>
    <g
       id="g4297"
       transform="matrix(4.1726469,0,0,-4.1726469,426.46229,535.14671)">
      <path
         d="m 0,0 c -1.421,-5.577 -2.917,-11.135 -4.227,-16.737 -0.514,-2.203 -1.775,-3.571 -3.585,-4.742 -2.073,-1.338 -3.414,-1.175 -5.191,0.838 -5.776,6.542 -5.907,6.942 1.031,12.148 C -8.107,-5.597 -4.307,-2.624 0,0"
         style="fill:#753d28;fill-opacity:1;fill-rule:evenodd;stroke:none"
         id="path4299"
         inkscape:connector-curvature="0" />
    </g>
    <g
       id="g4301"
       transform="matrix(4.1726469,0,0,-4.1726469,603.38418,195.3572)">
      <path
         d="m 0,0 c 3.55,-1.351 6.296,-3.079 8.545,-5.17 3.268,-3.038 2.993,-7.445 2.985,-11.53 -0.002,-1.446 -1.284,-1.696 -2.5,-1.356 -1.622,0.455 -3.243,0.942 -4.814,1.544 -6,2.303 -6.474,3.252 -5.245,9.665 C -0.644,-4.832 -0.413,-2.79 0,0"
         style="fill:#753d28;fill-opacity:1;fill-rule:evenodd;stroke:none"
         id="path4303"
         inkscape:connector-curvature="0" />
    </g>
    <g
       id="g4305"
       transform="matrix(4.1726469,0,0,-4.1726469,391.68367,678.28182)">
      <path
         d="m 0,0 c 0.944,-3.633 -0.216,-5.815 -3.415,-7.442 -7.588,-3.856 -15.617,-6.136 -23.968,-7.443 -1.898,-0.296 -3.686,0.207 -5.841,1.45 C -21.05,-10.988 -10.646,-5.246 0,0"
         style="fill:#96a5b7;fill-opacity:1;fill-rule:evenodd;stroke:none"
         id="path4307"
         inkscape:connector-curvature="0" />
    </g>
    <g
       id="g4309"
       transform="matrix(4.1726469,0,0,-4.1726469,464.19133,492.22226)">
      <path
         d="M 0,0 C 0.223,0.149 0.445,0.296 0.668,0.446 0.546,0.198 0.423,-0.051 0.303,-0.301 0.306,-0.306 0,0 0,0"
         style="fill:#8d4d2e;fill-opacity:1;fill-rule:evenodd;stroke:none"
         id="path4311"
         inkscape:connector-curvature="0" />
    </g>
    <g
       id="g4313"
       transform="matrix(4.1726469,0,0,-4.1726469,667.09466,242.91241)">
      <path
         d="m 0,0 c -0.427,0.004 -0.597,0.179 -0.479,0.512 0.008,0.021 0.263,0.012 0.32,-0.053 C -0.062,0.345 -0.03,0.175 0.028,0.028 L 0,0 Z"
         style="fill:#8d4d2e;fill-opacity:1;fill-rule:evenodd;stroke:none"
         id="path4315"
         inkscape:connector-curvature="0" />
    </g>
    <g
       id="g4317"
       transform="matrix(4.1726469,0,0,-4.1726469,238.80751,376.39245)">
      <path
         d="m 0,0 c -0.107,-4.674 2.611,-6.471 6.953,-4.586 0.345,0.149 0.704,0.294 1.003,0.514 6.2,4.568 12.67,8.817 17.6,14.89 1.564,1.925 2.756,4.083 3.442,6.424 1.115,3.815 -0.446,5.731 -4.391,5.814 -2.336,0.05 -4.401,-0.694 -6.435,-1.774 C 11.676,17.831 7.026,12.419 2.727,6.691 1.286,4.774 0.058,2.573 0,0 M 25.018,26.599 C 30.771,26.581 33.997,22.437 32.469,16.79 31.207,12.125 28.307,8.387 24.994,5.007 20.368,0.29 15.026,-3.55 9.493,-7.123 c -0.781,-0.505 -1.66,-0.903 -2.544,-1.2 -5.517,-1.84 -9.234,0.446 -10.204,6.175 -0.428,2.523 -0.024,4.933 1.167,7.106 4.817,8.783 11.443,15.781 20.546,20.211 2.045,0.996 4.263,1.457 6.56,1.43"
         style="fill:#151515;fill-opacity:1;fill-rule:evenodd;stroke:none"
         id="path4319"
         inkscape:connector-curvature="0" />
    </g>
    <g
       id="g4321"
       transform="matrix(4.1726469,0,0,-4.1726469,467.45143,360.86106)">
      <path
         d="m 0,0 c -0.108,1.347 -0.587,2.649 -1.891,3.18 -1.663,0.68 -3.192,0.419 -4.539,-1.098 -2.99,-3.364 -6.191,-6.544 -9.18,-9.908 -1.233,-1.39 -2.216,-3.022 -3.182,-4.623 -0.966,-1.599 -0.969,-3.337 0.407,-4.662 1.243,-1.198 2.813,-0.857 4.175,-0.039 3.871,2.32 7.681,4.756 10.501,8.375 C -1.713,-6.213 -0.68,-3.194 0,0 M 3.432,0.345 C 2.728,-3.66 1.719,-7.247 -0.694,-10.271 c -3.074,-3.851 -6.796,-6.962 -11.082,-9.37 -1.126,-0.634 -2.383,-1.158 -3.645,-1.406 -4.211,-0.832 -6.873,1.307 -7.139,5.62 -0.128,2.091 0.04,4.136 1.386,5.878 3.999,5.193 8.065,10.33 12.893,14.793 2.294,2.118 5.054,2.486 7.831,1.222 C 2.185,5.264 3.142,2.824 3.432,0.345"
         style="fill:#151515;fill-opacity:1;fill-rule:evenodd;stroke:none"
         id="path4323"
         inkscape:connector-curvature="0" />
    </g>
    <g
       id="g4325"
       transform="matrix(4.1726469,0,0,-4.1726469,214.26857,562.41325)">
      <path
         d="m 0,0 c 4.07,0.832 9.086,1.507 13.351,4.506 1.998,1.404 4.476,2.938 3.424,5.728 -1.106,2.934 -4.16,2.086 -6.41,1.744 C 5.745,11.272 1.389,9.522 -2.883,7.658 -5.07,6.705 -6.765,4.954 -6.01,2.426 -5.318,0.11 -3.03,-0.101 0,0 m -0.825,-3.493 c -3.237,0.326 -6.28,0.579 -8.083,3.548 -1.915,3.157 -1.096,7.261 2.374,9.283 5.874,3.426 12.219,5.784 19.086,6.195 4.309,0.257 7.059,-1.246 7.867,-4.012 C 21.456,7.964 19.802,5.312 17.22,3.125 11.961,-1.333 5.473,-2.436 -0.825,-3.493"
         style="fill:#151515;fill-opacity:1;fill-rule:evenodd;stroke:none"
         id="path4327"
         inkscape:connector-curvature="0" />
    </g>
    <g
       id="g4329"
       transform="matrix(4.1726469,0,0,-4.1726469,245.16826,193.14236)">
      <path
         d="m 0,0 c -0.222,0.048 -0.437,0.17 -0.585,0.113 -6.712,-2.551 -11.999,-6.834 -15.602,-13.07 -1.01,-1.751 -2.389,-3.851 -0.584,-5.68 1.84,-1.866 4.207,-0.405 5.657,0.638 4.266,3.075 8.258,6.614 10.322,11.65 C 0.014,-4.382 1.523,-2.314 0,0 m -21.142,-16.785 c 0.176,0.657 0.338,1.988 0.873,3.145 3.602,7.792 9.556,13.307 17.252,16.829 4.378,2.006 7.335,-0.36 7.082,-5.195 -0.336,-6.438 -9.653,-19.591 -18.378,-20.65 -4.134,-0.501 -6.767,1.351 -6.829,5.871"
         style="fill:#151515;fill-opacity:1;fill-rule:evenodd;stroke:none"
         id="path4331"
         inkscape:connector-curvature="0" />
    </g>
    <g
       id="g4333"
       transform="matrix(4.1726469,0,0,-4.1726469,139.78432,397.51442)">
      <path
         d="m 0,0 c 0,2.001 0.047,3.311 -0.015,4.616 -0.05,1.085 0.066,2.351 -1.241,2.847 -1.55,0.591 -2.51,-0.494 -3.257,-1.54 -3.553,-4.972 -5.722,-10.459 -5.649,-16.652 0.025,-2.054 0.202,-4.526 2.615,-5.022 2.364,-0.485 3.684,1.73 4.552,3.5 C -1.011,-8.206 0.269,-3.911 0,0 M 3.574,1.767 C 3.562,-3.146 2.778,-7.918 0.75,-12.415 c -0.607,-1.351 -1.436,-2.624 -2.326,-3.812 -1.655,-2.212 -3.756,-3.702 -6.707,-3.127 -3.015,0.59 -4.18,2.953 -4.87,5.567 -0.779,2.949 -0.529,5.908 0.194,8.865 1.071,4.382 2.466,8.633 5.156,12.307 2.653,3.623 5.217,4.8 7.977,3.681 C 3.371,9.77 3.482,6.863 3.57,4.01 3.594,3.263 3.574,2.516 3.574,1.767"
         style="fill:#151515;fill-opacity:1;fill-rule:evenodd;stroke:none"
         id="path4335"
         inkscape:connector-curvature="0" />
    </g>
    <g
       id="g4337"
       transform="matrix(4.1726469,0,0,-4.1726469,501.9897,196.18212)">
      <path
         d="m 0,0 c 0.092,-2.419 0.131,-4.823 -0.671,-7.185 -0.533,-1.574 -0.969,-3.258 -1.01,-4.903 -0.044,-1.664 0.39,-3.528 2.253,-4.12 1.973,-0.632 3.314,0.877 4.004,2.32 C 7.551,-7.693 7.4,-1.291 5.155,5.092 4.681,6.436 3.372,6.949 1.936,6.788 0.202,6.592 0.03,5.276 0.005,3.916 -0.019,2.61 0,1.305 0,0 m 10.126,-4.15 c 0.059,-3.23 -0.727,-6.328 -1.547,-9.407 -0.657,-2.467 -2.237,-4.329 -4.428,-5.597 -3.109,-1.802 -7.111,-0.446 -8.403,2.909 -0.463,1.202 -0.873,2.624 -0.679,3.842 0.973,6.098 1.812,12.166 1.599,18.391 -0.088,2.596 2.323,4.283 4.942,4.458 C 4.671,10.65 7.578,8.925 8.597,5.818 9.65,2.615 10.171,-0.74 10.126,-4.15"
         style="fill:#151515;fill-opacity:1;fill-rule:evenodd;stroke:none"
         id="path4339"
         inkscape:connector-curvature="0" />
    </g>
    <g
       id="g4341"
       transform="matrix(4.1726469,0,0,-4.1726469,408.34128,134.49498)">
      <path
         d="M 0,0 C 1.86,0 3.722,-0.039 5.579,0.014 6.953,0.055 8.195,0.526 8.705,1.922 9.22,3.332 8.482,4.437 7.524,5.409 6.467,6.48 5.36,7.551 3.792,7.706 -1.612,8.241 -6.61,7.245 -10.745,3.456 -11.679,2.6 -12.8,1.588 -11.852,0.115 -11.151,-0.974 -9.94,-1.052 -8.848,-0.675 -5.957,0.322 -2.975,0.198 0,0 m 0.295,-3.265 c -3.25,-0.106 -6.237,0.074 -9.171,-0.79 -2.598,-0.765 -4.919,0.004 -6.38,2.272 -1.395,2.169 -0.438,4.371 0.743,6.326 1.3,2.149 3.375,3.501 5.605,4.507 3.809,1.719 7.866,2.288 12.024,2.147 1.722,-0.058 3.29,-0.685 4.731,-1.583 3.51,-2.191 5.426,-6.03 4.487,-8.888 -0.875,-2.663 -4.159,-4.329 -8.391,-4.214 -1.306,0.037 -2.61,0.156 -3.648,0.223"
         style="fill:#151515;fill-opacity:1;fill-rule:evenodd;stroke:none"
         id="path4343"
         inkscape:connector-curvature="0" />
    </g>
    <g
       id="g4345"
       transform="matrix(4.1726469,0,0,-4.1726469,595.92723,851.01481)">
      <path
         d="m 0,0 c -0.521,3.573 -0.889,6.856 -1.493,10.094 -1.579,8.451 -4.325,16.696 -4.262,25.439 0.016,2.226 -0.715,4.448 -0.776,6.681 -0.057,2.018 -1.06,2.988 -2.708,3.812 -7.069,3.53 -14.648,5.782 -21.902,8.84 -2.011,0.848 -2.784,-0.191 -3.227,-1.818 -0.294,-1.077 -0.427,-2.203 -0.572,-3.313 -1.043,-7.983 -1.832,-16.006 -3.188,-23.933 -0.857,-5.014 0.857,-8.291 4.971,-10.814 C -23.536,9.087 -13.504,4.051 -2.823,0.361 -2.151,0.129 -1.386,0.168 0,0 m -42.045,20.476 c 1.703,13.172 2.977,24.337 4.658,35.44 0.718,4.743 1.252,4.779 5.406,3.079 7.981,-3.267 15.919,-6.641 23.943,-9.798 3.408,-1.342 4.864,-3.414 4.93,-7.192 C -2.887,29.381 0.523,17.222 2.789,4.896 3.326,1.979 4.9,-1.597 2.754,-3.697 c -2.502,-2.449 -5.591,0.437 -8.266,1.441 -11.085,4.161 -21.8,9.101 -31.566,15.9 -3.072,2.139 -5.664,4.543 -4.967,6.832"
         style="fill:#151515;fill-opacity:1;fill-rule:evenodd;stroke:none"
         id="path4347"
         inkscape:connector-curvature="0" />
    </g>
    <g
       id="g4349"
       transform="matrix(4.1726469,0,0,-4.1726469,238.80751,376.39245)">
      <path
         d="m 0,0 c 0.058,2.573 1.286,4.774 2.727,6.691 4.299,5.728 8.949,11.14 15.445,14.591 2.034,1.08 4.099,1.824 6.435,1.774 3.945,-0.083 5.506,-1.999 4.391,-5.814 C 28.312,14.901 27.12,12.743 25.556,10.818 20.626,4.745 14.156,0.496 7.956,-4.072 7.657,-4.292 7.298,-4.437 6.953,-4.586 2.611,-6.471 -0.107,-4.674 0,0"
         style="fill:#753d28;fill-opacity:1;fill-rule:evenodd;stroke:none"
         id="path4351"
         inkscape:connector-curvature="0" />
    </g>
    <g
       id="g4353"
       transform="matrix(4.1726469,0,0,-4.1726469,467.45143,360.86106)">
      <path
         d="m 0,0 c -0.68,-3.194 -1.713,-6.213 -3.709,-8.775 -2.82,-3.619 -6.63,-6.055 -10.501,-8.375 -1.362,-0.818 -2.932,-1.159 -4.175,0.039 -1.376,1.325 -1.373,3.063 -0.407,4.662 0.966,1.601 1.949,3.233 3.182,4.623 2.989,3.364 6.19,6.544 9.18,9.908 1.347,1.517 2.876,1.778 4.539,1.098 C -0.587,2.649 -0.108,1.347 0,0"
         style="fill:#8d4d2e;fill-opacity:1;fill-rule:evenodd;stroke:none"
         id="path4355"
         inkscape:connector-curvature="0" />
    </g>
    <g
       id="g4357"
       transform="matrix(4.1726469,0,0,-4.1726469,214.26857,562.41325)">
      <path
         d="m 0,0 c -3.03,-0.101 -5.318,0.11 -6.01,2.426 -0.755,2.528 0.94,4.279 3.127,5.232 4.272,1.864 8.628,3.614 13.248,4.32 2.25,0.342 5.304,1.19 6.41,-1.744 C 17.827,7.444 15.349,5.91 13.351,4.506 9.086,1.507 4.07,0.832 0,0"
         style="fill:#8d4d2e;fill-opacity:1;fill-rule:evenodd;stroke:none"
         id="path4359"
         inkscape:connector-curvature="0" />
    </g>
    <g
       id="g4361"
       transform="matrix(4.1726469,0,0,-4.1726469,245.16826,193.14236)">
      <path
         d="m 0,0 c 1.523,-2.314 0.014,-4.382 -0.792,-6.349 -2.064,-5.036 -6.056,-8.575 -10.322,-11.65 -1.45,-1.043 -3.817,-2.504 -5.657,-0.638 -1.805,1.829 -0.426,3.929 0.584,5.68 3.603,6.236 8.89,10.519 15.602,13.07 C -0.437,0.17 -0.222,0.048 0,0"
         style="fill:#8d4d2e;fill-opacity:1;fill-rule:evenodd;stroke:none"
         id="path4363"
         inkscape:connector-curvature="0" />
    </g>
    <g
       id="g4365"
       transform="matrix(4.1726469,0,0,-4.1726469,139.78432,397.51442)">
      <path
         d="m 0,0 c 0.269,-3.911 -1.011,-8.206 -2.995,-12.251 -0.868,-1.77 -2.188,-3.985 -4.552,-3.5 -2.413,0.496 -2.59,2.968 -2.615,5.022 -0.073,6.193 2.096,11.68 5.649,16.652 0.747,1.046 1.707,2.131 3.257,1.54 C 0.051,6.967 -0.065,5.701 -0.015,4.616 0.047,3.311 0,2.001 0,0"
         style="fill:#8d4d2e;fill-opacity:1;fill-rule:evenodd;stroke:none"
         id="path4367"
         inkscape:connector-curvature="0" />
    </g>
    <g
       id="g4369"
       transform="matrix(4.1726469,0,0,-4.1726469,501.9897,196.18212)">
      <path
         d="M 0,0 C 0,1.305 -0.019,2.61 0.005,3.916 0.03,5.276 0.202,6.592 1.936,6.788 3.372,6.949 4.681,6.436 5.155,5.092 7.4,-1.291 7.551,-7.693 4.576,-13.888 c -0.69,-1.443 -2.031,-2.952 -4.004,-2.32 -1.863,0.592 -2.297,2.456 -2.253,4.12 0.041,1.645 0.477,3.329 1.01,4.903 C 0.131,-4.823 0.092,-2.419 0,0"
         style="fill:#8d4d2e;fill-opacity:1;fill-rule:evenodd;stroke:none"
         id="path4371"
         inkscape:connector-curvature="0" />
    </g>
    <g
       id="g4373"
       transform="matrix(4.1726469,0,0,-4.1726469,408.34128,134.49498)">
      <path
         d="m 0,0 c -2.975,0.198 -5.957,0.322 -8.848,-0.675 -1.092,-0.377 -2.303,-0.299 -3.004,0.79 -0.948,1.473 0.173,2.485 1.107,3.341 4.135,3.789 9.133,4.785 14.537,4.25 C 5.36,7.551 6.467,6.48 7.524,5.409 8.482,4.437 9.22,3.332 8.705,1.922 8.195,0.526 6.953,0.055 5.579,0.014 3.722,-0.039 1.86,0 0,0"
         style="fill:#8d4d2e;fill-opacity:1;fill-rule:evenodd;stroke:none"
         id="path4375"
         inkscape:connector-curvature="0" />
    </g>
    <g
       id="g4377"
       transform="matrix(4.1726469,0,0,-4.1726469,595.92723,851.01481)">
      <path
         d="m 0,0 c -1.386,0.168 -2.151,0.129 -2.823,0.361 -10.681,3.69 -20.713,8.726 -30.334,14.627 -4.114,2.523 -5.828,5.8 -4.971,10.814 1.356,7.927 2.145,15.95 3.188,23.933 0.145,1.11 0.278,2.236 0.572,3.313 0.443,1.627 1.216,2.666 3.227,1.818 7.254,-3.058 14.833,-5.31 21.902,-8.84 1.648,-0.824 2.651,-1.794 2.708,-3.812 0.061,-2.233 0.792,-4.455 0.776,-6.681 C -5.818,26.79 -3.072,18.545 -1.493,10.094 -0.889,6.856 -0.521,3.573 0,0"
         style="fill:#753d28;fill-opacity:1;fill-rule:evenodd;stroke:none"
         id="path4379"
         inkscape:connector-curvature="0" />
    </g>
  </g>
</svg>
