<?xml version="1.0" encoding="UTF-8" standalone="no"?>
<!-- Created with Inkscape (http://www.inkscape.org/) -->

<svg
   xmlns:dc="http://purl.org/dc/elements/1.1/"
   xmlns:cc="http://creativecommons.org/ns#"
   xmlns:rdf="http://www.w3.org/1999/02/22-rdf-syntax-ns#"
   xmlns:svg="http://www.w3.org/2000/svg"
   xmlns="http://www.w3.org/2000/svg"
   xmlns:sodipodi="http://sodipodi.sourceforge.net/DTD/sodipodi-0.dtd"
   xmlns:inkscape="http://www.inkscape.org/namespaces/inkscape"
   width="210mm"
   height="297mm"
   viewBox="0 0 744.09448819 1052.3622047"
   id="svg6439"
   version="1.1"
   inkscape:version="0.91 r13725"
   sodipodi:docname="maison.svg">
  <defs
     id="defs6441" />
  <sodipodi:namedview
     id="base"
     pagecolor="#ffffff"
     bordercolor="#666666"
     borderopacity="1.0"
     inkscape:pageopacity="0.0"
     inkscape:pageshadow="2"
     inkscape:zoom="0.35"
     inkscape:cx="-146.42857"
     inkscape:cy="520"
     inkscape:document-units="px"
     inkscape:current-layer="layer1"
     showgrid="false"
     inkscape:window-width="1366"
     inkscape:window-height="705"
     inkscape:window-x="-8"
     inkscape:window-y="-8"
     inkscape:window-maximized="1" />
  <metadata
     id="metadata6444">
    <rdf:RDF>
      <cc:Work
         rdf:about="">
        <dc:format>image/svg+xml</dc:format>
        <dc:type
           rdf:resource="http://purl.org/dc/dcmitype/StillImage" />
        <dc:title></dc:title>
      </cc:Work>
    </rdf:RDF>
  </metadata>
  <g
     inkscape:label="Calque 1"
     inkscape:groupmode="layer"
     id="layer1">
    <g
       transform="matrix(4.9316381,0,0,-4.9316381,312.66526,894.88669)"
       id="g4714">
      <path
         inkscape:connector-curvature="0"
         id="path4716"
         style="fill:#000000;fill-opacity:1;fill-rule:nonzero;stroke:none"
         d="M 0,0 C 4.063,0.126 8.164,0.164 12.265,0.126 10.903,4.013 11.66,10.108 11.521,13.767 11.269,20.67 10.978,27.572 10.802,34.475 -5.426,33.15 -0.126,11.559 0,0 m 26.235,0.303 c 0.744,6.398 1.388,12.997 0.996,19.445 -0.517,8.67 -6.158,14.828 -14.953,14.79 0.265,-5.729 0.454,-11.458 0.669,-17.187 0.101,-2.789 0.227,-5.578 0.29,-8.366 0.063,-2.209 0.795,-6.322 0.379,-8.859 4.277,-0.05 8.555,-0.176 12.783,-0.378 -0.114,0.151 -0.19,0.34 -0.164,0.555 m 2.258,-5.414 C 28.014,-4.152 27.572,-2.89 27.749,-1.88 17.641,-2.562 6.902,-2.398 -3.18,-1.211 c 0.164,-0.556 0.025,-1.187 0.076,-1.78 0.05,-0.555 0.164,-1.11 0.328,-1.665 2.145,-0.177 4.278,-0.631 5.035,-0.669 8.745,-0.442 17.502,-0.328 26.234,0.214 m -18.31,-5.236 c 7.319,-0.013 14.689,0.075 22.058,0.063 0,1.198 -0.29,2.397 -0.845,3.457 -6.575,-0.479 -13.149,-0.732 -19.736,-0.631 -3.521,0.063 -7.054,0.19 -10.575,0.417 -1.691,0.113 -7.697,1.59 -8.883,0.05 -0.026,-0.025 -0.051,-0.038 -0.064,-0.05 0.013,-0.606 -0.138,-1.161 -0.214,-1.792 -0.063,-0.454 -0.076,-0.921 -0.076,-1.376 6.133,-0.037 12.253,-0.138 18.335,-0.138 m 47.523,-0.795 c 0.113,-0.013 0.202,-0.038 0.29,-0.076 -1.741,22.941 -1.173,46.223 -1.691,69.214 -0.53,23.105 -0.833,46.223 -1.363,69.328 -7.584,3.962 -15.003,8.316 -22.436,12.518 -8.076,4.58 -16.783,8.82 -24.203,14.448 -0.063,-0.126 -0.139,-0.252 -0.265,-0.366 -7.205,-6.662 -15.761,-11.117 -24.253,-15.912 -7.786,-4.404 -14.423,-10.12 -21.553,-15.256 0.959,-11.105 0.442,-22.499 0.492,-33.642 0.05,-10.928 0.126,-21.868 0.164,-32.809 0.076,-22.285 0.265,-44.582 0.278,-66.88 0,-0.151 -0.038,-0.277 -0.076,-0.391 9.06,0.707 18.234,0.808 27.408,0.757 -0.177,1.351 -0.101,2.89 0.656,3.862 0.114,0.151 0.316,0.176 0.492,0.139 0.379,1.299 2.12,1.653 4.101,1.64 -0.176,0.442 -0.328,0.883 -0.403,1.375 -0.101,0.732 -0.253,1.59 0.138,2.259 0.013,0.025 0.038,0.025 0.051,0.038 -0.202,0.29 -0.101,0.745 0.366,0.757 0.921,0.051 1.867,0.063 2.801,0.101 C -2.751,13.25 -7.42,36.885 12.619,36.67 32.746,36.456 30.121,13.982 28.19,0.038 c -0.012,-0.139 -0.063,-0.253 -0.138,-0.353 0.075,-0.013 0.151,-0.013 0.227,-0.013 0.479,-0.025 0.732,-0.379 0.732,-0.745 l 0.012,-0.012 c 0.341,-0.581 0.202,-1.224 0.253,-1.88 0.063,-0.707 0.239,-1.401 0.504,-2.07 0.619,0.038 1.237,0.063 1.855,0.114 0.644,0.05 0.934,-0.455 0.896,-0.959 0.051,-0.038 0.089,-0.076 0.127,-0.139 0.719,-1.376 0.971,-2.814 0.719,-4.265 8.139,-0.038 16.278,-0.227 24.329,-0.858 m 3.495,143.968 c -0.176,-0.026 -0.378,-0.013 -0.58,0.101 -9.477,4.921 -18.928,9.905 -28.38,14.877 -8.126,4.265 -16.644,8.19 -23.559,14.323 -0.013,-0.202 -0.076,-0.404 -0.24,-0.593 -6.309,-7.155 -15.584,-11.749 -23.496,-16.884 -9.313,-6.058 -18.55,-12.316 -28.153,-17.894 0.089,-0.063 0.189,-0.126 0.265,-0.214 0.921,-1.224 0.833,-3.395 0.656,-5.124 12.493,15.547 34.26,20.872 48.785,34.046 0.353,0.328 0.757,0.341 1.11,0.214 0.114,0.089 0.265,0.127 0.417,0.063 8.908,-3.684 17.199,-9.274 25.603,-13.969 8.997,-5.022 18.209,-9.716 27.068,-14.953 0.063,1.237 0.138,2.486 0.265,3.735 0.088,0.757 0.126,1.527 0.239,2.272 m 1.742,1.438 c 0.328,-1.4 -0.051,-2.94 -0.24,-4.353 -0.189,-1.464 -0.429,-2.915 -0.719,-4.366 -0.051,-0.303 -0.278,-0.455 -0.53,-0.48 -0.291,-0.391 -0.808,-0.618 -1.363,-0.341 -0.959,0.455 -1.893,0.934 -2.839,1.414 0.34,-22.714 0.883,-45.428 1.224,-68.142 0.34,-23.193 1.817,-46.639 0.87,-69.82 -0.012,-0.479 -0.404,-0.681 -0.757,-0.618 -0.113,-0.328 -0.391,-0.606 -0.883,-0.631 -15.786,-0.505 -31.711,0.429 -47.523,0.517 -15.798,0.089 -31.749,-0.744 -47.522,-0.012 -0.631,0.038 -0.858,0.593 -0.719,1.034 -0.429,0.076 -0.821,0.392 -0.821,0.959 -0.126,22.298 -0.075,44.595 -0.126,66.88 -0.025,11.357 -0.012,22.714 -0.025,34.071 -0.013,10.474 -0.543,21.174 0.24,31.635 -1.262,-0.896 -2.537,-1.766 -3.849,-2.612 -0.189,-0.126 -0.429,-0.063 -0.593,0.076 -0.429,-0.05 -0.858,0.189 -0.846,0.77 0.026,1.06 -0.012,2.132 -0.126,3.192 -0.101,0.985 -0.441,1.931 -0.202,2.915 0.013,0.063 0.063,0.089 0.089,0.139 -0.328,0.24 -0.429,0.795 0,1.123 8.48,6.145 17.363,11.71 26.146,17.414 8.354,5.426 18.55,10.385 25.2,17.919 0.252,0.277 0.542,0.341 0.807,0.29 0.089,0.353 0.48,0.631 0.846,0.391 16.833,-10.991 35.194,-19.584 52.936,-28.998 0.063,-0.038 0.088,-0.076 0.139,-0.113 0.315,0.416 1.072,0.277 1.186,-0.253" />
    </g>
    <g
       transform="matrix(4.9316381,0,0,-4.9316381,611.62511,239.34029)"
       id="g4718">
      <path
         inkscape:connector-curvature="0"
         id="path4720"
         style="fill:#ea5b0c;fill-opacity:1;fill-rule:nonzero;stroke:none"
         d="M 0,0 C 0.202,-0.114 0.404,-0.126 0.58,-0.101 0.467,-0.845 0.429,-1.615 0.341,-2.372 0.214,-3.622 0.139,-4.871 0.076,-6.108 c -8.859,5.237 -18.07,9.932 -27.068,14.954 -8.404,4.694 -16.694,10.284 -25.603,13.969 -0.152,0.063 -0.303,0.025 -0.417,-0.063 -0.353,0.126 -0.757,0.113 -1.11,-0.215 -14.524,-13.174 -36.292,-18.499 -48.784,-34.045 0.176,1.728 0.264,3.899 -0.657,5.123 -0.075,0.088 -0.176,0.151 -0.265,0.214 9.603,5.578 18.84,11.837 28.153,17.894 7.912,5.136 17.187,9.729 23.496,16.884 0.164,0.189 0.227,0.391 0.24,0.593 6.915,-6.133 15.433,-10.057 23.559,-14.322 C -18.928,9.906 -9.477,4.921 0,0" />
    </g>
    <g
       transform="matrix(4.9316381,0,0,-4.9316381,317.8928,671.91103)"
       id="g4722">
      <path
         inkscape:connector-curvature="0"
         id="path4724"
         style="fill:#fbdece;fill-opacity:1;fill-rule:nonzero;stroke:none"
         d="M 0,0 C 0.555,1.312 0.782,2.726 0.543,4.126 0.429,4.833 -0.391,4.77 -0.732,4.303 -0.745,4.53 -0.871,4.757 -1.085,4.871 -1.047,4.972 -1.009,5.085 -0.997,5.212 -0.202,16.581 1.237,35.875 -15.244,34.626 -31.37,33.415 -26.954,16.468 -27.9,5.451 c -0.139,0 -0.278,0 -0.404,-0.012 -0.341,0 -0.517,-0.227 -0.543,-0.467 -0.239,-0.089 -0.416,-0.303 -0.378,-0.619 0.126,-1.123 0.24,-2.233 0.353,-3.356 0.051,-0.517 0.656,-0.682 0.959,-0.429 -0.076,-0.265 0.076,-0.606 0.429,-0.644 8.531,-1.047 17.54,-1.35 26.071,-0.214 0.189,0.025 0.315,0.101 0.429,0.214 C -0.82,-0.442 -0.202,-0.48 0,0 m 0.177,46.16 c 0.542,1.312 0.769,2.725 0.53,4.139 -0.114,0.706 -0.934,0.631 -1.262,0.164 -0.013,0.227 -0.139,0.454 -0.366,0.58 0.05,0.088 0.088,0.202 0.088,0.328 0.808,11.37 2.234,30.664 -14.234,29.427 C -31.206,79.574 -26.79,62.627 -27.724,51.611 l -0.416,0 c -0.328,-0.013 -0.505,-0.24 -0.543,-0.48 -0.239,-0.088 -0.416,-0.302 -0.378,-0.618 0.126,-1.123 0.24,-2.233 0.353,-3.356 0.051,-0.518 0.656,-0.669 0.972,-0.43 -0.088,-0.265 0.063,-0.605 0.416,-0.643 8.531,-1.047 17.54,-1.35 26.083,-0.215 0.177,0.026 0.316,0.101 0.417,0.215 0.176,-0.366 0.795,-0.391 0.997,0.076 M 45.693,0 c 0.555,1.312 0.77,2.726 0.542,4.126 -0.113,0.707 -0.946,0.644 -1.274,0.177 -0.013,0.227 -0.139,0.454 -0.366,0.568 0.05,0.101 0.088,0.214 0.101,0.341 0.795,11.369 2.221,30.663 -14.247,29.414 C 14.322,33.415 18.739,16.468 17.793,5.451 c -0.139,0 -0.278,0 -0.417,-0.012 -0.328,0 -0.505,-0.227 -0.53,-0.467 C 16.606,4.883 16.43,4.669 16.455,4.353 16.581,3.23 16.707,2.12 16.821,0.997 16.871,0.48 17.464,0.315 17.78,0.568 c -0.076,-0.265 0.076,-0.606 0.429,-0.644 8.518,-1.047 17.54,-1.35 26.07,-0.214 0.177,0.025 0.316,0.101 0.429,0.214 0.165,-0.366 0.783,-0.404 0.985,0.076 m 0.164,46.16 c 0.555,1.312 0.782,2.725 0.542,4.139 -0.113,0.706 -0.933,0.631 -1.261,0.164 -0.026,0.227 -0.139,0.454 -0.366,0.58 0.05,0.088 0.075,0.202 0.088,0.328 0.808,11.37 2.233,30.664 -14.247,29.427 C 14.486,79.574 18.903,62.627 17.969,51.611 l -0.416,0 c -0.341,-0.013 -0.505,-0.24 -0.543,-0.48 -0.24,-0.088 -0.416,-0.302 -0.378,-0.618 0.126,-1.123 0.239,-2.233 0.353,-3.356 0.05,-0.518 0.656,-0.669 0.959,-0.43 -0.076,-0.252 0.076,-0.605 0.429,-0.643 8.53,-1.047 17.54,-1.35 26.07,-0.215 0.19,0.026 0.329,0.101 0.43,0.215 0.164,-0.366 0.795,-0.391 0.984,0.076 M 56.936,-56.431 c -0.088,0.037 -0.177,0.063 -0.29,0.075 -8.051,0.631 -16.19,0.821 -24.329,0.858 0.252,1.452 0,2.89 -0.719,4.266 -0.038,0.063 -0.076,0.101 -0.127,0.138 0.038,0.505 -0.252,1.01 -0.896,0.959 -0.618,-0.05 -1.236,-0.075 -1.855,-0.113 -0.265,0.669 -0.441,1.363 -0.504,2.069 -0.051,0.657 0.088,1.3 -0.253,1.881 l -0.012,0.012 c 0,0.366 -0.253,0.719 -0.732,0.745 -0.076,0 -0.152,0 -0.227,0.012 0.075,0.101 0.126,0.215 0.138,0.354 1.931,13.943 4.556,36.418 -15.571,36.632 -20.039,0.215 -15.37,-23.42 -13.919,-36.708 -0.934,-0.038 -1.88,-0.051 -2.801,-0.101 -0.467,-0.013 -0.568,-0.467 -0.366,-0.757 -0.013,-0.013 -0.038,-0.013 -0.051,-0.038 -0.391,-0.669 -0.239,-1.527 -0.138,-2.259 0.075,-0.492 0.227,-0.934 0.403,-1.375 -1.981,0.012 -3.722,-0.341 -4.101,-1.641 -0.176,0.038 -0.378,0.013 -0.492,-0.139 -0.757,-0.971 -0.833,-2.511 -0.656,-3.861 -9.174,0.051 -18.348,-0.05 -27.408,-0.757 0.038,0.114 0.076,0.24 0.076,0.391 -0.013,22.298 -0.202,44.595 -0.278,66.88 -0.038,10.94 -0.113,21.881 -0.164,32.809 -0.05,11.142 0.467,22.537 -0.492,33.642 7.13,5.135 13.767,10.852 21.553,15.256 8.492,4.795 17.048,9.249 24.253,15.912 0.126,0.114 0.202,0.24 0.265,0.366 7.42,-5.628 16.127,-9.868 24.203,-14.448 7.433,-4.203 14.852,-8.556 22.436,-12.518 0.53,-23.105 0.833,-46.223 1.363,-69.328 0.518,-22.992 -0.05,-46.273 1.691,-69.214" />
    </g>
    <g
       transform="matrix(4.9316381,0,0,-4.9316381,530.78669,418.56686)"
       id="g4726">
      <path
         inkscape:connector-curvature="0"
         id="path4728"
         style="fill:#000000;fill-opacity:1;fill-rule:nonzero;stroke:none"
         d="M 0,0 C 0.694,10.461 2.019,30.298 -13.868,27.471 -27.698,25.023 -22.171,9.918 -24.077,0.252 -16.064,0.404 -7.962,0.404 0.025,-0.164 0.013,-0.114 0,-0.063 0,0 m 1.805,-4.354 c 0.176,0.96 0.164,1.906 0.025,2.89 0,0.038 0.012,0.063 0,0.101 C 1.729,-1.514 1.552,-1.628 1.3,-1.64 c -8.77,-0.303 -17.679,0.126 -26.437,0.694 0.026,-1.086 0.063,-2.171 0.101,-3.269 0,-0.088 -0.012,-0.164 -0.038,-0.227 0.076,0.051 0.164,0.088 0.278,0.088 8.72,-0.176 17.364,0.127 26.07,0.228 0.253,0 0.417,-0.089 0.531,-0.228 M 3.23,-1.073 C 3.47,-2.486 3.243,-3.899 2.688,-5.212 2.499,-5.678 1.868,-5.653 1.704,-5.287 c -0.101,-0.114 -0.24,-0.19 -0.43,-0.215 -8.53,-1.136 -17.54,-0.833 -26.07,0.215 -0.353,0.038 -0.505,0.391 -0.429,0.643 -0.303,-0.239 -0.909,-0.088 -0.959,0.429 -0.114,1.123 -0.227,2.234 -0.353,3.357 -0.038,0.315 0.138,0.53 0.378,0.618 0.038,0.24 0.202,0.467 0.543,0.48 l 0.416,0 c 0.934,11.016 -3.483,27.963 12.644,29.187 C 3.924,30.664 2.499,11.37 1.691,0 1.678,-0.126 1.653,-0.24 1.603,-0.328 1.83,-0.454 1.943,-0.681 1.969,-0.909 2.297,-0.442 3.117,-0.366 3.23,-1.073" />
    </g>
    <g
       transform="matrix(4.9316381,0,0,-4.9316381,529.97738,646.20978)"
       id="g4730">
      <path
         inkscape:connector-curvature="0"
         id="path4732"
         style="fill:#000000;fill-opacity:1;fill-rule:nonzero;stroke:none"
         d="M 0,0 C 0.694,10.461 2.006,30.298 -13.881,27.471 -27.711,25.023 -22.171,9.918 -24.077,0.252 -16.076,0.404 -7.962,0.404 0.013,-0.164 0.013,-0.114 -0.013,-0.063 0,0 m 1.792,-4.353 c 0.189,0.959 0.177,1.892 0.038,2.889 -0.013,0.038 0,0.063 0,0.101 -0.114,-0.151 -0.278,-0.265 -0.543,-0.277 -8.77,-0.303 -17.679,0.126 -26.436,0.694 0.025,-1.086 0.063,-2.171 0.113,-3.269 0,-0.088 -0.012,-0.164 -0.038,-0.227 0.064,0.051 0.152,0.089 0.278,0.089 8.72,-0.177 17.364,0.126 26.07,0.227 0.24,0 0.417,-0.089 0.518,-0.227 M 3.23,-1.085 C 3.458,-2.486 3.243,-3.899 2.688,-5.212 2.486,-5.691 1.868,-5.653 1.704,-5.287 1.59,-5.401 1.451,-5.477 1.274,-5.502 c -8.53,-1.135 -17.552,-0.833 -26.07,0.215 -0.353,0.038 -0.505,0.378 -0.429,0.643 -0.315,-0.252 -0.909,-0.088 -0.959,0.429 -0.114,1.123 -0.24,2.234 -0.366,3.357 -0.025,0.315 0.151,0.53 0.391,0.618 0.025,0.24 0.202,0.467 0.53,0.467 0.139,0.013 0.278,0.013 0.417,0.013 0.946,11.016 -3.471,27.963 12.656,29.174 C 3.912,30.664 2.486,11.37 1.691,0 1.678,-0.126 1.64,-0.24 1.59,-0.341 c 0.227,-0.113 0.353,-0.34 0.366,-0.568 0.328,0.467 1.161,0.53 1.274,-0.176" />
    </g>
    <g
       transform="matrix(4.9316381,0,0,-4.9316381,539.81008,425.7858)"
       id="g4734">
      <path
         inkscape:connector-curvature="0"
         id="path4736"
         style="fill:#ea5b0c;fill-opacity:1;fill-rule:nonzero;stroke:none"
         d="m 0,0 c 0.139,-0.984 0.151,-1.931 -0.025,-2.89 -0.114,0.139 -0.278,0.227 -0.53,0.227 -8.707,-0.101 -17.351,-0.403 -26.071,-0.227 -0.113,0 -0.202,-0.038 -0.277,-0.088 0.025,0.063 0.038,0.139 0.038,0.227 -0.038,1.098 -0.076,2.183 -0.101,3.268 C -18.209,-0.05 -9.3,-0.48 -0.53,-0.177 -0.278,-0.164 -0.101,-0.05 0,0.101 0.013,0.063 0,0.038 0,0" />
    </g>
    <g
       transform="matrix(4.9316381,0,0,-4.9316381,539.00082,653.42871)"
       id="g4738">
      <path
         inkscape:connector-curvature="0"
         id="path4740"
         style="fill:#ea5b0c;fill-opacity:1;fill-rule:nonzero;stroke:none"
         d="m 0,0 c 0.139,-0.997 0.151,-1.931 -0.038,-2.89 -0.101,0.139 -0.277,0.227 -0.517,0.227 -8.707,-0.101 -17.351,-0.403 -26.071,-0.227 -0.126,0 -0.214,-0.038 -0.277,-0.088 0.025,0.063 0.038,0.139 0.038,0.227 -0.051,1.098 -0.089,2.183 -0.114,3.268 C -18.222,-0.05 -9.313,-0.48 -0.543,-0.177 -0.278,-0.164 -0.114,-0.05 0,0.101 0,0.063 -0.013,0.038 0,0" />
    </g>
    <g
       transform="matrix(4.9316381,0,0,-4.9316381,523.31869,408.1744)"
       id="g4742">
      <path
         inkscape:connector-curvature="0"
         id="path4744"
         style="fill:#f29d6d;fill-opacity:1;fill-rule:nonzero;stroke:none"
         d="m 0,0 c 0.896,8.694 1.123,24.152 -10.814,24.026 -0.177,0 -0.354,-0.025 -0.518,-0.025 -0.176,0.076 -0.378,0.076 -0.542,-0.025 -11.61,-0.947 -8.152,-15.496 -8.695,-23.547 0,-0.025 0,-0.05 0.013,-0.076 -0.227,-0.176 -0.101,-0.618 0.227,-0.643 6.259,-0.555 12.644,-0.278 18.928,-0.581 0.24,-0.012 0.417,0.063 0.53,0.202 C -0.492,-0.707 -0.05,-0.492 0,0 M -12.354,25.364 C 3.533,28.19 2.208,8.354 1.514,-2.107 c 0,-0.063 0.013,-0.114 0.025,-0.164 -7.987,0.567 -16.088,0.567 -24.101,0.416 1.905,9.666 -3.622,24.771 10.208,27.219" />
    </g>
    <g
       transform="matrix(4.9316381,0,0,-4.9316381,522.50942,635.81685)"
       id="g4746">
      <path
         inkscape:connector-curvature="0"
         id="path4748"
         style="fill:#f29d6d;fill-opacity:1;fill-rule:nonzero;stroke:none"
         d="m 0,0 c 0.896,8.682 1.123,24.152 -10.827,24.026 -0.177,0 -0.341,-0.025 -0.517,-0.025 -0.177,0.076 -0.379,0.076 -0.53,-0.025 -11.622,-0.947 -8.152,-15.496 -8.707,-23.547 0,-0.025 0.012,-0.05 0.012,-0.076 -0.227,-0.176 -0.088,-0.618 0.24,-0.643 6.259,-0.555 12.632,-0.278 18.916,-0.593 0.239,0 0.416,0.075 0.53,0.214 C -0.492,-0.707 -0.05,-0.492 0,0 M -12.366,25.364 C 3.521,28.19 2.208,8.354 1.514,-2.107 1.502,-2.17 1.527,-2.221 1.527,-2.271 c -7.975,0.567 -16.089,0.567 -24.089,0.416 1.905,9.666 -3.635,24.771 10.196,27.219" />
    </g>
    <g
       transform="matrix(4.9316381,0,0,-4.9316381,465.07012,348.05876)"
       id="g4750">
      <path
         inkscape:connector-curvature="0"
         id="path4752"
         style="fill:#000000;fill-opacity:1;fill-rule:nonzero;stroke:none"
         d="M 0,0 C -0.189,3.42 -0.278,6.839 -0.265,10.196 -6.309,9.199 -7.382,4.404 -7.458,-0.845 -5.06,-0.379 -2.549,-0.126 0,0 m -7.559,-11.609 c 2.776,0.378 5.641,0.492 8.493,0.454 -0.353,2.965 -0.606,5.994 -0.808,9.035 -2.574,-0.038 -5.123,0.038 -7.584,0.341 0.013,-3.47 0.354,-7.054 -0.101,-9.83 M 1.628,0.088 C 4.518,0.177 7.407,0.164 10.183,0.177 9.275,5.805 6.814,10.713 0.883,10.335 1.224,6.966 1.464,3.521 1.628,0.088 m 8.795,-11.71 c 0.227,2.675 0.379,6.398 0,10.019 -2.826,-0.176 -5.779,-0.391 -8.732,-0.492 0.101,-3.041 0.139,-6.082 0.076,-9.073 2.902,-0.05 5.817,-0.252 8.644,-0.454 l 0.012,0 z M 0.997,11.836 c 11.937,0.127 11.71,-15.331 10.814,-24.026 -0.05,-0.492 -0.492,-0.706 -0.87,-0.669 -0.114,-0.138 -0.291,-0.214 -0.53,-0.201 -6.285,0.302 -12.67,0.025 -18.929,0.58 -0.328,0.025 -0.454,0.467 -0.227,0.644 -0.012,0.025 -0.012,0.05 -0.012,0.075 0.542,8.051 -2.915,22.601 8.694,23.547 0.164,0.101 0.366,0.101 0.543,0.025 0.164,0 0.34,0.025 0.517,0.025" />
    </g>
    <g
       transform="matrix(4.9316381,0,0,-4.9316381,464.19872,575.70168)"
       id="g4754">
      <path
         inkscape:connector-curvature="0"
         id="path4756"
         style="fill:#000000;fill-opacity:1;fill-rule:nonzero;stroke:none"
         d="M 0,0 C -0.177,3.42 -0.265,6.827 -0.265,10.196 -6.297,9.199 -7.369,4.404 -7.445,-0.858 -5.048,-0.379 -2.536,-0.126 0,0 m -7.559,-11.609 c 2.789,0.378 5.641,0.492 8.505,0.454 -0.353,2.965 -0.618,5.994 -0.807,9.035 -2.574,-0.05 -5.136,0.038 -7.597,0.341 0.013,-3.47 0.354,-7.067 -0.101,-9.83 M 1.628,0.076 C 4.518,0.177 7.42,0.164 10.196,0.177 9.287,5.805 6.827,10.713 0.896,10.335 1.237,6.953 1.476,3.521 1.628,0.076 m 8.795,-11.698 c 0.227,2.675 0.391,6.398 0.013,10.019 -2.84,-0.176 -5.78,-0.391 -8.732,-0.492 0.101,-3.041 0.138,-6.082 0.063,-9.073 2.915,-0.05 5.817,-0.252 8.644,-0.454 l 0.012,0 z M 0.997,11.836 c 11.95,0.127 11.723,-15.344 10.827,-24.026 -0.051,-0.492 -0.492,-0.706 -0.884,-0.669 -0.113,-0.138 -0.29,-0.214 -0.529,-0.214 -6.285,0.315 -12.657,0.038 -18.916,0.593 -0.328,0.025 -0.467,0.467 -0.24,0.644 0,0.025 -0.013,0.05 -0.013,0.075 0.556,8.051 -2.914,22.601 8.708,23.547 0.151,0.101 0.353,0.101 0.529,0.025 0.177,0 0.341,0.025 0.518,0.025" />
    </g>
    <g
       transform="matrix(4.9316381,0,0,-4.9316381,516.4731,355.9622)"
       id="g4758">
      <path
         inkscape:connector-curvature="0"
         id="path4760"
         style="fill:#d6f0fb;fill-opacity:1;fill-rule:nonzero;stroke:none"
         d="m 0,0 c 0.379,-3.622 0.227,-7.344 0,-10.019 l -0.013,0 c -2.826,0.202 -5.741,0.403 -8.643,0.454 0.063,2.991 0.025,6.032 -0.076,9.073 C -5.779,-0.391 -2.827,-0.177 0,0" />
    </g>
    <g
       transform="matrix(4.9316381,0,0,-4.9316381,515.66431,583.60461)"
       id="g4762">
      <path
         inkscape:connector-curvature="0"
         id="path4764"
         style="fill:#d6f0fb;fill-opacity:1;fill-rule:nonzero;stroke:none"
         d="m 0,0 c 0.379,-3.622 0.215,-7.344 -0.013,-10.019 l -0.012,0 c -2.827,0.202 -5.729,0.403 -8.644,0.454 0.076,2.991 0.038,6.032 -0.063,9.073 C -5.779,-0.391 -2.839,-0.177 0,0" />
    </g>
    <g
       transform="matrix(4.9316381,0,0,-4.9316381,515.29097,347.18732)"
       id="g4766">
      <path
         inkscape:connector-curvature="0"
         id="path4768"
         style="fill:#d6f0fb;fill-opacity:1;fill-rule:nonzero;stroke:none"
         d="M 0,0 C -2.776,-0.013 -5.666,0 -8.556,-0.088 -8.72,3.344 -8.959,6.789 -9.3,10.158 -3.369,10.537 -0.909,5.628 0,0" />
    </g>
    <g
       transform="matrix(4.9316381,0,0,-4.9316381,514.4817,574.83028)"
       id="g4770">
      <path
         inkscape:connector-curvature="0"
         id="path4772"
         style="fill:#d6f0fb;fill-opacity:1;fill-rule:nonzero;stroke:none"
         d="M 0,0 C -2.776,-0.013 -5.678,0 -8.568,-0.101 -8.72,3.344 -8.959,6.776 -9.3,10.158 -3.369,10.537 -0.909,5.628 0,0" />
    </g>
    <g
       transform="matrix(4.9316381,0,0,-4.9316381,471.66668,945.60511)"
       id="g4774">
      <path
         inkscape:connector-curvature="0"
         id="path4776"
         style="fill:#f29d6d;fill-opacity:1;fill-rule:nonzero;stroke:none"
         d="m 0,0 c -7.369,0.013 -14.739,-0.076 -22.058,-0.063 -6.082,0 -12.202,0.101 -18.335,0.139 0,0.454 0.013,0.921 0.076,1.375 0.076,0.631 0.227,1.186 0.214,1.792 0.013,0.013 0.038,0.025 0.064,0.051 1.186,1.539 7.192,0.063 8.883,-0.051 3.521,-0.227 7.054,-0.353 10.575,-0.416 C -13.994,2.726 -7.42,2.978 -0.845,3.458 -0.29,2.398 0,1.199 0,0" />
    </g>
    <g
       transform="matrix(4.9316381,0,0,-4.9316381,469.67529,403.07166)"
       id="g4778">
      <path
         inkscape:connector-curvature="0"
         id="path4780"
         style="fill:#d6f0fb;fill-opacity:1;fill-rule:nonzero;stroke:none"
         d="m 0,0 c -2.852,0.038 -5.716,-0.076 -8.492,-0.454 0.454,2.776 0.113,6.36 0.101,9.83 2.46,-0.303 5.009,-0.379 7.583,-0.341 C -0.606,5.994 -0.353,2.965 0,0" />
    </g>
    <g
       transform="matrix(4.9316381,0,0,-4.9316381,468.8665,630.7141)"
       id="g4782">
      <path
         inkscape:connector-curvature="0"
         id="path4784"
         style="fill:#d6f0fb;fill-opacity:1;fill-rule:nonzero;stroke:none"
         d="m 0,0 c -2.865,0.038 -5.716,-0.076 -8.505,-0.454 0.454,2.763 0.113,6.36 0.101,9.83 C -5.943,9.073 -3.382,8.985 -0.808,9.035 -0.618,5.994 -0.353,2.965 0,0" />
    </g>
    <g
       transform="matrix(4.9316381,0,0,-4.9316381,463.76324,297.77574)"
       id="g4786">
      <path
         inkscape:connector-curvature="0"
         id="path4788"
         style="fill:#d6f0fb;fill-opacity:1;fill-rule:nonzero;stroke:none"
         d="m 0,0 c -0.013,-3.357 0.076,-6.776 0.265,-10.196 -2.549,-0.126 -5.06,-0.379 -7.458,-0.845 C -7.117,-5.792 -6.044,-0.997 0,0" />
    </g>
    <g
       transform="matrix(4.9316381,0,0,-4.9316381,462.89184,525.41818)"
       id="g4790">
      <path
         inkscape:connector-curvature="0"
         id="path4792"
         style="fill:#d6f0fb;fill-opacity:1;fill-rule:nonzero;stroke:none"
         d="M 0,0 C 0,-3.369 0.088,-6.776 0.265,-10.196 -2.271,-10.322 -4.783,-10.575 -7.18,-11.054 -7.104,-5.792 -6.032,-0.997 0,0" />
    </g>
    <g
       transform="matrix(4.9316381,0,0,-4.9316381,449.5123,904.15911)"
       id="g4794">
      <path
         inkscape:connector-curvature="0"
         id="path4796"
         style="fill:#f29d6d;fill-opacity:1;fill-rule:nonzero;stroke:none"
         d="m 0,0 c -0.177,-1.01 0.265,-2.271 0.745,-3.23 -8.733,-0.543 -17.49,-0.657 -26.235,-0.215 -0.757,0.038 -2.89,0.492 -5.035,0.669 -0.164,0.555 -0.278,1.11 -0.328,1.666 -0.05,0.593 0.088,1.224 -0.076,1.779 C -20.846,-0.517 -10.108,-0.681 0,0" />
    </g>
    <g
       transform="matrix(4.9316381,0,0,-4.9316381,437.0037,880.69785)"
       id="g4798">
      <path
         inkscape:connector-curvature="0"
         id="path4800"
         style="fill:#ea5b0c;fill-opacity:1;fill-rule:nonzero;stroke:none"
         d="m 0,0 c 1.085,6.562 2.322,15.004 -0.24,21.338 -0.429,1.073 -7.066,10.108 -8.606,6.676 0.101,0.24 -0.012,0.517 -0.29,0.517 -0.088,0.013 -0.189,0.013 -0.278,0.013 -0.126,0 -0.214,-0.038 -0.302,-0.101 -0.215,0.328 -0.871,0.189 -0.833,-0.265 0.87,-9.729 1.186,-19.256 1.236,-29.011 0,-0.53 0.581,-0.643 0.884,-0.391 0.038,-0.013 0.075,-0.025 0.126,-0.025 1.3,-0.025 2.599,0.038 3.899,0.101 1.06,0.05 2.145,-0.026 3.117,0.441 0.252,0.114 0.29,0.379 0.202,0.606 C -0.845,-0.53 -0.101,-0.58 0,0 M 2.019,16.871 C 2.41,10.423 1.767,3.824 1.022,-2.574 0.997,-2.789 1.073,-2.978 1.186,-3.129 c -4.227,0.201 -8.505,0.328 -12.783,0.378 0.417,2.536 -0.315,6.65 -0.378,8.859 -0.063,2.788 -0.189,5.577 -0.29,8.366 -0.215,5.729 -0.404,11.458 -0.669,17.187 8.795,0.037 14.436,-6.121 14.953,-14.79" />
    </g>
    <g
       transform="matrix(4.9316381,0,0,-4.9316381,431.46495,880.82213)"
       id="g4802">
      <path
         inkscape:connector-curvature="0"
         id="path4804"
         style="fill:#000000;fill-opacity:1;fill-rule:nonzero;stroke:none"
         d="m 0,0 c -0.025,0.05 -0.038,0.114 -0.038,0.177 -0.177,9.855 4.026,23.357 -8.366,27.37 1.476,-9.048 2.019,-18.562 1.337,-27.698 1.086,0.151 2.171,0.265 3.269,0.366 1.123,0.1 2.41,0.403 3.508,0.05 C -0.151,0.227 -0.063,0.114 0,0 M 0.883,21.364 C 3.445,15.029 2.208,6.587 1.123,0.025 1.022,-0.555 0.278,-0.505 0.038,-0.076 c 0.088,-0.227 0.05,-0.492 -0.202,-0.605 -0.972,-0.467 -2.057,-0.392 -3.117,-0.442 -1.3,-0.063 -2.599,-0.126 -3.899,-0.101 -0.051,0 -0.088,0.013 -0.126,0.025 -0.303,-0.252 -0.884,-0.139 -0.884,0.391 -0.05,9.755 -0.366,19.282 -1.236,29.011 -0.038,0.454 0.618,0.593 0.833,0.265 0.088,0.063 0.176,0.101 0.302,0.101 0.089,0 0.19,0 0.278,-0.013 0.278,0 0.391,-0.277 0.29,-0.517 1.54,3.432 8.177,-5.603 8.606,-6.675" />
    </g>
    <g
       transform="matrix(4.9316381,0,0,-4.9316381,431.27854,879.9512)"
       id="g4806">
      <path
         inkscape:connector-curvature="0"
         id="path4808"
         style="fill:#f29d6d;fill-opacity:1;fill-rule:nonzero;stroke:none"
         d="M 0,0 C 0,-0.063 0.013,-0.126 0.038,-0.177 -0.025,-0.063 -0.114,0.05 -0.252,0.088 -1.35,0.442 -2.637,0.139 -3.76,0.038 -4.858,-0.063 -5.943,-0.177 -7.029,-0.328 -6.347,8.808 -6.89,18.323 -8.366,27.37 4.025,23.357 -0.177,9.855 0,0" />
    </g>
    <g
       transform="matrix(4.9316381,0,0,-4.9316381,360.14806,886.92111)"
       id="g4810">
      <path
         inkscape:connector-curvature="0"
         id="path4812"
         style="fill:#ea5b0c;fill-opacity:1;fill-rule:nonzero;stroke:none"
         d="m 0,0 c 0.416,10.133 -0.126,20.619 -0.858,30.727 -0.038,0.492 -0.732,0.517 -0.795,0.038 -0.051,0 -0.088,0 -0.139,-0.026 C -12.493,26.323 -9.25,9.742 -7.988,0.795 -8.328,0.631 -8.328,0.202 -7.962,0.05 c 1.034,-0.416 2.296,-0.328 3.407,-0.34 1.224,-0.025 2.435,-0.013 3.659,-0.013 C -0.618,-0.618 -0.025,-0.53 0,0 m 2.637,-1.489 c -4.101,0.038 -8.202,0 -12.265,-0.126 C -9.754,9.944 -15.054,31.534 1.174,32.859 1.35,25.957 1.64,19.054 1.893,12.152 2.032,8.492 1.275,2.398 2.637,-1.489" />
    </g>
    <g
       transform="matrix(4.9316381,0,0,-4.9316381,354.60932,881.13334)"
       id="g4814">
      <path
         inkscape:connector-curvature="0"
         id="path4816"
         style="fill:#000000;fill-opacity:1;fill-rule:nonzero;stroke:none"
         d="M 0,0 C -0.77,9.224 -0.782,18.752 -0.58,28.001 -9.325,23.622 -6.713,8.127 -5.956,-0.126 c 0.82,0.139 1.703,0.101 2.524,0.101 C -2.284,0 -1.148,-0.013 0,0 M 0.265,29.553 C 0.997,19.446 1.54,8.959 1.123,-1.174 1.098,-1.704 0.505,-1.792 0.227,-1.476 c -1.224,0 -2.435,-0.013 -3.659,0.012 -1.111,0.013 -2.373,-0.076 -3.407,0.341 -0.366,0.151 -0.366,0.58 -0.026,0.744 -1.261,8.947 -4.505,25.528 6.196,29.945 0.051,0.025 0.089,0.025 0.139,0.025 0.063,0.48 0.757,0.454 0.795,-0.038" />
    </g>
    <g
       transform="matrix(4.9316381,0,0,-4.9316381,351.74652,743.04202)"
       id="g4818">
      <path
         inkscape:connector-curvature="0"
         id="path4820"
         style="fill:#f29d6d;fill-opacity:1;fill-rule:nonzero;stroke:none"
         d="m 0,0 c -0.202,-9.25 -0.189,-18.777 0.58,-28.001 -1.148,-0.013 -2.284,0 -3.432,-0.025 -0.82,0 -1.703,0.037 -2.524,-0.101 C -6.133,-19.875 -8.745,-4.379 0,0" />
    </g>
    <g
       transform="matrix(4.9316381,0,0,-4.9316381,305.44633,418.56686)"
       id="g4822">
      <path
         inkscape:connector-curvature="0"
         id="path4824"
         style="fill:#000000;fill-opacity:1;fill-rule:nonzero;stroke:none"
         d="M 0,0 C 0.707,10.461 2.019,30.298 -13.868,27.471 -27.698,25.023 -22.159,9.918 -24.077,0.252 -16.064,0.404 -7.962,0.404 0.025,-0.164 0.013,-0.114 0,-0.063 0,0 m 1.804,-4.354 c 0.177,0.96 0.165,1.906 0.026,2.89 0,0.038 0.012,0.063 0.012,0.101 C 1.729,-1.514 1.552,-1.628 1.3,-1.64 c -8.77,-0.303 -17.679,0.126 -26.437,0.694 0.026,-1.086 0.063,-2.171 0.101,-3.269 0,-0.088 -0.012,-0.164 -0.038,-0.227 0.076,0.051 0.164,0.088 0.278,0.088 8.72,-0.176 17.376,0.127 26.083,0.228 0.24,0 0.404,-0.089 0.517,-0.228 M 3.23,-1.073 C 3.47,-2.486 3.243,-3.899 2.7,-5.212 2.499,-5.678 1.88,-5.653 1.704,-5.287 1.603,-5.401 1.464,-5.477 1.287,-5.502 c -8.543,-1.136 -17.553,-0.833 -26.083,0.215 -0.353,0.038 -0.505,0.378 -0.416,0.643 -0.316,-0.239 -0.922,-0.088 -0.972,0.429 -0.114,1.123 -0.227,2.234 -0.353,3.357 -0.038,0.315 0.138,0.53 0.378,0.618 0.038,0.24 0.215,0.467 0.543,0.48 l 0.416,0 c 0.934,11.016 -3.483,27.963 12.657,29.187 C 3.924,30.664 2.499,11.37 1.691,0 c 0,-0.126 -0.038,-0.24 -0.088,-0.328 0.227,-0.126 0.353,-0.353 0.366,-0.581 0.328,0.467 1.148,0.543 1.261,-0.164" />
    </g>
    <g
       transform="matrix(4.9316381,0,0,-4.9316381,304.63754,646.20978)"
       id="g4826">
      <path
         inkscape:connector-curvature="0"
         id="path4828"
         style="fill:#000000;fill-opacity:1;fill-rule:nonzero;stroke:none"
         d="M 0,0 C 0.694,10.461 2.006,30.298 -13.868,27.471 -27.698,25.023 -22.171,9.918 -24.077,0.252 -16.076,0.404 -7.962,0.404 0.025,-0.164 0.013,-0.114 -0.013,-0.063 0,0 m 1.805,-4.353 c 0.176,0.959 0.164,1.892 0.025,2.889 -0.013,0.038 0,0.063 0,0.101 C 1.729,-1.514 1.552,-1.628 1.3,-1.64 c -8.77,-0.303 -17.679,0.126 -26.437,0.694 0.026,-1.086 0.063,-2.171 0.101,-3.269 0,-0.088 -0.012,-0.164 -0.038,-0.227 0.064,0.051 0.152,0.089 0.278,0.089 8.72,-0.177 17.364,0.126 26.071,0.227 0.252,0 0.416,-0.089 0.53,-0.227 M 3.23,-1.085 C 3.47,-2.486 3.243,-3.899 2.688,-5.212 2.486,-5.691 1.868,-5.653 1.704,-5.287 1.59,-5.401 1.464,-5.477 1.275,-5.502 c -8.531,-1.135 -17.541,-0.833 -26.071,0.215 -0.353,0.038 -0.505,0.378 -0.429,0.643 -0.303,-0.252 -0.909,-0.088 -0.959,0.429 -0.114,1.123 -0.227,2.234 -0.353,3.357 -0.038,0.315 0.138,0.53 0.378,0.618 0.025,0.24 0.202,0.467 0.543,0.467 0.126,0.013 0.265,0.013 0.404,0.013 0.946,11.016 -3.471,27.963 12.656,29.174 C 3.924,30.664 2.486,11.37 1.691,0 1.678,-0.126 1.64,-0.24 1.603,-0.341 c 0.214,-0.113 0.34,-0.34 0.353,-0.568 0.341,0.467 1.161,0.53 1.274,-0.176" />
    </g>
    <g
       transform="matrix(4.9316381,0,0,-4.9316381,314.46973,425.7858)"
       id="g4830">
      <path
         inkscape:connector-curvature="0"
         id="path4832"
         style="fill:#ea5b0c;fill-opacity:1;fill-rule:nonzero;stroke:none"
         d="m 0,0 c 0.139,-0.984 0.151,-1.931 -0.025,-2.89 -0.114,0.139 -0.278,0.227 -0.518,0.227 -8.707,-0.101 -17.363,-0.403 -26.083,-0.227 -0.113,0 -0.202,-0.038 -0.277,-0.088 0.025,0.063 0.038,0.139 0.038,0.227 -0.038,1.098 -0.076,2.183 -0.101,3.268 C -18.209,-0.05 -9.3,-0.48 -0.53,-0.177 -0.278,-0.164 -0.101,-0.05 0.013,0.101 0.013,0.063 0,0.038 0,0" />
    </g>
    <g
       transform="matrix(4.9316381,0,0,-4.9316381,313.66094,653.42871)"
       id="g4834">
      <path
         inkscape:connector-curvature="0"
         id="path4836"
         style="fill:#ea5b0c;fill-opacity:1;fill-rule:nonzero;stroke:none"
         d="m 0,0 c 0.139,-0.997 0.151,-1.931 -0.025,-2.89 -0.114,0.139 -0.278,0.227 -0.53,0.227 -8.707,-0.101 -17.351,-0.403 -26.071,-0.227 -0.126,0 -0.214,-0.038 -0.277,-0.088 0.025,0.063 0.038,0.139 0.038,0.227 -0.038,1.098 -0.076,2.183 -0.101,3.268 C -18.209,-0.05 -9.3,-0.48 -0.53,-0.177 -0.278,-0.164 -0.101,-0.05 0,0.101 0,0.063 -0.013,0.038 0,0" />
    </g>
    <g
       transform="matrix(4.9316381,0,0,-4.9316381,297.97884,408.1744)"
       id="g4838">
      <path
         inkscape:connector-curvature="0"
         id="path4840"
         style="fill:#f29d6d;fill-opacity:1;fill-rule:nonzero;stroke:none"
         d="m 0,0 c 0.896,8.682 1.136,24.152 -10.814,24.026 -0.177,0 -0.341,-0.025 -0.518,-0.025 -0.176,0.076 -0.378,0.076 -0.53,-0.025 -11.622,-0.947 -8.151,-15.496 -8.707,-23.547 0,-0.025 0.013,-0.05 0.013,-0.076 -0.227,-0.176 -0.088,-0.618 0.24,-0.643 6.246,-0.555 12.631,-0.278 18.915,-0.581 0.24,-0.012 0.417,0.063 0.53,0.202 C -0.492,-0.707 -0.05,-0.492 0,0 M -12.354,25.364 C 3.533,28.19 2.221,8.354 1.514,-2.107 c 0,-0.063 0.013,-0.114 0.026,-0.164 -7.988,0.567 -16.089,0.567 -24.102,0.416 1.918,9.666 -3.622,24.771 10.208,27.219" />
    </g>
    <g
       transform="matrix(4.9316381,0,0,-4.9316381,297.16954,635.81685)"
       id="g4842">
      <path
         inkscape:connector-curvature="0"
         id="path4844"
         style="fill:#f29d6d;fill-opacity:1;fill-rule:nonzero;stroke:none"
         d="m 0,0 c 0.896,8.682 1.123,24.152 -10.814,24.026 -0.19,-0.012 -0.354,-0.025 -0.518,-0.025 -0.176,0.076 -0.391,0.076 -0.542,-0.025 -11.61,-0.947 -8.152,-15.496 -8.695,-23.547 -0.012,-0.025 0,-0.05 0,-0.076 -0.227,-0.176 -0.088,-0.618 0.24,-0.643 6.259,-0.555 12.644,-0.278 18.928,-0.593 0.24,0 0.404,0.075 0.53,0.214 C -0.492,-0.719 -0.05,-0.492 0,0 M -12.354,25.364 C 3.521,28.19 2.208,8.354 1.514,-2.107 1.502,-2.17 1.527,-2.221 1.539,-2.271 c -7.987,0.567 -16.101,0.567 -24.101,0.416 1.905,9.666 -3.622,24.771 10.208,27.219" />
    </g>
    <g
       transform="matrix(4.9316381,0,0,-4.9316381,239.72977,348.05876)"
       id="g4846">
      <path
         inkscape:connector-curvature="0"
         id="path4848"
         style="fill:#000000;fill-opacity:1;fill-rule:nonzero;stroke:none"
         d="M 0,0 C -0.177,3.42 -0.278,6.839 -0.265,10.196 -6.309,9.199 -7.382,4.404 -7.458,-0.845 -5.06,-0.379 -2.549,-0.126 0,0 m -7.559,-11.609 c 2.789,0.378 5.641,0.492 8.505,0.454 -0.366,2.965 -0.618,5.994 -0.82,9.035 -2.574,-0.05 -5.123,0.038 -7.584,0.341 0.013,-3.47 0.354,-7.054 -0.101,-9.83 M 1.628,0.088 C 4.518,0.177 7.407,0.164 10.196,0.177 9.287,5.805 6.814,10.713 0.896,10.335 1.224,6.966 1.476,3.521 1.628,0.088 m 8.795,-11.71 c 0.227,2.675 0.379,6.398 0,10.019 -2.826,-0.176 -5.779,-0.391 -8.719,-0.492 0.088,-3.041 0.126,-6.082 0.063,-9.073 2.915,-0.05 5.817,-0.252 8.644,-0.454 l 0.012,0 z M 0.997,11.836 c 11.95,0.127 11.71,-15.344 10.814,-24.026 -0.05,-0.492 -0.492,-0.706 -0.87,-0.669 -0.114,-0.138 -0.291,-0.214 -0.53,-0.201 -6.285,0.302 -12.67,0.025 -18.916,0.58 -0.328,0.025 -0.467,0.467 -0.24,0.644 0,0.025 -0.012,0.05 -0.012,0.075 0.555,8.051 -2.915,22.601 8.707,23.547 0.151,0.101 0.353,0.101 0.53,0.025 0.176,0 0.34,0.025 0.517,0.025" />
    </g>
    <g
       transform="matrix(4.9316381,0,0,-4.9316381,238.85884,575.70168)"
       id="g4850">
      <path
         inkscape:connector-curvature="0"
         id="path4852"
         style="fill:#000000;fill-opacity:1;fill-rule:nonzero;stroke:none"
         d="M 0,0 C -0.177,3.42 -0.265,6.827 -0.265,10.196 -6.297,9.199 -7.369,4.404 -7.445,-0.858 -5.048,-0.379 -2.536,-0.126 0,0 m -7.546,-11.609 c 2.776,0.378 5.628,0.492 8.492,0.454 -0.353,2.965 -0.605,5.994 -0.807,9.035 -2.574,-0.05 -5.136,0.038 -7.597,0.341 0.026,-3.47 0.366,-7.067 -0.088,-9.83 M 1.628,0.076 C 4.518,0.177 7.42,0.164 10.196,0.177 9.287,5.805 6.827,10.713 0.896,10.335 1.237,6.953 1.476,3.521 1.628,0.076 m 8.808,-11.698 c 0.214,2.675 0.378,6.398 0,10.019 -2.827,-0.176 -5.78,-0.391 -8.732,-0.492 0.1,-3.041 0.138,-6.082 0.075,-9.073 2.903,-0.063 5.805,-0.252 8.644,-0.454 l 0.013,0 z M 1.009,11.836 c 11.938,0.127 11.711,-15.344 10.815,-24.026 -0.051,-0.492 -0.492,-0.719 -0.871,-0.669 -0.126,-0.138 -0.29,-0.214 -0.53,-0.214 -6.284,0.315 -12.669,0.038 -18.928,0.593 -0.328,0.025 -0.467,0.467 -0.24,0.644 0,0.025 -0.012,0.05 0,0.075 0.543,8.051 -2.915,22.601 8.695,23.547 0.151,0.101 0.365,0.101 0.542,0.025 0.164,0 0.328,0.013 0.517,0.025" />
    </g>
    <g
       transform="matrix(4.9316381,0,0,-4.9316381,291.13322,355.9622)"
       id="g4854">
      <path
         inkscape:connector-curvature="0"
         id="path4856"
         style="fill:#d6f0fb;fill-opacity:1;fill-rule:nonzero;stroke:none"
         d="m 0,0 c 0.379,-3.622 0.227,-7.344 0,-10.019 l -0.013,0 c -2.826,0.202 -5.729,0.403 -8.643,0.454 0.063,2.991 0.025,6.032 -0.064,9.073 C -5.779,-0.391 -2.827,-0.177 0,0" />
    </g>
    <g
       transform="matrix(4.9316381,0,0,-4.9316381,290.32443,583.60461)"
       id="g4858">
      <path
         inkscape:connector-curvature="0"
         id="path4860"
         style="fill:#d6f0fb;fill-opacity:1;fill-rule:nonzero;stroke:none"
         d="m 0,0 c 0.379,-3.622 0.215,-7.344 0,-10.019 l -0.013,0 c -2.839,0.202 -5.741,0.391 -8.644,0.454 0.064,2.991 0.026,6.032 -0.075,9.073 C -5.779,-0.391 -2.827,-0.177 0,0" />
    </g>
    <g
       transform="matrix(4.9316381,0,0,-4.9316381,290.01326,347.18732)"
       id="g4862">
      <path
         inkscape:connector-curvature="0"
         id="path4864"
         style="fill:#d6f0fb;fill-opacity:1;fill-rule:nonzero;stroke:none"
         d="M 0,0 C -2.789,-0.013 -5.678,0 -8.568,-0.088 -8.72,3.344 -8.972,6.789 -9.3,10.158 -3.382,10.537 -0.909,5.628 0,0" />
    </g>
    <g
       transform="matrix(4.9316381,0,0,-4.9316381,289.14182,574.83028)"
       id="g4866">
      <path
         inkscape:connector-curvature="0"
         id="path4868"
         style="fill:#d6f0fb;fill-opacity:1;fill-rule:nonzero;stroke:none"
         d="M 0,0 C -2.776,-0.013 -5.678,0 -8.568,-0.101 -8.72,3.344 -8.959,6.776 -9.3,10.158 -3.369,10.537 -0.909,5.628 0,0" />
    </g>
    <g
       transform="matrix(4.9316381,0,0,-4.9316381,244.39707,403.07166)"
       id="g4870">
      <path
         inkscape:connector-curvature="0"
         id="path4872"
         style="fill:#d6f0fb;fill-opacity:1;fill-rule:nonzero;stroke:none"
         d="m 0,0 c -2.864,0.038 -5.716,-0.076 -8.505,-0.454 0.454,2.776 0.113,6.36 0.101,9.83 C -5.943,9.073 -3.394,8.985 -0.82,9.035 -0.618,5.994 -0.366,2.965 0,0" />
    </g>
    <g
       transform="matrix(4.9316381,0,0,-4.9316381,243.52614,630.7141)"
       id="g4874">
      <path
         inkscape:connector-curvature="0"
         id="path4876"
         style="fill:#d6f0fb;fill-opacity:1;fill-rule:nonzero;stroke:none"
         d="m 0,0 c -2.865,0.038 -5.716,-0.076 -8.492,-0.454 0.454,2.763 0.113,6.36 0.088,9.83 C -5.943,9.073 -3.382,8.985 -0.808,9.035 -0.606,5.994 -0.353,2.965 0,0" />
    </g>
    <g
       transform="matrix(4.9316381,0,0,-4.9316381,238.4234,297.77574)"
       id="g4878">
      <path
         inkscape:connector-curvature="0"
         id="path4880"
         style="fill:#d6f0fb;fill-opacity:1;fill-rule:nonzero;stroke:none"
         d="m 0,0 c -0.013,-3.357 0.088,-6.776 0.265,-10.196 -2.549,-0.126 -5.06,-0.379 -7.458,-0.845 C -7.117,-5.792 -6.044,-0.997 0,0" />
    </g>
    <g
       transform="matrix(4.9316381,0,0,-4.9316381,237.55196,525.41818)"
       id="g4882">
      <path
         inkscape:connector-curvature="0"
         id="path4884"
         style="fill:#d6f0fb;fill-opacity:1;fill-rule:nonzero;stroke:none"
         d="M 0,0 C 0,-3.369 0.088,-6.776 0.265,-10.196 -2.271,-10.322 -4.783,-10.575 -7.18,-11.054 -7.104,-5.792 -6.032,-0.997 0,0" />
    </g>
  </g>
</svg>
