<?xml version="1.0" encoding="UTF-8" standalone="no"?>
<!-- Created with Inkscape (http://www.inkscape.org/) -->

<svg
   xmlns:dc="http://purl.org/dc/elements/1.1/"
   xmlns:cc="http://creativecommons.org/ns#"
   xmlns:rdf="http://www.w3.org/1999/02/22-rdf-syntax-ns#"
   xmlns:svg="http://www.w3.org/2000/svg"
   xmlns="http://www.w3.org/2000/svg"
   xmlns:sodipodi="http://sodipodi.sourceforge.net/DTD/sodipodi-0.dtd"
   xmlns:inkscape="http://www.inkscape.org/namespaces/inkscape"
   width="210mm"
   height="297mm"
   viewBox="0 0 744.09448819 1052.3622047"
   id="svg7799"
   version="1.1"
   inkscape:version="0.91 r13725"
   sodipodi:docname="popcorn.svg">
  <defs
     id="defs7801" />
  <sodipodi:namedview
     id="base"
     pagecolor="#ffffff"
     bordercolor="#666666"
     borderopacity="1.0"
     inkscape:pageopacity="0.0"
     inkscape:pageshadow="2"
     inkscape:zoom="0.35"
     inkscape:cx="-146.42857"
     inkscape:cy="520"
     inkscape:document-units="px"
     inkscape:current-layer="layer1"
     showgrid="false"
     inkscape:window-width="1366"
     inkscape:window-height="705"
     inkscape:window-x="-8"
     inkscape:window-y="-8"
     inkscape:window-maximized="1" />
  <metadata
     id="metadata7804">
    <rdf:RDF>
      <cc:Work
         rdf:about="">
        <dc:format>image/svg+xml</dc:format>
        <dc:type
           rdf:resource="http://purl.org/dc/dcmitype/StillImage" />
        <dc:title />
      </cc:Work>
    </rdf:RDF>
  </metadata>
  <g
     inkscape:label="Calque 1"
     inkscape:groupmode="layer"
     id="layer1">
    <g
       id="g7479"
       transform="matrix(4.2698967,0,0,-4.2698967,353.74611,329.50288)">
      <path
         d="m 0,0 c 8.602,0.317 16.811,-0.055 24.996,0.768 2.679,0.268 3.495,1.906 2.09,4.078 -0.854,1.321 -2.146,2.226 -3.636,2.428 -1.969,0.272 -2.72,1.338 -3.4,3.091 -1.981,5.108 -4.273,5.659 -8.07,1.735 C 9.683,9.724 8.055,8.41 4.477,10.372 1.013,12.27 -1.205,9.867 -0.592,5.685 -0.349,4.028 -0.24,2.353 0,0 m 73.815,0.354 c 0.003,0.023 0.006,0.046 0.008,0.069 2.802,-0.241 5.608,-0.446 8.404,-0.745 0.901,-0.098 1.748,-0.556 2.533,0.352 2.327,2.695 0.935,8.086 -2.604,9.051 -1.941,0.528 -2.963,1.153 -2.937,3.281 0.042,3.515 -1.965,5.691 -5.218,6.392 -3.245,0.699 -4.63,-1.819 -5.824,-4.225 C 67.4,12.961 66.602,11.902 64.566,11.535 60.803,10.854 60.669,10.561 61.578,6.868 62.056,4.931 60.662,2.403 62.675,1.137 64.401,0.05 66.696,0.597 68.758,0.59 70.445,0.583 72.13,0.437 73.815,0.354 M -35.083,30.218 c 4.61,7.373 5.586,7.803 14.263,6.178 0.826,-0.153 1.526,-0.181 2.049,0.366 2.742,2.861 6.271,3.623 10.626,4.051 -4.831,0.979 -5.703,5.004 -7.86,7.989 -2.098,2.902 -5.361,2.831 -8.101,-0.367 -1.946,-2.273 -3.393,-2.86 -6.125,-1.376 -5.748,3.122 -10.315,-2.192 -11.256,-6.472 -0.28,-1.273 -0.45,-2.697 1.067,-3.428 2.764,-1.335 3.779,-4.03 5.337,-6.941 m 0.411,-31.468 c 9.38,0.441 18.913,1.381 28.482,1.163 0.928,-0.023 1.906,0.004 2.394,1.038 0.803,1.703 0.276,3.362 -0.436,4.876 -0.699,1.485 -2.184,2.431 -3.711,1.719 -3.541,-1.65 -4.103,0.563 -4.914,3.143 -1.116,3.55 -3.089,5.019 -5.908,4.986 -2.989,-0.034 -4.506,-2.012 -5.038,-4.478 -0.653,-3.035 -1.727,-3.314 -4.647,-2.415 -4.43,1.363 -6.859,-1.085 -6.531,-5.956 0.086,-1.273 -0.696,-2.574 0.309,-4.076 m 79.103,2.068 0,0.368 c 3.757,0 7.518,0.068 11.275,-0.028 2.278,-0.055 3,1.078 2.851,3.111 -0.183,2.516 -1.243,4.635 -3.965,4.573 -3.217,-0.078 -3.67,1.452 -3.716,4.14 -0.047,2.861 -1.634,5.058 -4.495,5.816 -3.088,0.82 -5.121,-1.096 -6.362,-3.509 -1.295,-2.52 -2.49,-3.414 -5.626,-2.723 -3.97,0.876 -5.941,-2.3 -4.415,-6.146 0.41,-1.029 0.897,-2.128 0.908,-3.199 0.023,-2.058 1.044,-2.474 2.836,-2.43 3.567,0.086 7.139,0.027 10.709,0.027 M 33.737,46.377 c 2.315,6.754 1.94,7.881 -4.136,11.75 -1.325,0.844 -1.336,2.045 -1.648,3.323 -1.135,4.651 -4.24,6.008 -8.224,3.215 -2.324,-1.627 -3.591,-1.564 -5.7,0.338 -4.2,3.789 -10.394,1.547 -11.772,-3.981 -0.668,-2.68 1.732,-5.307 4.43,-4.419 5.18,1.705 8.618,-0.092 11.366,-4.473 1.739,-2.772 4.862,-4.601 7.773,-4.222 3.029,0.393 5.436,-0.204 7.911,-1.531 M -55.754,-2.5 l 0,0.489 c 4.492,0 8.985,0.053 13.476,-0.025 1.93,-0.032 3.197,0.565 3.796,2.514 1.419,4.632 -2.344,9.205 -6.938,7.835 -2.947,-0.88 -4.167,-0.257 -4.953,2.429 -0.921,3.15 -3.445,4.453 -6.379,4.598 -2.72,0.135 -4.643,-1.719 -5.444,-4.141 -0.878,-2.656 -2.39,-3.196 -5.013,-3.24 -3.916,-0.066 -5.903,-2.824 -5.59,-6.746 0.207,-2.578 0.971,-4.062 4.136,-3.8 4.276,0.354 8.604,0.087 12.909,0.087 M 71.522,23.809 c 0.177,3.208 -1.958,5.754 -5.541,5.758 -2.743,0.005 -3.767,0.818 -4.711,3.438 -2.228,6.181 -7.511,6.815 -11.379,1.503 -1.901,-2.608 -3.754,-4.876 -7.07,-5.827 -1.879,-0.54 -2.837,-2.427 -2.729,-4.49 0.081,-1.54 0.23,-2.753 2.631,-2.415 6.457,0.905 9.088,-0.954 11.169,-7.172 0.867,-2.591 2.68,-3.456 4.87,-2.035 1.412,0.914 2.872,1.622 4.354,2.373 3.471,1.763 4.882,5.88 8.25,7.907 0.199,0.119 0.119,0.701 0.156,0.96 M -22.834,18.24 c 6.828,1.364 9.481,0.317 12.62,-4.918 0.672,-1.119 0.968,-2.151 2.675,-2.33 3.195,-0.34 6.673,1.324 8.132,4.389 1.345,2.831 0.78,7.702 -1.917,9.201 -2.925,1.624 -3.531,3.673 -3.948,6.663 -0.665,4.768 -5.907,7.516 -9.091,4.536 -3.482,-3.254 -6.127,-4.136 -10.238,-1.471 -1.722,1.117 -5.225,-1.107 -5.878,-3.162 -0.782,-2.465 1.74,-2.373 2.821,-3.396 1.059,-1.002 2.123,-1.994 3.21,-3.017 0.988,0.682 1.083,2.98 3.167,2.25 0.962,-0.336 1.423,-1.246 1.17,-2.271 -0.635,-2.573 -2.894,-0.376 -4.181,-1.355 0.161,-0.729 0.286,-1.466 0.491,-2.181 0.254,-0.889 0.574,-1.758 0.967,-2.938 m 44.053,27.725 c -3.043,0.602 -5.212,2.038 -6.55,5.125 -1.271,2.933 -4.15,4.006 -6.539,2.316 -3.721,-2.633 -5.388,-1.201 -7.407,1.972 -1.718,2.699 -4.747,2.951 -7.596,2.061 -3.065,-0.956 -5.455,-3.536 -5.842,-6.311 -0.293,-2.107 1.249,-4.933 4.267,-5.921 2.657,-0.87 3.259,-3.174 3.49,-5.828 0.355,-4.072 1.782,-4.897 5.53,-3.75 2.607,0.797 5.153,0.889 7.627,-0.487 0.762,-0.423 1.705,-1.498 2.451,-0.643 3.296,3.782 9.94,4.252 10.569,11.466 M -59.827,18.713 c 4.907,-0.115 9.786,-0.492 12.155,-5.901 3.609,-1.001 7.402,-1.353 10.81,-3.093 0.176,-0.087 0.653,0.315 0.939,0.552 1.963,1.613 4.161,2.504 6.741,2.236 1.391,-0.145 1.988,0.655 2.379,1.835 1.793,5.419 -1.722,11.878 -7.185,12.174 -2.842,0.156 -4.069,1.163 -4.835,3.525 -0.88,2.709 -2.469,4.687 -5.564,4.701 -3.251,0.016 -5.233,-1.772 -6.051,-4.834 -0.497,-1.857 -1.408,-2.638 -3.504,-2.806 -5.485,-0.441 -6.522,-2.08 -5.885,-8.389 m 58.168,10.905 c 5.601,-5.234 5.856,-5.836 5.892,-13.419 0.012,-2.415 2.409,-3.801 4.505,-2.482 1.095,0.69 1.887,1.852 2.966,2.578 4.105,2.763 7.852,1.875 10.529,-2.274 0.78,-1.207 0.723,-3.021 2.766,-3.646 2.095,1.778 3.556,4.611 6.584,5.535 0.991,0.305 1.361,1.339 1.291,2.295 -0.214,2.865 -0.703,6 -3.412,7.3 -2.408,1.158 -3.597,2.24 -3.238,4.982 0.5,3.814 -4.174,6.171 -7.566,5.307 -2.247,-0.574 -4.337,-1.659 -5.363,-3.795 -1.323,-2.751 -2.576,-3.093 -5.087,-1.133 -4.022,3.141 -5.507,2.823 -9.867,-1.248 m 3.991,-41.206 c 15.114,0.522 32.583,0.067 50.067,-0.395 9.523,-0.25 19.177,0.152 28.667,1.762 1.842,0.313 4.102,0.538 4.212,2.919 0.117,2.55 -2.053,3.322 -4.148,3.807 -0.726,0.168 -1.496,0.138 -2.242,0.223 -8.607,0.988 -17.265,1.075 -25.898,1.039 -14.849,-0.065 -29.7,-0.414 -44.541,-0.885 -13.526,-0.43 -27.078,0.066 -40.58,-1.308 -11.42,-1.162 -22.895,-1.231 -34.365,-1.312 -2.806,-0.02 -5.666,-0.039 -8.265,-1.394 -1.287,-0.671 -1.912,-1.785 -1.861,-3.215 0.059,-1.73 1.354,-2.07 2.725,-2.231 0.933,-0.106 1.875,-0.212 2.811,-0.202 11.844,0.11 23.688,0.271 35.531,0.358 11.846,0.088 23.654,1.475 37.887,0.834 m 72.867,-3.529 c -2.93,0.827 -5.381,0.384 -7.793,0.333 -7.325,-0.156 -14.643,-0.4 -21.977,-0.246 -26.135,0.54 -52.265,0.628 -78.395,-0.604 -10.701,-0.501 -21.442,-0.14 -32.162,-0.301 -4.877,-0.074 -5.268,-0.687 -3.95,-5.324 3.858,-13.545 7.279,-27.21 11.364,-40.698 3.265,-10.776 5.19,-21.927 8.371,-32.754 5.404,-18.39 10.664,-36.82 15.904,-55.255 1.705,-5.999 1.59,-6.034 7.681,-6.842 0.746,-0.099 1.499,-0.136 2.247,-0.221 15.216,-1.756 30.416,-0.372 45.615,0.299 2.414,0.105 4.797,0.836 7.202,1.241 2.645,0.447 4.286,1.822 5.108,4.503 1.704,5.561 3.725,11.011 5.372,16.609 7.422,25.235 15.171,50.377 22.699,75.586 4.296,14.38 8.396,28.819 12.714,43.674 m -46.281,49.909 -0.129,0.152 c 0.778,-2.118 -0.096,-4.839 2.317,-6.364 2.639,-1.664 3.755,-4.323 4.652,-7.126 -0.21,-1.707 -0.208,-3.38 0.436,-5.531 1.69,2.827 1.69,2.827 1.08,5.395 -1.327,4.587 -0.099,8.569 4.27,10.306 3.322,1.319 4.719,3.913 6.768,6.229 1.747,1.979 1.351,3.74 0.111,5.567 -2.648,3.902 -8.317,4.631 -11.531,1.217 -1.82,-1.933 -3.07,-2.733 -5.607,-1.053 -3.034,2.009 -4.938,1.49 -7.264,-1.145 -1.375,-1.555 -2.398,-3.131 0.516,-4.213 1.817,-0.676 3.007,-2.179 4.381,-3.434 m -53.093,26.287 c -5.233,-0.761 -7.11,-2.421 -7.285,-6.707 -0.056,-1.381 -0.501,-2.992 1.467,-3.809 1.608,-0.666 2.687,-0.518 3.968,0.75 2.081,2.062 4.687,3.269 7.69,2.611 2.013,-0.442 3.264,0.425 4.351,1.822 2.81,3.612 6.104,6.024 11.054,5.326 2.787,-0.393 2.572,2.39 3.141,3.881 0.532,1.391 -1.015,2.262 -2.278,2.696 -2.67,0.918 -5.187,0.563 -7.452,-1.2 l 0.052,0.075 c -0.772,0.499 -1.618,0.913 -2.304,1.512 -4.354,3.807 -8.396,2.906 -10.72,-2.451 -0.65,-1.501 -0.617,-3.273 -1.801,-4.567 l 0.117,0.061 z m 12.823,-221.906 c -4.954,0.002 -11.897,0.136 -18.8,1.298 -3.153,0.529 -4.763,1.737 -5.678,5.078 -5.516,20.11 -11.231,40.165 -17.111,60.172 -4.029,13.706 -6.194,27.892 -10.893,41.407 -3.77,10.846 -5.536,22.234 -9.062,33.141 -0.562,1.737 -0.642,3.3 -2.96,4.207 -4.887,1.917 -5.817,6.659 -1.943,10.127 2.035,1.822 2.285,3.239 1.852,5.728 -0.954,5.473 2.03,9.765 7.133,11.029 4.149,1.025 5.869,3.171 5.344,7.422 -0.446,3.598 0.126,6.714 2.703,9.356 0.937,0.961 1.999,2.018 3.272,2.082 2.799,0.138 4.427,1.514 5.477,3.961 0.283,0.657 0.851,1.517 1.445,1.669 4.68,1.199 5.804,5.11 7.251,8.932 1.375,3.633 5.427,4.48 7.771,6.886 2.088,2.145 0.046,7.144 3.124,9.171 4.304,2.834 7.104,6.77 10.245,10.614 2.396,2.933 7.012,3.059 10.41,1.206 1.099,-0.6 1.733,-2.07 3.351,-1.701 3.834,0.872 7.462,0.694 10.625,-2.052 1.116,-0.969 2.061,0.128 3.078,0.447 3.479,1.092 7.009,1.927 10.058,-0.945 1.467,-1.381 2.518,-0.599 3.967,0.007 5.198,2.173 9.501,0.308 11.813,-4.949 0.364,-0.827 0.232,-1.891 1.259,-2.361 3.849,-1.762 5.441,-4.984 5.776,-8.992 0.149,-1.767 1.217,-1.965 2.722,-1.968 5.369,-0.013 9.446,-2.228 11.599,-7.337 0.514,-1.219 1.253,-1.775 2.547,-1.685 4.627,0.32 7.384,-2.174 9.123,-6.133 0.583,-1.33 1.441,-1.891 2.961,-2.073 4.534,-0.54 6.986,-3.46 7.629,-7.784 0.3,-2.022 0.747,-3.5 2.852,-4.285 1.402,-0.524 2.715,-1.607 3.271,-2.994 1.245,-3.107 2.85,-5.501 5.941,-7.393 2.99,-1.831 2.493,-5.695 1.915,-8.862 -0.47,-2.578 -1.043,-4.899 -0.171,-7.656 1.026,-3.254 -0.654,-6.089 -4.294,-6.654 -4.711,-0.736 -5.946,-3.824 -7.035,-7.523 -2.122,-7.206 -4.368,-14.38 -6.446,-21.599 -8.885,-30.873 -18.095,-61.645 -27.445,-92.375 -1.969,-6.472 -3.987,-12.908 -6.364,-19.241 -0.993,-2.645 -2.209,-4.419 -5.36,-4.954 -2.753,-0.467 -5.465,-1.337 -8.285,-1.448 -10.884,-0.427 -21.732,-2.028 -34.667,-0.976"
         style="fill:#151515;fill-opacity:1;fill-rule:evenodd;stroke:none"
         id="path7481"
         inkscape:connector-curvature="0" />
    </g>
    <g
       id="g7483"
       transform="matrix(4.2698967,0,0,-4.2698967,449.88966,522.39034)">
      <path
         d="m 0,0 c -1.672,2.872 -3.13,5.721 -4.902,8.359 -6.031,8.975 -16.034,10.198 -24.292,3.157 -4.004,-3.41 -6.573,-7.638 -7.538,-13.12 -2.108,0.892 -3.765,1.684 -5.484,2.298 -3.225,1.153 -6.506,1.84 -9.944,0.887 -15.435,-4.283 -18.257,-20.078 -10.362,-31.567 2.585,-3.764 5.712,-7.672 11.309,-7.298 1.61,0.108 2.388,-0.834 2.294,-2.461 -0.054,-0.94 -0.085,-1.879 -0.133,-2.819 -0.297,-5.832 2.251,-10.312 7.094,-13.207 4.904,-2.937 10.202,-2.716 14.936,0.409 1.87,1.231 2.858,1.134 4.313,-0.143 2.661,-2.337 5.85,-3.449 9.35,-3.336 9.003,0.292 16.912,3.277 23.21,9.926 2.946,3.109 5.487,6.99 4.704,11.071 -0.905,4.719 1.461,6.149 4.614,8.138 8.148,5.141 10.526,11.06 8.733,20.657 -0.276,1.471 -0.714,2.914 -1.118,4.357 C 25.231,0.854 21.382,3.704 15.84,4.416 10.006,5.161 4.612,4.108 0,0 M 52.682,30.057 C 48.365,15.202 44.264,0.763 39.969,-13.617 32.44,-38.826 24.691,-63.968 17.269,-89.204 c -1.646,-5.597 -3.667,-11.047 -5.372,-16.608 -0.822,-2.682 -2.462,-4.056 -5.108,-4.503 -2.405,-0.405 -4.788,-1.136 -7.201,-1.241 -15.2,-0.672 -30.4,-2.055 -45.615,-0.299 -0.748,0.085 -1.502,0.122 -2.247,0.221 -6.092,0.808 -5.977,0.842 -7.682,6.842 -5.24,18.435 -10.5,36.865 -15.904,55.254 -3.181,10.828 -5.105,21.978 -8.37,32.755 -4.086,13.488 -7.506,27.153 -11.364,40.698 -1.319,4.637 -0.927,5.25 3.949,5.324 10.721,0.16 21.462,-0.2 32.163,0.301 26.129,1.231 52.259,1.144 78.394,0.604 7.335,-0.154 14.652,0.09 21.977,0.246 2.413,0.05 4.863,0.494 7.793,-0.333"
         style="fill:#e9101a;fill-opacity:1;fill-rule:evenodd;stroke:none"
         id="path7485"
         inkscape:connector-curvature="0" />
    </g>
    <g
       id="g7487"
       transform="matrix(4.2698967,0,0,-4.2698967,363.70351,378.982)">
      <path
         d="m 0,0 c -14.233,0.641 -26.042,-0.747 -37.887,-0.834 -11.843,-0.087 -23.687,-0.248 -35.531,-0.358 -0.936,-0.01 -1.878,0.096 -2.811,0.202 -1.371,0.161 -2.666,0.501 -2.725,2.231 -0.051,1.429 0.574,2.544 1.861,3.215 2.599,1.355 5.459,1.374 8.265,1.394 11.47,0.081 22.945,0.15 34.365,1.312 C -20.961,8.536 -7.409,8.04 6.117,8.47 20.958,8.941 35.809,9.29 50.658,9.354 59.291,9.391 67.949,9.304 76.556,8.316 77.302,8.231 78.072,8.261 78.798,8.093 80.893,7.608 83.063,6.836 82.946,4.286 82.836,1.905 80.576,1.68 78.734,1.367 69.244,-0.243 59.59,-0.646 50.067,-0.395 32.583,0.067 15.114,0.522 0,0"
         style="fill:#f4f4f4;fill-opacity:1;fill-rule:evenodd;stroke:none"
         id="path7489"
         inkscape:connector-curvature="0" />
    </g>
    <g
       id="g7491"
       transform="matrix(4.2698967,0,0,-4.2698967,387.00047,233.68681)">
      <path
         d="M 0,0 C 1.083,0.066 1.702,0.625 1.862,1.657 2.066,2.959 1.445,3.888 0.222,4.014 -0.687,4.108 -1.494,3.47 -1.627,2.396 -1.787,1.117 -1.215,0.312 0,0 m 19.08,0.197 c -0.176,0.825 -0.552,1.991 -1.905,1.93 -1.241,-0.059 -1.912,-1.033 -1.83,-2.329 0.062,-1.016 0.578,-1.816 1.616,-1.956 1.438,-0.195 1.905,0.791 2.119,2.355 M -9.447,7.178 c 4.36,4.072 5.844,4.389 9.866,1.248 2.512,-1.96 3.765,-1.618 5.088,1.133 1.026,2.136 3.116,3.221 5.363,3.795 3.392,0.864 8.066,-1.493 7.566,-5.307 -0.359,-2.742 0.83,-3.824 3.238,-4.982 2.709,-1.3 3.198,-4.435 3.412,-7.3 0.07,-0.956 -0.3,-1.99 -1.292,-2.295 -3.027,-0.924 -4.488,-3.757 -6.584,-5.535 -2.043,0.625 -1.985,2.44 -2.765,3.646 C 11.768,-4.27 8.021,-3.382 3.916,-6.145 2.837,-6.871 2.045,-8.033 0.95,-8.723 c -2.096,-1.319 -4.493,0.067 -4.505,2.482 -0.036,7.583 -0.291,8.185 -5.892,13.419"
         style="fill:#fefefe;fill-opacity:1;fill-rule:evenodd;stroke:none"
         id="path7493"
         inkscape:connector-curvature="0" />
    </g>
    <g
       id="g7495"
       transform="matrix(4.2698967,0,0,-4.2698967,211.26348,241.13395)">
      <path
         d="M 0,0 C -0.05,0.997 -0.507,1.804 -1.576,1.896 -2.661,1.99 -3.268,1.271 -3.385,0.232 -3.531,-1.064 -2.941,-2.042 -1.615,-1.976 -0.674,-1.933 -0.028,-1.11 0,0 m -16.735,4.313 c -1.453,-0.156 -1.787,-1.145 -1.686,-2.385 0.083,-1.016 0.582,-1.903 1.654,-1.919 1.282,-0.021 2.033,0.818 2.066,2.126 0.034,1.344 -0.706,2.045 -2.034,2.178 m -9.723,-6.296 c -0.637,6.31 0.4,7.948 5.885,8.389 2.096,0.168 3.008,0.949 3.504,2.806 0.818,3.062 2.8,4.851 6.051,4.834 3.095,-0.014 4.684,-1.992 5.564,-4.701 C -4.687,6.983 -3.46,5.977 -0.619,5.82 4.844,5.524 8.359,-0.935 6.566,-6.354 6.175,-7.534 5.579,-8.334 4.187,-8.189 c -2.58,0.269 -4.778,-0.623 -6.741,-2.236 -0.286,-0.237 -0.763,-0.638 -0.939,-0.552 -3.407,1.74 -7.201,2.092 -10.81,3.093 -2.368,5.409 -7.248,5.786 -12.155,5.901"
         style="fill:#fefefe;fill-opacity:1;fill-rule:evenodd;stroke:none"
         id="path7497"
         inkscape:connector-curvature="0" />
    </g>
    <g
       id="g7499"
       transform="matrix(4.2698967,0,0,-4.2698967,350.54796,143.6603)">
      <path
         d="M 0,0 C 1.1,0.324 1.511,1.086 1.419,2.067 1.304,3.281 0.675,4.092 -0.677,3.91 -1.781,3.76 -2.159,2.945 -2.025,1.957 -1.868,0.792 -1.244,-0.002 0,0 M 14.142,0.311 C 13.991,1.523 13.563,2.539 12.12,2.344 11.128,2.21 10.451,1.497 10.5,0.446 c 0.057,-1.249 0.761,-2.089 2.072,-2.043 1.124,0.04 1.424,0.957 1.57,1.908 m 7.826,2.13 C 21.339,-4.772 14.695,-5.243 11.399,-9.025 10.653,-9.88 9.71,-8.805 8.948,-8.382 c -2.474,1.376 -5.02,1.284 -7.627,0.487 -3.748,-1.147 -5.175,-0.322 -5.529,3.75 -0.232,2.654 -0.834,4.958 -3.491,5.828 -3.018,0.988 -4.56,3.814 -4.267,5.921 0.387,2.775 2.777,5.355 5.842,6.312 2.849,0.889 5.878,0.637 7.596,-2.062 2.019,-3.173 3.686,-4.604 7.407,-1.972 2.389,1.69 5.268,0.618 6.539,-2.316 1.338,-3.087 3.507,-4.523 6.55,-5.125"
         style="fill:#fefefe;fill-opacity:1;fill-rule:evenodd;stroke:none"
         id="path7501"
         inkscape:connector-curvature="0" />
    </g>
    <g
       id="g7503"
       transform="matrix(4.2698967,0,0,-4.2698967,331.40003,230.26321)">
      <path
         d="m 0,0 c -0.269,1.105 -0.789,2.139 -2.2,1.983 -1.351,-0.151 -1.904,-1.186 -1.723,-2.42 0.17,-1.16 0.806,-2.3 2.163,-2.125 C -0.521,-2.401 0.054,-1.367 0,0 m -17.601,-5.002 c -0.393,1.181 -0.713,2.049 -0.967,2.939 -0.204,0.714 -0.33,1.452 -0.491,2.18 1.287,0.979 3.547,-1.218 4.181,1.356 0.253,1.025 -0.208,1.935 -1.169,2.27 -2.084,0.731 -2.18,-1.567 -3.168,-2.249 -1.087,1.022 -2.151,2.015 -3.21,3.017 -1.081,1.022 -3.603,0.93 -2.82,3.396 0.652,2.054 4.155,4.278 5.877,3.161 4.111,-2.665 6.757,-1.783 10.238,1.471 3.185,2.98 8.426,0.232 9.091,-4.536 C 0.378,5.014 0.985,2.964 3.91,1.34 c 2.696,-1.499 3.261,-6.37 1.916,-9.2 -1.459,-3.066 -4.936,-4.729 -8.132,-4.39 -1.707,0.18 -2.003,1.211 -2.674,2.331 -3.139,5.234 -5.793,6.282 -12.621,4.917"
         style="fill:#fefefe;fill-opacity:1;fill-rule:evenodd;stroke:none"
         id="path7505"
         inkscape:connector-curvature="0" />
    </g>
    <g
       id="g7507"
       transform="matrix(4.2698967,0,0,-4.2698967,560.44839,205.03795)">
      <path
         d="m 0,0 c -1.413,-0.106 -1.873,-1.066 -1.881,-2.277 -0.006,-0.965 0.314,-1.9 1.446,-2.038 1.347,-0.164 2.079,0.652 2.239,1.893 C 1.974,-1.11 1.212,-0.356 0,0 m 15.665,-5.474 c -0.051,0.911 -0.369,1.995 -1.712,2.188 -1.057,0.152 -1.767,-0.568 -1.932,-1.563 -0.243,-1.461 0.285,-2.67 1.902,-2.757 1.02,-0.055 1.563,0.832 1.742,2.132 m 7.448,0.134 c -0.037,-0.26 0.043,-0.841 -0.156,-0.961 -3.369,-2.026 -4.779,-6.144 -8.25,-7.906 -1.482,-0.751 -2.942,-1.46 -4.354,-2.374 -2.19,-1.42 -4.003,-0.556 -4.871,2.036 -2.08,6.218 -4.711,8.077 -11.168,7.171 -2.401,-0.337 -2.55,0.876 -2.631,2.416 -0.108,2.062 0.85,3.949 2.729,4.489 3.316,0.951 5.169,3.219 7.07,5.827 3.868,5.312 9.151,4.679 11.378,-1.503 0.945,-2.619 1.969,-3.432 4.712,-3.437 3.583,-0.004 5.718,-2.55 5.541,-5.758"
         style="fill:#fefefe;fill-opacity:1;fill-rule:evenodd;stroke:none"
         id="path7509"
         inkscape:connector-curvature="0" />
    </g>
    <g
       id="g7511"
       transform="matrix(4.2698967,0,0,-4.2698967,81.446255,325.02845)">
      <path
         d="M 0,0 C 1.124,0.002 1.856,0.565 2.008,1.599 2.215,3.008 1.339,3.681 0.055,3.702 -1.044,3.718 -1.705,2.946 -1.65,1.907 -1.599,0.956 -1.097,0.124 0,0 M 18.957,2.049 C 18.8,3.348 18.15,4.23 16.906,4.149 15.583,4.062 15.157,2.941 15.27,1.794 15.357,0.896 15.819,0.027 16.952,0.041 18.287,0.06 18.761,0.974 18.957,2.049 M 8.018,-3.548 c -4.305,0 -8.633,0.267 -12.909,-0.087 -3.165,-0.262 -3.929,1.222 -4.136,3.8 -0.313,3.922 1.674,6.68 5.589,6.747 2.624,0.043 4.136,0.583 5.014,3.239 0.801,2.422 2.724,4.276 5.444,4.141 2.934,-0.145 5.458,-1.448 6.379,-4.598 0.786,-2.686 2.006,-3.309 4.953,-2.429 4.594,1.37 8.357,-3.203 6.938,-7.835 -0.599,-1.949 -1.866,-2.546 -3.796,-2.514 -4.491,0.078 -8.984,0.025 -13.476,0.025 l 0,-0.489 z"
         style="fill:#fefefe;fill-opacity:1;fill-rule:evenodd;stroke:none"
         id="path7513"
         inkscape:connector-curvature="0" />
    </g>
    <g
       id="g7515"
       transform="matrix(4.2698967,0,0,-4.2698967,465.28048,85.40568)">
      <path
         d="m 0,0 c -1.011,-0.357 -1.841,-0.983 -1.84,-2.309 0.002,-1.334 0.663,-2.166 2.011,-2.012 1.365,0.156 1.721,1.275 1.66,2.471 C 1.779,-0.824 1.225,-0.137 0,0 m -15.418,6.297 c -1.119,-0.11 -1.482,-0.904 -1.474,-1.915 0.008,-1.063 0.524,-1.836 1.664,-1.722 1.02,0.101 1.672,0.8 1.645,1.877 -0.029,1.099 -0.741,1.621 -1.835,1.76 M 7.616,-10.79 c -2.475,1.327 -4.882,1.924 -7.911,1.531 -2.912,-0.379 -6.035,1.45 -7.773,4.222 -2.748,4.381 -6.186,6.178 -11.367,4.473 -2.697,-0.888 -5.097,1.739 -4.429,4.419 1.378,5.528 7.572,7.77 11.772,3.981 2.109,-1.902 3.376,-1.965 5.699,-0.338 3.985,2.793 7.09,1.436 8.225,-3.215 C 2.144,3.005 2.155,1.804 3.479,0.96 9.556,-2.909 9.931,-4.036 7.616,-10.79"
         style="fill:#fefefe;fill-opacity:1;fill-rule:evenodd;stroke:none"
         id="path7517"
         inkscape:connector-curvature="0" />
    </g>
    <g
       id="g7519"
       transform="matrix(4.2698967,0,0,-4.2698967,570.27468,313.92245)">
      <path
         d="M 0,0 C 1.053,0.354 1.908,0.951 1.801,2.261 1.705,3.469 1.107,4.333 -0.237,4.205 -1.276,4.106 -1.758,3.32 -1.833,2.344 -1.929,1.078 -1.284,0.312 0,0 m -14.368,0.944 c 1.106,0.283 1.839,0.968 1.767,2.259 -0.055,0.985 -0.514,1.811 -1.562,1.935 -1.293,0.151 -2.068,-0.605 -2.189,-1.843 -0.126,-1.301 0.723,-1.972 1.984,-2.351 m 8.088,-3.775 c -3.57,0 -7.141,0.06 -10.709,-0.027 -1.792,-0.044 -2.812,0.372 -2.835,2.43 -0.011,1.071 -0.499,2.17 -0.909,3.199 -1.525,3.846 0.446,7.022 4.415,6.146 3.137,-0.691 4.332,0.203 5.627,2.723 1.24,2.413 3.274,4.329 6.362,3.509 C -1.468,14.391 0.118,12.194 0.166,9.333 0.211,6.645 0.664,5.115 3.882,5.193 6.604,5.255 7.663,3.136 7.847,0.62 7.995,-1.413 7.273,-2.546 4.995,-2.491 1.238,-2.395 -2.522,-2.463 -6.28,-2.463 l 0,-0.368 z"
         style="fill:#fefefe;fill-opacity:1;fill-rule:evenodd;stroke:none"
         id="path7521"
         inkscape:connector-curvature="0" />
    </g>
    <g
       id="g7523"
       transform="matrix(4.2698967,0,0,-4.2698967,546.23133,169.96331)">
      <path
         d="M 0,0 C 0.262,1 -0.27,1.785 -1.137,2.169 -1.861,2.491 -2.643,2.08 -2.874,1.293 -3.214,0.131 -3.028,-0.944 -1.614,-1.248 -0.746,-1.432 -0.292,-0.83 0,0 m -9.322,-15.91 c -0.896,2.804 -2.013,5.462 -4.652,7.126 -2.412,1.525 -1.538,4.246 -2.318,6.365 0.37,-0.03 0.759,0 1.107,-0.106 1.677,-0.515 2.512,0.184 2.551,1.834 0.023,0.985 -0.408,1.925 -1.521,1.955 -1.339,0.036 -1.938,-0.876 -1.984,-2.158 -0.02,-0.558 -0.015,-1.117 -0.022,-1.677 -1.374,1.255 -2.565,2.757 -4.382,3.433 -2.914,1.082 -1.89,2.658 -0.516,4.214 2.327,2.634 4.23,3.153 7.265,1.144 2.536,-1.679 3.786,-0.88 5.606,1.053 3.214,3.414 8.883,2.685 11.531,-1.216 1.24,-1.828 1.636,-3.589 -0.111,-5.568 -2.048,-2.316 -3.445,-4.91 -6.767,-6.229 -4.369,-1.737 -5.597,-5.719 -4.27,-10.305 -0.507,0.045 -1.012,0.092 -1.517,0.135"
         style="fill:#fefefe;fill-opacity:1;fill-rule:evenodd;stroke:none"
         id="path7525"
         inkscape:connector-curvature="0" />
    </g>
    <g
       id="g7527"
       transform="matrix(4.2698967,0,0,-4.2698967,310.10048,324.92214)">
      <path
         d="M 0,0 C 1.09,-0.011 1.696,0.591 1.85,1.588 2.004,2.59 1.636,3.403 0.547,3.583 -0.742,3.794 -1.609,3.178 -1.628,1.875 -1.643,0.915 -0.994,0.221 0,0 m -18.168,0.051 c 1.064,0 1.718,0.48 1.91,1.528 0.238,1.298 -0.366,2.21 -1.574,2.399 -0.918,0.142 -1.723,-0.446 -1.908,-1.494 -0.227,-1.287 0.384,-2.068 1.572,-2.433 m -6.282,-2.374 c -1.006,1.503 -0.223,2.803 -0.309,4.076 -0.328,4.872 2.101,7.319 6.531,5.956 2.919,-0.898 3.994,-0.62 4.647,2.415 0.532,2.466 2.049,4.444 5.038,4.479 2.818,0.032 4.792,-1.436 5.907,-4.987 C -1.824,7.036 -1.263,4.823 2.278,6.473 3.806,7.185 5.291,6.239 5.989,4.754 6.702,3.24 7.229,1.581 6.426,-0.122 5.937,-1.156 4.96,-1.183 4.031,-1.16 -5.538,-0.942 -15.07,-1.882 -24.45,-2.323"
         style="fill:#fefefe;fill-opacity:1;fill-rule:evenodd;stroke:none"
         id="path7529"
         inkscape:connector-curvature="0" />
    </g>
    <g
       id="g7531"
       transform="matrix(4.2698967,0,0,-4.2698967,208.93639,146.37681)">
      <path
         d="m 0,0 c -1.245,-0.012 -1.755,-0.725 -1.722,-1.709 0.032,-0.975 0.663,-1.772 1.655,-1.786 0.983,-0.014 1.686,0.712 1.638,1.735 C 1.525,-0.786 0.859,-0.167 0,0 m 14.594,-2.224 c 1.057,0.02 1.695,0.531 1.901,1.557 0.264,1.317 -0.379,2.191 -1.577,2.394 -0.933,0.157 -1.738,-0.405 -1.895,-1.479 -0.184,-1.263 0.37,-2.089 1.571,-2.472 M -1.169,-12.67 c -1.558,2.911 -2.573,5.607 -5.337,6.941 -1.516,0.731 -1.347,2.156 -1.067,3.429 0.941,4.279 5.508,9.593 11.256,6.471 2.733,-1.484 4.179,-0.897 6.125,1.376 2.74,3.198 6.003,3.269 8.101,0.368 2.157,-2.985 3.029,-7.011 7.861,-7.99 -4.356,-0.427 -7.885,-1.19 -10.626,-4.051 -0.524,-0.547 -1.224,-0.519 -2.05,-0.365 -8.677,1.624 -9.653,1.195 -14.263,-6.179"
         style="fill:#fefefe;fill-opacity:1;fill-rule:evenodd;stroke:none"
         id="path7533"
         inkscape:connector-curvature="0" />
    </g>
    <g
       id="g7535"
       transform="matrix(4.2698967,0,0,-4.2698967,690.98039,300.26604)">
      <path
         d="m 0,0 c -1.227,0.156 -1.799,-0.478 -1.854,-1.512 -0.051,-0.951 0.267,-1.842 1.41,-1.942 1.068,-0.091 1.741,0.557 1.875,1.556 C 1.572,-0.846 0.897,-0.248 0,0 m -10.484,-0.404 c 0.103,0.909 -0.129,1.822 -1.124,2.201 -1.331,0.51 -2.167,-0.193 -2.438,-1.471 -0.227,-1.071 0.366,-1.81 1.383,-2.077 1.062,-0.283 1.735,0.278 2.179,1.347 m 5.32,-6.089 c -1.686,0.082 -3.371,0.229 -5.058,0.236 -2.062,0.007 -4.356,-0.54 -6.083,0.547 -2.012,1.266 -0.619,3.793 -1.097,5.731 -0.909,3.692 -0.774,3.986 2.988,4.666 2.036,0.368 2.834,1.427 3.611,2.995 1.194,2.405 2.579,4.923 5.825,4.225 C -1.726,11.206 0.282,9.03 0.239,5.515 0.214,3.387 1.235,2.762 3.177,2.233 6.715,1.269 8.108,-4.122 5.78,-6.817 4.996,-7.725 4.149,-7.268 3.247,-7.169 0.452,-6.87 -2.355,-6.666 -5.156,-6.424 -5.158,-6.447 -5.162,-6.47 -5.164,-6.493"
         style="fill:#fefefe;fill-opacity:1;fill-rule:evenodd;stroke:none"
         id="path7537"
         inkscape:connector-curvature="0" />
    </g>
    <g
       id="g7539"
       transform="matrix(4.2698967,0,0,-4.2698967,313.10267,45.773776)">
      <path
         d="M 0,0 C 2.265,1.764 4.782,2.119 7.452,1.201 8.714,0.767 10.262,-0.104 9.73,-1.496 9.16,-2.987 9.376,-5.77 6.589,-5.376 c -4.951,0.697 -8.244,-1.715 -11.055,-5.327 -1.087,-1.397 -2.338,-2.263 -4.35,-1.822 -3.004,0.658 -5.609,-0.548 -7.691,-2.61 -1.28,-1.269 -2.36,-1.417 -3.967,-0.751 -1.968,0.817 -1.524,2.428 -1.467,3.809 0.174,4.286 2.051,5.947 7.282,6.706 -0.322,-1.42 -2.338,-2.825 -0.128,-4.262 0.865,-0.563 1.849,-0.416 2.321,0.589 1.094,2.338 -1.093,2.689 -2.307,3.613 1.183,1.294 1.151,3.067 1.801,4.567 2.323,5.357 6.366,6.258 10.72,2.451 0.685,-0.599 1.532,-1.012 2.308,-1.506 1.339,-0.779 -0.034,-1.994 0.488,-2.966 0.475,-0.883 0.992,-1.652 2.038,-1.569 0.445,0.034 0.946,0.531 1.25,0.943 0.622,0.845 0.537,1.729 -0.192,2.514 C 2.633,0.085 1.311,0.026 0,0"
         style="fill:#fefefe;fill-opacity:1;fill-rule:evenodd;stroke:none"
         id="path7541"
         inkscape:connector-curvature="0" />
    </g>
    <g
       id="g7543"
       transform="matrix(4.2698967,0,0,-4.2698967,388.31605,310.78451)">
      <path
         d="m 0,0 c -0.212,1.03 -0.963,1.37 -1.96,1.328 -0.918,-0.041 -1.255,-0.717 -1.237,-1.463 0.02,-0.968 0.49,-1.836 1.593,-1.754 C -0.622,-1.815 -0.039,-1.103 0,0 M 12.443,2.459 C 11.081,2.445 10.398,1.687 10.359,0.464 c -0.04,-1.25 0.771,-2.123 1.935,-2.141 0.876,-0.014 1.637,0.717 1.691,1.769 0.059,1.163 -0.23,2.135 -1.542,2.367 M -8.096,-4.384 c -0.24,2.353 -0.349,4.028 -0.592,5.685 -0.613,4.182 1.605,6.585 5.069,4.687 3.577,-1.962 5.205,-0.648 7.503,1.728 3.797,3.925 6.089,3.373 8.07,-1.735 0.68,-1.753 1.431,-2.819 3.4,-3.09 1.49,-0.203 2.782,-1.108 3.636,-2.429 1.405,-2.171 0.589,-3.81 -2.09,-4.078 C 8.714,-4.439 0.505,-4.067 -8.096,-4.384"
         style="fill:#fefefe;fill-opacity:1;fill-rule:evenodd;stroke:none"
         id="path7545"
         inkscape:connector-curvature="0" />
    </g>
    <g
       id="g7547"
       transform="matrix(4.2698967,0,0,-4.2698967,313.10267,45.773776)">
      <path
         d="M 0,0 C 1.311,0.026 2.633,0.085 3.64,-0.997 4.369,-1.782 4.454,-2.666 3.832,-3.511 3.528,-3.923 3.027,-4.42 2.582,-4.454 1.536,-4.537 1.019,-3.768 0.544,-2.885 0.022,-1.913 1.395,-0.698 0.056,0.081 0.052,0.076 0,0 0,0"
         style="fill:#151515;fill-opacity:1;fill-rule:evenodd;stroke:none"
         id="path7549"
         inkscape:connector-curvature="0" />
    </g>
    <g
       id="g7551"
       transform="matrix(4.2698967,0,0,-4.2698967,506.42822,237.89608)">
      <path
         d="M 0,0 C 0.504,-0.043 1.01,-0.09 1.517,-0.136 2.126,-2.705 2.126,-2.705 0.437,-5.531 -0.208,-3.38 -0.209,-1.707 0,0"
         style="fill:#fefefe;fill-opacity:1;fill-rule:evenodd;stroke:none"
         id="path7553"
         inkscape:connector-curvature="0" />
    </g>
    <g
       id="g7555"
       transform="matrix(4.2698967,0,0,-4.2698967,264.35155,619.38446)">
      <path
         d="m 0,0 c -0.172,1.42 -0.241,3.118 -2.142,3.315 -1.43,0.15 -1.78,-1.203 -1.802,-2.313 -0.029,-1.475 -0.007,-3.203 2.04,-3.341 C -0.507,-2.431 -0.142,-1.25 0,0 M 52.862,0.802 C 52.513,2.042 52.367,3.653 50.6,3.433 49.035,3.24 48.692,1.774 48.707,0.425 c 0.016,-1.404 0.552,-2.746 2.216,-2.601 1.643,0.145 1.791,1.638 1.939,2.978 M 11.207,-1.983 c -1.229,-0.999 -1.063,-1.583 -0.767,-2.024 0.519,-0.763 1.089,-1.528 1.774,-2.142 4.806,-4.301 14.949,-5.469 20.662,-2.454 1.875,0.991 3.356,2.367 4.35,4.221 0.324,0.607 0.825,1.413 0.099,2.029 -1.015,0.864 -1.687,0.094 -2.206,-0.717 -3.261,-5.092 -8.195,-5.271 -13.39,-4.503 -4.148,0.613 -7.67,2.596 -10.522,5.59 m 32.246,24.699 c 4.611,4.108 10.005,5.16 15.839,4.416 5.542,-0.713 9.392,-3.562 10.945,-9.109 0.404,-1.442 0.842,-2.885 1.117,-4.356 C 73.148,4.069 70.77,-1.85 62.622,-6.99 c -3.154,-1.989 -5.519,-3.419 -4.614,-8.138 0.783,-4.081 -1.758,-7.962 -4.705,-11.071 -6.298,-6.65 -14.207,-9.634 -23.209,-9.926 -3.501,-0.113 -6.689,0.999 -9.351,3.336 -1.454,1.277 -2.443,1.374 -4.313,0.143 -4.733,-3.125 -10.031,-3.346 -14.935,-0.41 -4.843,2.895 -7.391,7.376 -7.095,13.208 0.049,0.94 0.079,1.879 0.134,2.819 0.094,1.627 -0.684,2.569 -2.295,2.461 -5.596,-0.374 -8.723,3.534 -11.308,7.298 -7.895,11.489 -5.074,27.284 10.361,31.566 3.439,0.954 6.719,0.267 9.944,-0.886 1.72,-0.614 3.377,-1.407 5.485,-2.298 0.965,5.482 3.534,9.71 7.538,13.12 8.258,7.04 18.261,5.818 24.292,-3.157 1.771,-2.638 3.229,-5.487 4.902,-8.359"
         style="fill:#fefefe;fill-opacity:1;fill-rule:evenodd;stroke:none"
         id="path7557"
         inkscape:connector-curvature="0" />
    </g>
    <g
       id="g7559"
       transform="matrix(4.2698967,0,0,-4.2698967,468.46839,232.84438)">
      <path
         d="m 0,0 c -0.214,-1.564 -0.68,-2.55 -2.119,-2.355 -1.037,0.14 -1.554,0.94 -1.616,1.956 -0.082,1.295 0.589,2.27 1.83,2.329 C -0.551,1.99 -0.176,0.825 0,0"
         style="fill:#151515;fill-opacity:1;fill-rule:evenodd;stroke:none"
         id="path7561"
         inkscape:connector-curvature="0" />
    </g>
    <g
       id="g7563"
       transform="matrix(4.2698967,0,0,-4.2698967,387.00047,233.68681)">
      <path
         d="M 0,0 C -1.215,0.312 -1.787,1.117 -1.627,2.396 -1.494,3.47 -0.687,4.108 0.222,4.014 1.445,3.888 2.066,2.959 1.862,1.657 1.702,0.625 1.083,0.066 0,0"
         style="fill:#151515;fill-opacity:1;fill-rule:evenodd;stroke:none"
         id="path7565"
         inkscape:connector-curvature="0" />
    </g>
    <g
       id="g7567"
       transform="matrix(4.2698967,0,0,-4.2698967,139.80721,222.71788)">
      <path
         d="M 0,0 C 1.328,-0.133 2.068,-0.834 2.034,-2.178 2,-3.486 1.25,-4.325 -0.032,-4.304 -1.104,-4.288 -1.604,-3.401 -1.687,-2.385 -1.788,-1.145 -1.453,-0.156 0,0"
         style="fill:#151515;fill-opacity:1;fill-rule:evenodd;stroke:none"
         id="path7569"
         inkscape:connector-curvature="0" />
    </g>
    <g
       id="g7571"
       transform="matrix(4.2698967,0,0,-4.2698967,211.26348,241.13395)">
      <path
         d="m 0,0 c -0.028,-1.11 -0.674,-1.933 -1.615,-1.976 -1.326,-0.066 -1.916,0.912 -1.77,2.208 0.117,1.039 0.724,1.758 1.809,1.664 C -0.507,1.804 -0.05,0.997 0,0"
         style="fill:#151515;fill-opacity:1;fill-rule:evenodd;stroke:none"
         id="path7573"
         inkscape:connector-curvature="0" />
    </g>
    <g
       id="g7575"
       transform="matrix(4.2698967,0,0,-4.2698967,410.93113,142.33408)">
      <path
         d="M 0,0 C -0.146,-0.95 -0.446,-1.867 -1.569,-1.907 -2.88,-1.953 -3.584,-1.113 -3.642,0.135 -3.69,1.187 -3.014,1.9 -2.022,2.033 -0.578,2.229 -0.151,1.213 0,0"
         style="fill:#151515;fill-opacity:1;fill-rule:evenodd;stroke:none"
         id="path7577"
         inkscape:connector-curvature="0" />
    </g>
    <g
       id="g7579"
       transform="matrix(4.2698967,0,0,-4.2698967,350.54796,143.6603)">
      <path
         d="M 0,0 C -1.244,-0.002 -1.868,0.792 -2.025,1.957 -2.159,2.945 -1.781,3.76 -0.677,3.91 0.675,4.092 1.304,3.281 1.419,2.067 1.511,1.086 1.1,0.324 0,0"
         style="fill:#151515;fill-opacity:1;fill-rule:evenodd;stroke:none"
         id="path7581"
         inkscape:connector-curvature="0" />
    </g>
    <g
       id="g7583"
       transform="matrix(4.2698967,0,0,-4.2698967,331.40003,230.26321)">
      <path
         d="m 0,0 c 0.054,-1.367 -0.521,-2.401 -1.76,-2.562 -1.357,-0.175 -1.993,0.965 -2.163,2.125 -0.181,1.234 0.372,2.269 1.723,2.42 C -0.789,2.139 -0.269,1.105 0,0"
         style="fill:#151515;fill-opacity:1;fill-rule:evenodd;stroke:none"
         id="path7585"
         inkscape:connector-curvature="0" />
    </g>
    <g
       id="g7587"
       transform="matrix(4.2698967,0,0,-4.2698967,627.33632,228.40966)">
      <path
         d="m 0,0 c -0.179,-1.3 -0.722,-2.187 -1.742,-2.132 -1.617,0.087 -2.145,1.296 -1.903,2.757 0.166,0.995 0.876,1.714 1.933,1.563 C -0.369,1.995 -0.051,0.91 0,0"
         style="fill:#151515;fill-opacity:1;fill-rule:evenodd;stroke:none"
         id="path7589"
         inkscape:connector-curvature="0" />
    </g>
    <g
       id="g7591"
       transform="matrix(4.2698967,0,0,-4.2698967,560.45864,205.03795)">
      <path
         d="M 0,0 C 1.209,-0.356 1.971,-1.11 1.801,-2.422 1.642,-3.663 0.91,-4.479 -0.437,-4.315 -1.57,-4.177 -1.889,-3.242 -1.883,-2.277 -1.875,-1.066 -1.416,-0.106 0,0"
         style="fill:#151515;fill-opacity:1;fill-rule:evenodd;stroke:none"
         id="path7593"
         inkscape:connector-curvature="0" />
    </g>
    <g
       id="g7595"
       transform="matrix(4.2698967,0,0,-4.2698967,162.38898,316.27816)">
      <path
         d="M 0,0 C -0.195,-1.075 -0.67,-1.99 -2.005,-2.008 -3.138,-2.022 -3.6,-1.153 -3.687,-0.255 -3.799,0.892 -3.373,2.013 -2.051,2.1 -0.807,2.181 -0.156,1.298 0,0"
         style="fill:#151515;fill-opacity:1;fill-rule:evenodd;stroke:none"
         id="path7597"
         inkscape:connector-curvature="0" />
    </g>
    <g
       id="g7599"
       transform="matrix(4.2698967,0,0,-4.2698967,81.446255,325.02845)">
      <path
         d="M 0,0 C -1.097,0.124 -1.599,0.956 -1.65,1.907 -1.705,2.946 -1.044,3.718 0.055,3.702 1.339,3.681 2.215,3.008 2.008,1.599 1.856,0.565 1.124,0.002 0,0"
         style="fill:#151515;fill-opacity:1;fill-rule:evenodd;stroke:none"
         id="path7601"
         inkscape:connector-curvature="0" />
    </g>
    <g
       id="g7603"
       transform="matrix(4.2698967,0,0,-4.2698967,399.44722,58.518564)">
      <path
         d="M 0,0 C 1.094,-0.139 1.806,-0.661 1.834,-1.76 1.862,-2.836 1.209,-3.536 0.19,-3.637 -0.95,-3.751 -1.466,-2.978 -1.474,-1.915 -1.482,-0.904 -1.119,-0.11 0,0"
         style="fill:#151515;fill-opacity:1;fill-rule:evenodd;stroke:none"
         id="path7605"
         inkscape:connector-curvature="0" />
    </g>
    <g
       id="g7607"
       transform="matrix(4.2698967,0,0,-4.2698967,465.28048,85.40568)">
      <path
         d="M 0,0 C 1.225,-0.137 1.779,-0.824 1.831,-1.85 1.892,-3.046 1.536,-4.165 0.171,-4.321 -1.177,-4.475 -1.838,-3.643 -1.84,-2.309 -1.841,-0.983 -1.011,-0.357 0,0"
         style="fill:#151515;fill-opacity:1;fill-rule:evenodd;stroke:none"
         id="path7609"
         inkscape:connector-curvature="0" />
    </g>
    <g
       id="g7611"
       transform="matrix(4.2698967,0,0,-4.2698967,508.92395,309.88995)">
      <path
         d="m 0,0 c -1.261,0.379 -2.109,1.05 -1.984,2.351 0.121,1.238 0.896,1.994 2.19,1.842 C 1.253,4.069 1.712,3.244 1.767,2.259 1.839,0.967 1.106,0.283 0,0"
         style="fill:#151515;fill-opacity:1;fill-rule:evenodd;stroke:none"
         id="path7613"
         inkscape:connector-curvature="0" />
    </g>
    <g
       id="g7615"
       transform="matrix(4.2698967,0,0,-4.2698967,570.27468,313.92245)">
      <path
         d="M 0,0 C -1.284,0.312 -1.929,1.078 -1.833,2.344 -1.758,3.32 -1.276,4.106 -0.237,4.205 1.107,4.333 1.705,3.469 1.801,2.261 1.908,0.951 1.053,0.354 0,0"
         style="fill:#151515;fill-opacity:1;fill-rule:evenodd;stroke:none"
         id="path7617"
         inkscape:connector-curvature="0" />
    </g>
    <g
       id="g7619"
       transform="matrix(4.2698967,0,0,-4.2698967,477.2251,180.94248)">
      <path
         d="M 0,0 C 0.007,0.561 0.002,1.119 0.022,1.677 0.068,2.959 0.667,3.872 2.006,3.835 3.119,3.805 3.55,2.865 3.527,1.88 3.488,0.23 2.653,-0.469 0.977,0.046 0.628,0.152 0.239,0.122 -0.131,0.152 -0.13,0.152 0,0 0,0"
         style="fill:#151515;fill-opacity:1;fill-rule:evenodd;stroke:none"
         id="path7621"
         inkscape:connector-curvature="0" />
    </g>
    <g
       id="g7623"
       transform="matrix(4.2698967,0,0,-4.2698967,546.23133,169.96331)">
      <path
         d="m 0,0 c -0.292,-0.83 -0.746,-1.432 -1.614,-1.248 -1.414,0.304 -1.6,1.379 -1.26,2.541 0.231,0.787 1.013,1.198 1.737,0.876 C -0.27,1.785 0.262,1 0,0"
         style="fill:#151515;fill-opacity:1;fill-rule:evenodd;stroke:none"
         id="path7625"
         inkscape:connector-curvature="0" />
    </g>
    <g
       id="g7627"
       transform="matrix(4.2698967,0,0,-4.2698967,232.5233,324.70564)">
      <path
         d="M 0,0 C -1.188,0.365 -1.799,1.146 -1.572,2.433 -1.387,3.481 -0.581,4.069 0.337,3.927 1.544,3.738 2.148,2.826 1.911,1.528 1.719,0.48 1.064,0 0,0"
         style="fill:#151515;fill-opacity:1;fill-rule:evenodd;stroke:none"
         id="path7629"
         inkscape:connector-curvature="0" />
    </g>
    <g
       id="g7631"
       transform="matrix(4.2698967,0,0,-4.2698967,310.10048,324.92214)">
      <path
         d="M 0,0 C -0.994,0.221 -1.643,0.915 -1.628,1.875 -1.609,3.178 -0.742,3.794 0.547,3.583 1.636,3.403 2.004,2.59 1.85,1.588 1.696,0.591 1.09,-0.011 0,0"
         style="fill:#151515;fill-opacity:1;fill-rule:evenodd;stroke:none"
         id="path7633"
         inkscape:connector-curvature="0" />
    </g>
    <g
       id="g7635"
       transform="matrix(4.2698967,0,0,-4.2698967,271.25256,155.87351)">
      <path
         d="M 0,0 C -1.202,0.383 -1.755,1.209 -1.571,2.472 -1.414,3.546 -0.609,4.108 0.324,3.951 1.521,3.749 2.165,2.874 1.9,1.558 1.695,0.531 1.057,0.021 0,0"
         style="fill:#151515;fill-opacity:1;fill-rule:evenodd;stroke:none"
         id="path7637"
         inkscape:connector-curvature="0" />
    </g>
    <g
       id="g7639"
       transform="matrix(4.2698967,0,0,-4.2698967,208.93639,146.37681)">
      <path
         d="M 0,0 C 0.859,-0.167 1.525,-0.786 1.571,-1.76 1.619,-2.783 0.916,-3.509 -0.067,-3.495 -1.059,-3.481 -1.69,-2.684 -1.722,-1.709 -1.755,-0.725 -1.245,-0.012 0,0"
         style="fill:#151515;fill-opacity:1;fill-rule:evenodd;stroke:none"
         id="path7641"
         inkscape:connector-curvature="0" />
    </g>
    <g
       id="g7643"
       transform="matrix(4.2698967,0,0,-4.2698967,646.21308,301.99235)">
      <path
         d="M 0,0 C -0.443,-1.068 -1.117,-1.629 -2.178,-1.347 -3.195,-1.08 -3.789,-0.34 -3.562,0.73 -3.291,2.008 -2.455,2.711 -1.124,2.201 -0.129,1.822 0.103,0.91 0,0"
         style="fill:#151515;fill-opacity:1;fill-rule:evenodd;stroke:none"
         id="path7645"
         inkscape:connector-curvature="0" />
    </g>
    <g
       id="g7647"
       transform="matrix(4.2698967,0,0,-4.2698967,690.98039,300.26604)">
      <path
         d="m 0,0 c 0.897,-0.248 1.572,-0.846 1.431,-1.898 -0.134,-0.999 -0.807,-1.647 -1.875,-1.556 -1.143,0.1 -1.461,0.991 -1.41,1.942 C -1.799,-0.478 -1.227,0.156 0,0"
         style="fill:#151515;fill-opacity:1;fill-rule:evenodd;stroke:none"
         id="path7649"
         inkscape:connector-curvature="0" />
    </g>
    <g
       id="g7651"
       transform="matrix(4.2698967,0,0,-4.2698967,250.02178,68.961877)">
      <path
         d="M 0,0 C 1.214,-0.925 3.402,-1.275 2.307,-3.613 1.836,-4.619 0.852,-4.766 -0.014,-4.203 -2.223,-2.766 -0.208,-1.36 0.115,0.06 0.117,0.061 0,0 0,0"
         style="fill:#151515;fill-opacity:1;fill-rule:evenodd;stroke:none"
         id="path7653"
         inkscape:connector-curvature="0" />
    </g>
    <g
       id="g7655"
       transform="matrix(4.2698967,0,0,-4.2698967,441.44807,300.28483)">
      <path
         d="M 0,0 C 1.312,-0.232 1.601,-1.204 1.542,-2.367 1.488,-3.419 0.727,-4.15 -0.149,-4.136 -1.313,-4.118 -2.124,-3.245 -2.084,-1.995 -2.045,-0.772 -1.362,-0.014 0,0"
         style="fill:#151515;fill-opacity:1;fill-rule:evenodd;stroke:none"
         id="path7657"
         inkscape:connector-curvature="0" />
    </g>
    <g
       id="g7659"
       transform="matrix(4.2698967,0,0,-4.2698967,388.31605,310.78451)">
      <path
         d="m 0,0 c -0.039,-1.103 -0.622,-1.815 -1.604,-1.889 -1.103,-0.082 -1.573,0.786 -1.593,1.754 -0.018,0.746 0.319,1.422 1.237,1.463 C -0.963,1.37 -0.212,1.03 0,0"
         style="fill:#151515;fill-opacity:1;fill-rule:evenodd;stroke:none"
         id="path7661"
         inkscape:connector-curvature="0" />
    </g>
    <g
       id="g7663"
       transform="matrix(4.2698967,0,0,-4.2698967,312.20428,627.85167)">
      <path
         d="m 0,0 c 2.852,-2.994 6.374,-4.977 10.521,-5.59 5.196,-0.768 10.13,-0.589 13.391,4.503 0.519,0.811 1.191,1.581 2.206,0.717 0.726,-0.616 0.225,-1.422 -0.099,-2.029 -0.994,-1.854 -2.475,-3.23 -4.35,-4.221 C 15.956,-9.635 5.812,-8.467 1.007,-4.166 0.322,-3.552 -0.248,-2.787 -0.767,-2.024 -1.063,-1.583 -1.229,-1 0,0"
         style="fill:#151515;fill-opacity:1;fill-rule:evenodd;stroke:none"
         id="path7665"
         inkscape:connector-curvature="0" />
    </g>
    <g
       id="g7667"
       transform="matrix(4.2698967,0,0,-4.2698967,490.06809,615.96127)">
      <path
         d="M 0,0 C -0.148,-1.339 -0.296,-2.833 -1.939,-2.978 -3.603,-3.123 -4.14,-1.781 -4.156,-0.377 -4.17,0.972 -3.827,2.438 -2.262,2.631 -0.495,2.852 -0.35,1.241 0,0"
         style="fill:#515151;fill-opacity:1;fill-rule:evenodd;stroke:none"
         id="path7669"
         inkscape:connector-curvature="0" />
    </g>
    <g
       id="g7671"
       transform="matrix(4.2698967,0,0,-4.2698967,264.35155,619.38446)">
      <path
         d="m 0,0 c -0.142,-1.25 -0.507,-2.431 -1.904,-2.339 -2.047,0.138 -2.069,1.866 -2.04,3.341 0.022,1.11 0.372,2.463 1.802,2.313 C -0.241,3.118 -0.172,1.42 0,0"
         style="fill:#515151;fill-opacity:1;fill-rule:evenodd;stroke:none"
         id="path7673"
         inkscape:connector-curvature="0" />
    </g>
    <g
       id="g7675"
       transform="matrix(4.2698967,0,0,-4.2698967,256.14095,210.97352)">
      <path
         d="m 0,0 c 0,0 -1.873,-3.888 0.962,-5.16 2.836,-1.271 -1.569,-0.764 -1.569,-0.764 l -0.559,0.252 c 0,0 -1.138,3.315 -2.386,4.49 -1.247,1.175 -0.701,3.64 -0.701,3.64 l 5.418,0 L 0,0 Z"
         style="fill:#ffffff;fill-opacity:1;fill-rule:evenodd;stroke:none"
         id="path7677"
         inkscape:connector-curvature="0" />
    </g>
    <g
       id="g7679"
       transform="matrix(4.2698967,0,0,-4.2698967,238.01482,71.420056)">
      <path
         d="M 0,0 C 0,0 2.929,0.998 3.977,3.021 5.025,5.045 6.212,6.087 6.212,6.087 L 7.9,1.546 5.353,-1.483 c 0,0 -0.631,2.722 -4.381,0.302 -3.75,-2.421 -0.447,-2.631 -0.447,-2.631 L -0.788,-1.659 0,0 Z"
         style="fill:#ffffff;fill-opacity:1;fill-rule:evenodd;stroke:none"
         id="path7681"
         inkscape:connector-curvature="0" />
    </g>
    <g
       id="g7683"
       transform="matrix(4.2698967,0,0,-4.2698967,334.72754,48.00864)">
      <path
         d="m 0,0 c 0,0 -5.358,0.774 -4.617,-2.082 0.742,-2.855 -3.679,0.415 -3.679,0.415 l 1.859,1.763 0.312,0.508 c 0,0 4.697,2.066 5.817,1.606 1.12,-0.46 1.183,-3.147 1.183,-3.147 L 0,0 Z"
         style="fill:#ffffff;fill-opacity:1;fill-rule:evenodd;stroke:none"
         id="path7685"
         inkscape:connector-curvature="0" />
    </g>
  </g>
</svg>
