<?xml version="1.0" encoding="UTF-8" standalone="no"?>
<!-- Generator: Adobe Illustrator 16.0.0, SVG Export Plug-In . SVG Version: 6.00 Build 0)  -->

<svg
   xmlns:dc="http://purl.org/dc/elements/1.1/"
   xmlns:cc="http://creativecommons.org/ns#"
   xmlns:rdf="http://www.w3.org/1999/02/22-rdf-syntax-ns#"
   xmlns:svg="http://www.w3.org/2000/svg"
   xmlns="http://www.w3.org/2000/svg"
   xmlns:sodipodi="http://sodipodi.sourceforge.net/DTD/sodipodi-0.dtd"
   xmlns:inkscape="http://www.inkscape.org/namespaces/inkscape"
   version="1.1"
   id="Capa_1"
   x="0px"
   y="0px"
   width="465.519px"
   height="465.519px"
   viewBox="0 0 465.519 465.519"
   style="enable-background:new 0 0 465.519 465.519;"
   xml:space="preserve"
   inkscape:version="0.91 r13725"
   sodipodi:docname="supprimer.svg"><metadata
     id="metadata6381"><rdf:RDF><cc:Work
         rdf:about=""><dc:format>image/svg+xml</dc:format><dc:type
           rdf:resource="http://purl.org/dc/dcmitype/StillImage" /></cc:Work></rdf:RDF></metadata><defs
     id="defs6379" /><sodipodi:namedview
     pagecolor="#ffffff"
     bordercolor="#666666"
     borderopacity="1"
     objecttolerance="10"
     gridtolerance="10"
     guidetolerance="10"
     inkscape:pageopacity="0"
     inkscape:pageshadow="2"
     inkscape:window-width="1366"
     inkscape:window-height="705"
     id="namedview6377"
     showgrid="false"
     inkscape:zoom="1.0139221"
     inkscape:cx="189.00068"
     inkscape:cy="259.81568"
     inkscape:window-x="-8"
     inkscape:window-y="-8"
     inkscape:window-maximized="1"
     inkscape:current-layer="Capa_1" /><g
     id="g6419"
     transform="matrix(0.93183856,0,0,0.91666641,4.1591169,18.163849)"><g
       id="g6347" /><g
       id="g6349" /><g
       id="g6351" /><g
       id="g6353" /><g
       id="g6355" /><g
       id="g6357" /><g
       id="g6359" /><g
       id="g6361" /><g
       id="g6363" /><g
       id="g6365" /><g
       id="g6367" /><g
       id="g6369" /><g
       id="g6371" /><g
       id="g6373" /><g
       id="g6375" /><path
       inkscape:connector-curvature="0"
       id="path6396"
       d="m 335.70169,436.47347 c -3.82086,-0.74968 -6.36242,-4.58996 -6.9767,-10.54173 -0.31475,-3.04967 -0.90225,-5.54486 -1.30553,-5.54486 -0.4033,0 -0.96538,-0.88764 -1.24909,-1.97253 -0.28371,-1.0849 -1.33407,-1.98666 -2.33414,-2.00391 -1.00007,-0.0173 -2.60559,-0.62871 -3.56784,-1.3588 -1.84469,-1.39963 -6.62259,-10.12038 -6.62962,-12.10058 -0.002,-0.63932 -0.58531,-1.74888 -1.29564,-2.46568 -0.71034,-0.71681 -2.0989,-2.85666 -3.0857,-4.75522 -5.17912,-9.9644 -5.02833,-9.75859 -13.93545,-19.01962 -2.20646,-2.29414 -4.80948,-5.38864 -5.78448,-6.87667 -0.97499,-1.48804 -2.33473,-2.70552 -3.02163,-2.70552 -0.68691,0 -2.43762,-1.55848 -3.8905,-3.46329 -1.45287,-1.90481 -4.16847,-4.10127 -6.03467,-4.88103 -1.8662,-0.77974 -3.39309,-2.09586 -3.39309,-2.92471 0,-0.82885 -1.02211,-2.17671 -2.27137,-2.99525 -1.24925,-0.81853 -3.57931,-4.59956 -5.17791,-8.40228 -1.93025,-4.59165 -3.45376,-6.9153 -4.53567,-6.91777 -0.89601,-0.002 -2.48028,-1.34805 -3.52058,-2.99111 -1.92097,-3.03396 -5.30174,-5.3556 -12.84971,-8.82411 -2.3054,-1.0594 -4.19164,-2.30358 -4.19164,-2.76484 0,-3.13833 -15.28975,-5.5504 -19.81876,-3.12656 -2.96639,1.58757 -11.95964,11.12495 -14.50619,15.38387 -1.87292,3.13234 -3.64563,4.37882 -10.10926,7.10831 -4.31093,1.82046 -7.83806,3.7067 -7.83806,4.19165 0,0.48495 -0.41201,0.88174 -0.91558,0.88174 -0.93537,0 -12.98476,6.8693 -13.87845,7.91204 -0.27123,0.31645 -2.26842,1.62514 -4.43821,2.9082 -2.1698,1.28306 -5.53948,3.92256 -7.48819,5.86555 -1.94871,1.943 -4.86525,4.64228 -6.48118,5.9984 -1.61594,1.35612 -4.00397,4.01905 -5.30672,5.91761 -1.30274,1.89857 -3.31485,4.21023 -4.47135,5.13702 -1.15649,0.92679 -2.72568,2.92399 -3.4871,4.43821 -2.37241,4.71796 -10.18547,15.02772 -11.40937,15.05527 -0.64111,0.0144 -2.11376,1.35769 -3.27253,2.98504 -1.15877,1.62734 -2.63141,2.97357 -3.27253,2.99162 -1.48078,0.0417 -5.60389,3.4461 -5.60389,4.62708 0,0.81732 -3.7012,3.09917 -11.3421,6.99257 -1.62734,0.82921 -3.18071,1.81566 -3.45194,2.19212 -0.27122,0.37646 -2.26842,1.59308 -4.438209,2.70361 -2.169792,1.11053 -4.925116,2.94543 -6.122943,4.07757 -3.736011,3.53111 -7.742518,2.72677 -13.082096,-2.62635 -2.570108,-2.57663 -5.957698,-7.04549 -7.527978,-9.93082 -1.975642,-3.63016 -4.070218,-5.90859 -6.800132,-7.39701 -2.169792,-1.18304 -4.166987,-2.37756 -4.438211,-2.65448 -0.271224,-0.27692 -2.864824,-1.59279 -5.763556,-2.92416 -2.898731,-1.33136 -5.783568,-3.13159 -6.410749,-4.00048 -0.62718,-0.86891 -3.030532,-2.63278 -5.340783,-3.91973 -2.310249,-1.28694 -4.872452,-3.3655 -5.693784,-4.61901 -0.82133,-1.2535 -1.904052,-2.27911 -2.406047,-2.27911 -1.813436,0 -5.945692,-4.7129 -5.945692,-6.78116 0,-2.61415 3.839117,-10.97168 5.03996,-10.97168 0.48271,0 0.877654,-0.67654 0.877654,-1.50343 0,-2.45086 10.946051,-12.77275 16.27344,-15.3455 2.71224,-1.30982 5.153256,-2.61284 5.42448,-2.89561 0.271224,-0.28277 1.602688,-1.05707 2.958808,-1.72067 6.007456,-2.93968 9.175536,-5.19275 10.28812,-7.31668 2.814117,-5.37217 4.152872,-7.3417 6.478454,-9.5309 9.42954,-8.8765 13.041018,-11.98693 13.91785,-11.98693 1.502448,0 19.481514,-19.13644 21.883414,-23.29213 0.43379,-0.75053 1.18527,-1.3646 1.66995,-1.3646 0.48469,0 5.63303,-4.8426 11.44076,-10.76133 5.80773,-5.91874 11.60262,-11.31959 12.87752,-12.00189 1.2749,-0.68231 2.318,-1.77862 2.318,-2.43624 0,-1.22106 6.11871,-6.35928 7.57778,-6.36347 0.44303,-9.9e-4 2.35888,-1.33487 4.25745,-2.96355 1.89856,-1.62869 4.1326,-3.18045 4.96451,-3.44836 0.83192,-0.26792 2.33603,-1.93011 3.34248,-3.69377 1.00643,-1.76364 2.62884,-3.87237 3.60532,-4.68604 3.10903,-2.59064 5.84053,-11.31531 5.84053,-18.65518 0,-7.47759 -1.50435,-12.03428 -5.33901,-16.17194 -1.40313,-1.514 -2.55114,-3.3956 -2.55114,-4.18132 0,-0.78572 -0.36883,-1.42859 -0.81961,-1.42859 -0.45079,0 -1.41342,-1.10955 -2.1392,-2.46567 -0.72578,-1.35612 -1.91032,-2.46568 -2.63233,-2.46568 -0.72201,0 -1.32082,-0.55477 -1.3307,-1.23283 -0.0312,-2.14416 -5.63558,-9.62181 -9.53234,-12.71856 -2.06235,-1.63897 -3.97494,-3.33007 -4.25017,-3.75803 -0.27524,-0.42797 -2.84485,-2.03921 -5.71023,-3.58057 -4.24681,-2.28443 -5.70524,-3.79114 -7.89015,-8.15133 -1.47421,-2.94189 -3.94949,-6.71842 -5.50064,-8.39226 -1.55116,-1.67385 -3.20658,-4.0594 -3.67871,-5.3012 -0.47214,-1.24181 -1.87103,-2.71921 -3.10865,-3.28311 -1.23763,-0.5639 -3.00118,-2.33373 -3.91901,-3.93296 -0.91783,-1.59922 -2.35515,-2.90768 -3.19406,-2.90768 -0.8389,0 -1.52527,-0.36997 -1.52527,-0.82216 0,-0.4522 -1.82547,-2.78226 -4.05659,-5.17791 -2.23113,-2.39566 -4.757493,-5.40671 -5.614149,-6.69121 -0.856656,-1.2845 -3.580355,-3.18861 -6.052667,-4.23136 -4.720456,-1.99095 -9.931085,-7.1398 -12.319882,-12.17382 -0.778903,-1.64141 -2.887541,-4.05502 -4.685861,-5.36356 -1.798321,-1.30855 -3.624594,-2.96678 -4.058384,-3.68496 -0.433791,-0.71818 -1.37597,-1.30578 -2.093733,-1.30578 -3.983933,0 -10.392728,-4.20402 -13.288786,-8.71714 -1.68356,-2.623602 -3.061019,-5.286105 -3.061019,-5.916675 0,-0.63057 -0.400405,-1.146492 -0.889787,-1.146492 -1.606034,0 -3.055289,-6.089352 -3.055289,-12.837443 l 0,-6.625481 6.903883,-4.632003 c 3.797136,-2.547601 6.903884,-5.196775 6.903884,-5.887051 0,-3.21588 15.41101,-13.413862 20.270791,-13.413862 0.707428,0 1.950242,-0.664009 2.761809,-1.475575 1.84186,-1.84186 4.417923,-2.824736 15.76594,-6.015364 4.96144,-1.394966 9.28956,-2.971164 9.61804,-3.502663 0.73091,-1.182641 13.44409,-4.410843 19.95679,-5.067539 3.79799,-0.382963 4.8775,-0.154103 5.34577,1.133321 0.32271,0.887253 1.64536,2.896964 2.93921,4.466025 1.29384,1.569061 3.49369,5.11963 4.88855,7.890153 1.39486,2.770523 3.14557,5.392235 3.89045,5.826024 0.74489,0.433791 1.35433,1.40248 1.35433,2.152643 0,0.750164 0.83991,1.630511 1.86647,1.956328 1.02655,0.325817 2.41187,1.909098 3.07846,3.518405 0.6666,1.609305 1.56238,2.926009 1.99062,2.926009 0.42825,0 1.74524,1.99673 2.92664,4.437177 1.1814,2.440448 3.44009,5.656709 5.01933,7.147248 1.57922,1.49054 2.87132,3.226836 2.87132,3.858438 0,0.631602 1.24792,2.198421 2.77316,3.481823 1.52523,1.283401 3.58259,3.703714 4.5719,5.378472 0.98929,1.674759 3.13134,3.832211 4.76009,4.794337 1.62875,0.962126 3.71819,2.464701 4.6432,3.339056 0.92501,0.874353 3.07355,2.340461 4.77453,3.258019 1.70098,0.91756 3.9578,3.13666 5.01516,4.93135 1.05736,1.79468 2.52466,3.92879 3.26068,4.74246 0.73602,0.81367 2.21023,3.20424 3.27603,5.31237 1.0658,2.10813 2.64376,4.02764 3.50659,4.26557 0.86282,0.23793 2.3649,2.23705 3.33795,4.44249 0.97303,2.20545 3.48478,5.8313 5.58166,8.05745 2.09688,2.22615 3.81251,4.51238 3.81251,5.08051 0,0.97567 8.74249,5.37636 13.5612,6.82625 1.22051,0.36724 2.2191,1.08161 2.2191,1.58751 0,0.50589 2.88484,0.91981 6.41075,0.91981 3.61633,0 6.41075,-0.42992 6.41075,-0.98627 0,-0.54245 1.27712,-0.98627 2.83805,-0.98627 1.56092,0 3.34616,-0.61225 3.96719,-1.36055 0.62103,-0.74829 2.34577,-1.60386 3.83275,-1.90126 1.48698,-0.29739 3.76405,-1.46044 5.06014,-2.58453 1.29609,-1.1241 3.1902,-2.04382 4.20911,-2.04382 1.01893,0 2.14914,-0.77668 2.51161,-1.72597 0.6932,-1.8155 0.79431,-1.95593 4.79355,-6.65731 1.3843,-1.62735 3.56303,-4.29027 4.84164,-5.91762 5.43038,-6.91151 11.1388,-12.08452 15.28688,-13.85309 2.44102,-1.04075 4.9441,-2.37432 5.56241,-2.96349 0.61831,-0.58917 2.4205,-2.16199 4.00487,-3.49515 1.58437,-1.33316 4.18524,-5.075278 5.77969,-8.31581 3.04496,-6.188491 4.63288,-8.357549 6.1184,-8.357549 0.49204,0 4.17873,-3.106747 8.19266,-6.903883 4.01393,-3.797136 7.43682,-6.903884 7.60643,-6.903884 0.80625,0 5.08651,-5.572037 5.11394,-6.657316 0.0172,-0.67806 0.6969,-1.232837 1.51057,-1.232837 0.81368,0 1.47941,-0.438747 1.47941,-0.974995 0,-2.338207 13.39018,-15.791579 15.71741,-15.791579 0.57703,0 1.04916,-0.348131 1.04916,-0.773622 0,-0.425492 1.43694,-1.62244 3.19319,-2.659885 1.75626,-1.037443 4.93126,-3.796061 7.05557,-6.130261 3.63232,-3.991202 4.16177,-4.237049 8.88861,-4.127309 7.05102,0.163698 9.8788,0.991416 13.08675,3.83062 1.53364,1.357349 6.78282,4.227717 11.66486,6.378597 4.88203,2.15088 9.44734,4.464383 10.14515,5.141117 0.69779,0.676736 2.47307,1.953454 3.94507,2.837153 2.56387,1.539199 7.22799,7.852193 8.75537,11.850602 0.75943,1.988039 1.7309,3.342937 4.401,6.137957 0.88198,0.923243 1.89375,2.624505 2.24839,3.780582 0.35463,1.156077 1.51925,3.110225 2.58804,4.342553 1.96962,2.270995 2.67927,6.870121 1.06006,6.870121 -0.48576,0 -2.27453,2.884837 -3.97505,6.410749 -1.70052,3.525912 -3.44045,6.41075 -3.86653,6.41075 -0.42608,0 -1.71161,1.667044 -2.85675,3.704539 -1.14515,2.0375 -3.18624,4.66461 -4.53578,5.83802 -1.34954,1.17341 -3.18695,3.67867 -4.08314,5.56724 -0.89618,1.88857 -2.48203,3.65672 -3.52411,3.92923 -1.04208,0.27251 -2.33719,1.65935 -2.87803,3.08186 -0.54084,1.42251 -1.69479,2.85939 -2.56434,3.19307 -0.86954,0.33368 -3.83032,2.76332 -6.5795,5.39921 -2.74917,2.63588 -5.32417,4.79252 -5.72221,4.79252 -0.39804,0 -1.77117,2.06101 -3.05142,4.58004 -3.99174,7.8542 -4.24581,8.24146 -5.40697,8.24146 -0.62265,0 -1.93017,1.2205 -2.90559,2.71224 -4.15115,6.34846 -25.74583,25.80842 -28.76,25.91696 -0.41847,0.0151 -2.05533,1.34653 -3.63747,2.95881 -1.58213,1.61227 -3.26361,2.9314 -3.73661,2.9314 -0.473,0 -2.70754,1.77529 -4.96565,3.94508 -2.25811,2.16979 -4.61717,3.94508 -5.24235,3.94508 -0.6252,0 -2.33394,1.10955 -3.79722,2.46567 -1.46328,1.35612 -2.92861,2.46567 -3.25629,2.46567 -0.32769,0 -1.96915,1.03128 -3.6477,2.29172 -1.67854,1.26044 -3.83866,2.58183 -4.80024,2.93644 -0.96159,0.35459 -1.90786,1.20956 -2.10281,1.89993 -2.26251,8.01162 -3.24321,9.96516 -6.17687,12.30416 -1.80763,1.44122 -3.28661,3.14646 -3.28661,3.78943 0,0.64297 -0.88765,2.29749 -1.97254,3.67671 -1.0849,1.37922 -1.97254,3.21436 -1.97254,4.07809 0,0.86372 -0.44382,1.5704 -0.98627,1.5704 -0.54245,0 -0.98627,2.06537 -0.98627,4.58971 0,4.09014 0.42941,4.98615 3.94508,8.23179 2.16979,2.00314 3.94507,4.15407 3.94507,4.77985 0,0.62577 0.38918,1.13777 0.86482,1.13777 0.47565,0 1.82876,2.24075 3.00692,4.97945 1.17816,2.73871 2.89715,5.77197 3.81996,6.74059 1.8047,1.89425 3.10244,3.97467 6.26919,10.05023 1.11022,2.12999 2.42711,3.87272 2.92642,3.87272 0.49931,0 1.41337,1.10955 2.03126,2.46567 0.6179,1.35612 1.48823,2.46568 1.93408,2.46568 1.71896,0 9.7217,8.63841 9.7217,10.49392 0,1.0756 0.77668,2.81601 1.72597,3.86758 0.94928,1.05157 2.95277,3.79818 4.4522,6.10358 1.49943,2.30541 3.17732,4.19164 3.72864,4.19164 0.55133,0 2.36629,1.55338 4.03325,3.45195 1.66697,1.89856 3.65061,3.45194 4.40808,3.45194 0.75749,0 1.37724,0.49618 1.37724,1.10263 0,0.60645 1.33146,2.61909 2.95881,4.47253 1.62734,1.85345 2.9588,3.75133 2.9588,4.21754 0,0.46621 1.33147,2.27299 2.95881,4.01507 1.62734,1.74207 2.9659,3.67525 2.97456,4.29595 0.009,0.62069 1.34013,2.63109 2.95881,4.46755 1.61868,1.83646 2.94305,3.65032 2.94305,4.03079 0,1.79361 10.56224,11.24612 14.40886,12.89498 2.38164,1.02089 4.33025,2.5125 4.33025,3.31469 0,0.80219 0.78766,2.03847 1.75036,2.74729 1.82352,1.34264 9.0986,13.07577 9.0986,14.67408 0,0.50357 0.38465,0.91558 0.85477,0.91558 0.47014,0 1.8016,2.27829 2.95881,5.06287 2.31175,5.56267 2.98735,20.0456 1.09963,23.57283 -0.55243,1.03221 -2.99344,3.04241 -5.42448,4.46709 -2.43104,1.42468 -4.49598,3.32484 -4.58877,4.22259 -0.0928,0.89774 -0.21659,2.39851 -0.27511,3.33506 -0.12153,1.94463 -7.05659,8.65302 -8.94541,8.65302 -0.68812,0 -2.67647,1.33146 -4.41855,2.9588 -1.74207,1.62735 -3.55216,2.95881 -4.02242,2.95881 -1.3303,0 -12.17912,5.22213 -12.84419,6.18262 -0.84963,1.227 -9.91779,5.31333 -13.57233,6.11601 -1.70181,0.37378 -3.09421,1.08816 -3.09421,1.58751 0,0.88209 -13.16959,1.05476 -17.38371,0.22791 z"
       style="opacity:0.95999995;fill:#aa0000;fill-rule:nonzero;stroke:none;stroke-opacity:1" /><g
       id="g6341"
       transform="matrix(0.9915254,0,0,0.9915254,7.8624971,4.9315162)"><g
         id="g6343"><path
           id="path6345"
           d="M 455.175,69.675 C 431.196,50.102 409.071,28.792 386.404,7.972 380.245,2.315 372.734,2.445 366.93,5.54 c -5.062,2.702 -10.496,10.59 -14.335,14.866 -33.85,37.62 -68.659,74.362 -107.531,107.6 -4.362,3.732 -11.058,3.225 -14.815,-1.117 C 197.402,88.947 168.62,48.346 140.656,7.24 136.88,1.692 131.2,-0.331 125.686,0.044 c -5.735,0.388 -11.56,3.633 -13.604,4.565 -1.19,0.536 -2.356,1.222 -3.488,2.08 -24.363,18.457 -49.733,35.687 -75.176,52.861 -0.381,0.254 -0.729,0.53 -1.056,0.808 -0.562,0.477 -5.553,2.968 -8.501,7.896 -3.194,5.337 -3.48,12.22 1.933,18.093 41.588,45.092 80.755,92 122.176,137.217 3.88,4.232 3.438,10.593 -0.924,14.325 -47.642,40.775 -86.709,89.402 -137.9,126.832 -3.006,2.199 -4.738,4.697 -5.461,7.257 -1.386,4.921 1.265,11.542 2.773,14.213 0.82,1.458 1.995,2.874 3.582,4.215 23.583,19.972 45.286,41.645 67.524,62.83 6.053,5.769 13.574,5.758 19.438,2.752 5.106,-2.62 10.679,-10.404 14.602,-14.599 34.599,-37.064 70.134,-73.23 109.674,-105.83 4.43,-3.656 11.1,-3.032 14.782,1.386 32.093,38.481 60.057,79.552 87.209,121.109 3.666,5.606 9.308,7.724 14.832,7.439 5.738,-0.294 11.619,-3.442 13.69,-4.337 1.193,-0.522 2.377,-1.183 3.524,-2.021 24.725,-18.058 50.435,-34.855 76.215,-51.607 0.381,-0.254 0.736,-0.518 1.077,-0.792 0.563,-0.468 5.591,-2.874 8.638,-7.739 3.306,-5.281 3.732,-12.167 -1.574,-18.134 -41.132,-46.27 -79.755,-94.354 -120.76,-140.71 -3.809,-4.302 -3.347,-10.771 0.965,-14.566 47.438,-41.792 85.787,-91.612 136.699,-130.242 2.966,-2.25 4.651,-4.778 5.316,-7.346 1.29,-4.94 -1.498,-11.514 -3.057,-14.165 -0.846,-1.439 -2.044,-2.838 -3.659,-4.159 z m -42.092,19.832 c -46.936,40.398 -84.594,89.073 -133.281,127.988 -2.112,1.696 -3.55,3.526 -4.408,5.413 -1.609,3.542 -1.812,10.191 -0.726,14.035 0.594,2.118 1.747,4.215 3.564,6.221 40.771,44.772 78.633,91.658 118.165,137.339 3.763,4.342 2.925,10.396 -1.869,13.543 -14.355,9.436 -28.619,18.981 -42.675,28.782 -4.713,3.285 -11.075,2.098 -14.27,-2.676 -25.248,-37.771 -51.709,-74.758 -81.466,-109.705 -3.723,-4.372 -8.557,-12.558 -13.299,-15.797 -5.947,-4.058 -14.485,-5.18 -21.754,0.314 -46.207,34.906 -86.562,75.007 -125.52,116.433 -3.936,4.189 -10.461,4.353 -14.607,0.381 -9.478,-9.095 -19.009,-18.144 -28.764,-26.994 -4.248,-3.854 -4.083,-9.821 0.338,-13.487 47.735,-39.618 86.348,-87.661 135.8,-125.767 1.975,-1.518 3.369,-3.168 4.283,-4.88 1.706,-3.184 2.163,-9.579 0.982,-13.302 -0.655,-2.049 -1.831,-4.077 -3.638,-5.994 C 148.281,177.259 109.5,131.006 69.072,85.985 65.233,81.712 65.957,75.649 70.699,72.409 84.859,62.743 98.923,52.971 112.77,42.942 c 4.654,-3.369 11.04,-2.298 14.32,2.417 25.994,37.351 53.189,73.905 83.647,108.359 3.801,4.306 8.788,12.393 13.581,15.554 6.022,3.968 14.594,4.951 21.754,-0.66 45.503,-35.66 85.051,-76.424 123.176,-118.484 3.859,-4.253 10.385,-4.545 14.604,-0.646 9.658,8.945 19.383,17.837 29.311,26.525 4.333,3.786 4.282,9.75 -0.08,13.5 z"
           inkscape:connector-curvature="0" /></g></g></g></svg>