<?xml version="1.0" encoding="UTF-8" standalone="no"?>
<!-- Created with Inkscape (http://www.inkscape.org/) -->

<svg
   xmlns:dc="http://purl.org/dc/elements/1.1/"
   xmlns:cc="http://creativecommons.org/ns#"
   xmlns:rdf="http://www.w3.org/1999/02/22-rdf-syntax-ns#"
   xmlns:svg="http://www.w3.org/2000/svg"
   xmlns="http://www.w3.org/2000/svg"
   xmlns:sodipodi="http://sodipodi.sourceforge.net/DTD/sodipodi-0.dtd"
   xmlns:inkscape="http://www.inkscape.org/namespaces/inkscape"
   width="210mm"
   height="297mm"
   viewBox="0 0 744.09448819 1052.3622047"
   id="svg6767"
   version="1.1"
   inkscape:version="0.91 r13725"
   sodipodi:docname="voiture.svg">
  <defs
     id="defs6769" />
  <sodipodi:namedview
     id="base"
     pagecolor="#ffffff"
     bordercolor="#666666"
     borderopacity="1.0"
     inkscape:pageopacity="0.0"
     inkscape:pageshadow="2"
     inkscape:zoom="0.35"
     inkscape:cx="-146.42857"
     inkscape:cy="520"
     inkscape:document-units="px"
     inkscape:current-layer="layer1"
     showgrid="false"
     inkscape:window-width="1366"
     inkscape:window-height="705"
     inkscape:window-x="-8"
     inkscape:window-y="-8"
     inkscape:window-maximized="1" />
  <metadata
     id="metadata6772">
    <rdf:RDF>
      <cc:Work
         rdf:about="">
        <dc:format>image/svg+xml</dc:format>
        <dc:type
           rdf:resource="http://purl.org/dc/dcmitype/StillImage" />
        <dc:title></dc:title>
      </cc:Work>
    </rdf:RDF>
  </metadata>
  <g
     inkscape:label="Calque 1"
     inkscape:groupmode="layer"
     id="layer1">
    <g
       transform="matrix(6.6928008,0,0,-6.6928008,128.29074,538.13097)"
       id="g4926">
      <path
         inkscape:connector-curvature="0"
         id="path4928"
         style="fill:#ffde00;fill-opacity:1;fill-rule:nonzero;stroke:none"
         d="m 0,0 c 0.151,-0.921 -0.101,-1.956 -0.795,-2.599 -1.123,-1.023 -2.751,-0.758 -3.849,0.138 0.896,1.792 2.145,3.269 3.824,4.139 C -0.53,1.136 -0.101,0.669 0,0" />
    </g>
    <g
       transform="matrix(6.6928008,0,0,-6.6928008,660.02108,573.17983)"
       id="g4930">
      <path
         inkscape:connector-curvature="0"
         id="path4932"
         style="fill:#ffde00;fill-opacity:1;fill-rule:nonzero;stroke:none"
         d="M 0,0 C -0.707,-0.757 -1.539,-1.249 -2.877,-0.845 -4.833,-0.24 -5.275,1.969 -4.114,3.306 -2.297,2.65 -0.972,1.489 0,0" />
    </g>
    <g
       transform="matrix(6.6928008,0,0,-6.6928008,122.96996,555.52894)"
       id="g4934">
      <path
         inkscape:connector-curvature="0"
         id="path4936"
         style="fill:#000000;fill-opacity:1;fill-rule:nonzero;stroke:none"
         d="M 0,0 C 0.694,0.644 0.946,1.678 0.795,2.599 0.694,3.268 0.265,3.735 -0.025,4.278 -1.704,3.407 -2.953,1.931 -3.849,0.139 -2.751,-0.757 -1.123,-1.022 0,0 m 21.288,-18.789 c 1.224,4.53 -1.792,10.486 -7.13,8.404 -0.467,-0.19 -0.858,0.088 -1.072,0.479 -2.776,-1.022 -5.212,-2.46 -5.893,-5.918 -0.72,-3.609 1.325,-7.609 4.984,-8.619 4.24,-1.173 8.013,1.578 9.111,5.654 m 40.733,-5.792 c 4.468,1.425 7.193,6.41 6.02,10.915 -1.237,4.77 -6.31,6.65 -10.524,4.555 -0.341,-0.176 -0.657,-0.101 -0.884,0.076 -3.167,-2.158 -5.249,-7.256 -4.378,-10.562 1.11,-4.202 5.804,-6.246 9.766,-4.984 m 15.345,21.098 c 1.338,-0.404 2.17,0.089 2.877,0.846 -0.972,1.489 -2.297,2.65 -4.114,3.306 -1.161,-1.338 -0.719,-3.546 1.237,-4.152 m 5.842,-12.959 c -0.201,4.012 -0.479,8.48 -1.955,11.924 -1.666,-1.06 -4.114,-1.16 -5.679,-0.063 -1.918,1.363 -2.145,4.026 -0.845,5.654 C 73.757,1.262 72.672,1.35 71.448,1.287 71.271,1.274 71.12,1.338 70.993,1.426 70.451,1.375 69.921,1.678 69.971,2.385 70.691,10.991 68.924,19.824 61.567,25.187 55.725,29.44 48.292,30.702 41.238,31.105 24.43,32.077 10.347,24.051 7.622,6.562 7.609,6.511 7.584,6.486 7.571,6.448 8.013,5.805 7.483,4.656 6.486,4.883 4.618,5.287 3.003,5.262 1.615,4.909 2.196,4.189 2.461,3.054 2.461,2.271 2.473,0.921 1.905,-0.454 0.808,-1.262 -0.757,-2.435 -2.915,-2.12 -4.316,-0.921 -6.133,-5.59 -5.817,-11.9 -4.126,-16.177 c 2.814,0.492 6.574,0.126 9.35,-0.745 0.013,0.215 0.025,0.429 0.038,0.656 0.467,4.215 4.947,8.884 9.388,8.039 4.796,1.148 8.897,-3.029 8.909,-7.988 0,-0.417 -0.025,-0.82 -0.063,-1.224 4.593,-0.366 9.162,-0.013 13.73,0.277 -0.808,6.878 -1.288,13.906 -0.543,20.809 0.025,0.252 0.214,0.378 0.404,0.378 0.189,0 0.366,-0.126 0.378,-0.378 0.328,-6.928 0.404,-13.818 1.086,-20.733 3.911,0.24 7.823,0.379 11.735,-0.063 0.315,3.95 2.852,8.593 6.612,9.54 4.581,2.864 10.726,0.353 12.581,-4.593 0.606,-1.641 0.77,-3.332 0.555,-4.96 4.379,0.455 8.783,0.593 13.174,0.72 m -0.34,13.817 c 2.334,-4.24 2.271,-9.54 1.64,-14.234 0.278,-0.53 0.025,-1.375 -0.77,-1.413 -4.643,-0.227 -9.312,-0.454 -13.956,-0.303 -0.896,-3.369 -3.369,-6.297 -6.776,-7.596 -5.325,-2.032 -11.875,1.085 -12.695,7.028 0,0.051 0,0.101 -0.012,0.152 -8.985,0.971 -18.146,-1.502 -27.005,0.34 -0.971,-4.593 -4.732,-8.24 -9.754,-7.912 -4.606,0.303 -7.937,4.114 -8.291,8.493 -1.653,-0.089 -3.318,0.063 -4.971,0.088 -1.691,0.038 -3.407,-0.126 -5.086,0.164 -0.492,0.089 -0.643,0.606 -0.505,1.022 -2.549,5.187 -2.776,12.556 -0.277,17.768 -0.063,0.227 0.076,0.416 0.265,0.517 2.095,3.95 5.88,6.486 11.546,5.477 0.492,8.202 4.518,15.584 11.067,20.568 7.23,5.489 16.076,6.297 24.871,5.729 7.837,-0.505 16.279,-2.082 22.411,-7.382 6.6,-5.704 8.367,-14.31 7.547,-22.651 3.571,0.922 7.331,-1.261 9.577,-4.075 0.467,0.542 1.401,0.075 1.388,-0.594 0,-0.429 -0.088,-0.82 -0.214,-1.186" />
    </g>
    <g
       transform="matrix(6.6928008,0,0,-6.6928008,430.80935,549.78582)"
       id="g4938">
      <path
         inkscape:connector-curvature="0"
         id="path4940"
         style="fill:#5ebae7;fill-opacity:1;fill-rule:nonzero;stroke:none"
         d="M 0,0 C 0.341,0.442 -0.139,0.946 -0.568,0.997 -0.972,1.035 -1.3,0.845 -1.691,0.757 -2.095,0.669 -2.511,0.681 -2.928,0.77 -3.71,0.934 -4.013,-0.177 -3.256,-0.429 -2.246,-0.782 -0.719,-0.921 0,0 m 35.257,-5.376 c 1.476,-3.445 1.754,-7.912 1.956,-11.924 -4.391,-0.127 -8.795,-0.265 -13.174,-0.72 0.214,1.628 0.05,3.319 -0.555,4.96 -1.855,4.946 -8.001,7.457 -12.581,4.593 -3.761,-0.947 -6.297,-5.59 -6.613,-9.54 -3.911,0.442 -7.823,0.303 -11.735,0.063 -0.682,6.915 -0.757,13.805 -1.085,20.733 -0.013,0.252 -0.19,0.378 -0.379,0.378 l 3.218,1.931 C -5.603,4.909 -5.426,4.77 -5.174,4.783 2.864,5.047 10.789,5.035 18.777,4.076 19.004,4.051 19.181,4.114 19.332,4.202 19.812,3.861 20.607,3.95 20.834,4.682 25.49,19.774 7.521,28.026 -4.82,28.645 l 0.063,1.602 c 7.054,-0.403 14.486,-1.665 20.329,-5.918 7.356,-5.363 9.123,-14.196 8.404,-22.802 -0.051,-0.707 0.479,-1.01 1.022,-0.959 0.126,-0.089 0.277,-0.152 0.454,-0.139 1.224,0.063 2.309,-0.025 3.281,-0.215 -1.3,-1.627 -1.073,-4.29 0.846,-5.653 1.564,-1.098 4.012,-0.997 5.678,0.063" />
    </g>
    <g
       transform="matrix(6.6928008,0,0,-6.6928008,527.67961,694.12009)"
       id="g4942">
      <path
         inkscape:connector-curvature="0"
         id="path4944"
         style="fill:#706f6f;fill-opacity:1;fill-rule:nonzero;stroke:none"
         d="M 0,0 C 2.234,0.517 3.659,3.092 2.776,5.237 2.057,7.029 -0.416,8.051 -2.133,7.104 -3.798,7.268 -5.275,5.615 -5.174,3.786 -5.022,1.275 -2.423,-0.543 0,0 M 7.571,7.041 C 8.745,2.536 6.019,-2.448 1.552,-3.874 -2.41,-5.136 -7.104,-3.092 -8.215,1.11 c -0.871,3.307 1.212,8.405 4.379,10.562 0.227,-0.176 0.542,-0.252 0.883,-0.075 4.215,2.094 9.288,0.214 10.524,-4.556" />
    </g>
    <g
       transform="matrix(6.6928008,0,0,-6.6928008,559.09697,510.09151)"
       id="g4946">
      <path
         inkscape:connector-curvature="0"
         id="path4948"
         style="fill:#000000;fill-opacity:1;fill-rule:nonzero;stroke:none"
         d="m 0,0 c 3.331,14.095 -14.108,19.042 -24.607,21.414 0.682,-7.003 0.606,-14.158 0.619,-21.187 0,-0.025 -0.013,-0.05 -0.026,-0.076 7.862,1.187 15.749,0.997 23.623,-0.025 C -0.24,0.114 -0.114,0.063 0,0 M -23.988,22.714 C -11.647,22.096 6.322,13.843 1.666,-1.249 1.439,-1.981 0.644,-2.07 0.164,-1.729 0.013,-1.817 -0.164,-1.88 -0.391,-1.855 c -7.988,0.959 -15.913,0.972 -23.951,0.707 -0.252,-0.013 -0.429,0.126 -0.517,0.315 -0.088,0.139 -0.114,0.328 -0.076,0.492 -0.202,0.101 -0.366,0.278 -0.378,0.568 -0.392,7.104 -0.884,14.335 -0.568,21.452 0.012,0.353 0.227,0.53 0.479,0.581 0.076,0.265 0.278,0.492 0.593,0.479 0.265,0 0.543,-0.013 0.821,-0.025" />
    </g>
    <g
       transform="matrix(6.6928008,0,0,-6.6928008,394.40924,366.77118)"
       id="g4950">
      <path
         inkscape:connector-curvature="0"
         id="path4952"
         style="fill:#d6f0fb;fill-opacity:1;fill-rule:nonzero;stroke:none"
         d="m 0,0 c 10.499,-2.372 27.938,-7.319 24.607,-21.414 -0.114,0.063 -0.24,0.113 -0.391,0.126 -7.875,1.022 -15.761,1.211 -23.623,0.025 0.013,0.026 0.025,0.051 0.025,0.076 C 0.606,-14.158 0.681,-7.003 0,0" />
    </g>
    <g
       transform="matrix(6.6928008,0,0,-6.6928008,527.00364,683.47853)"
       id="g4954">
      <path
         inkscape:connector-curvature="0"
         id="path4956"
         style="fill:#000000;fill-opacity:1;fill-rule:nonzero;stroke:none"
         d="M 0,0 C 1.237,0.442 2.006,2.082 1.325,3.268 0.656,4.429 -0.707,4.404 -1.767,3.912 -2.183,3.723 -2.599,3.912 -2.776,4.227 -3.521,3.634 -3.811,2.423 -3.331,1.426 -2.764,0.265 -1.237,-0.454 0,0 M 2.877,3.647 C 3.76,1.502 2.334,-1.073 0.101,-1.59 c -2.423,-0.543 -5.022,1.275 -5.174,3.786 -0.101,1.829 1.376,3.482 3.041,3.318 1.717,0.947 4.19,-0.075 4.909,-1.867" />
    </g>
    <g
       transform="matrix(6.6928008,0,0,-6.6928008,535.8716,661.60448)"
       id="g4958">
      <path
         inkscape:connector-curvature="0"
         id="path4960"
         style="fill:#3c3c3b;fill-opacity:1;fill-rule:nonzero;stroke:none"
         d="m 0,0 c 0.681,-1.186 -0.088,-2.827 -1.325,-3.268 -1.237,-0.455 -2.763,0.265 -3.331,1.426 -0.48,0.997 -0.19,2.208 0.555,2.801 C -3.924,0.644 -3.508,0.454 -3.092,0.644 -2.032,1.136 -0.669,1.161 0,0" />
    </g>
    <g
       transform="matrix(6.6928008,0,0,-6.6928008,427.00919,543.1138)"
       id="g4962">
      <path
         inkscape:connector-curvature="0"
         id="path4964"
         style="fill:#000000;fill-opacity:1;fill-rule:nonzero;stroke:none"
         d="m 0,0 c 0.429,-0.05 0.909,-0.555 0.568,-0.997 -0.719,-0.921 -2.246,-0.782 -3.256,-0.429 -0.757,0.252 -0.454,1.363 0.328,1.199 0.417,-0.088 0.833,-0.101 1.237,-0.013 C -0.732,-0.151 -0.404,0.038 0,0" />
    </g>
    <g
       transform="matrix(6.6928008,0,0,-6.6928008,336.30369,545.73201)"
       id="g4966">
      <path
         inkscape:connector-curvature="0"
         id="path4968"
         style="fill:#5ebae7;fill-opacity:1;fill-rule:nonzero;stroke:none"
         d="M 0,0 C 0.568,0.341 0.202,1.237 -0.454,1.073 -0.946,0.934 -1.439,0.795 -1.956,0.782 -2.461,0.782 -2.902,0.871 -3.407,0.694 -3.924,0.505 -4.013,-0.126 -3.559,-0.442 -2.574,-1.098 -0.934,-0.568 0,0 M 3.495,6.398 C 3.748,13.25 3.533,20.14 3.357,27.004 3.319,28.14 1.842,28.304 1.413,27.509 -8.366,26.373 -21.124,16.24 -17.692,5.313 c 0.051,-0.165 0.152,-0.278 0.265,-0.366 -0.126,-0.19 -0.037,-0.493 0.202,-0.568 5.742,-1.893 14.247,-0.72 20.089,0.454 0.594,0.114 0.732,0.757 0.53,1.224 0.051,0.101 0.089,0.202 0.101,0.341 M 9.363,29.642 9.3,28.039 C 9.022,28.052 8.745,28.064 8.48,28.064 8.164,28.077 7.962,27.85 7.887,27.585 7.634,27.534 7.42,27.358 7.407,27.004 7.092,19.887 7.584,12.657 7.975,5.552 7.988,5.262 8.152,5.085 8.354,4.984 8.316,4.82 8.341,4.631 8.429,4.492 L 5.212,2.562 C 5.022,2.562 4.833,2.435 4.808,2.183 4.063,-4.719 4.543,-11.748 5.35,-18.625 c -4.568,-0.291 -9.136,-0.644 -13.729,-0.278 0.038,0.404 0.063,0.808 0.063,1.224 -0.012,4.959 -4.114,9.136 -8.909,7.988 -4.442,0.845 -8.921,-3.824 -9.388,-8.038 -0.013,-0.228 -0.025,-0.442 -0.038,-0.657 -2.776,0.871 -6.536,1.237 -9.35,0.745 -1.691,4.278 -2.007,10.587 -0.19,15.256 1.401,-1.199 3.559,-1.514 5.123,-0.341 1.098,0.808 1.666,2.183 1.654,3.534 0,0.782 -0.265,1.918 -0.846,2.637 1.388,0.353 3.003,0.379 4.871,-0.025 0.997,-0.227 1.527,0.921 1.085,1.564 0.013,0.038 0.038,0.064 0.051,0.114 2.725,17.49 16.808,25.515 33.616,24.544" />
    </g>
    <g
       transform="matrix(6.6928008,0,0,-6.6928008,350.15441,502.23749)"
       id="g4970">
      <path
         inkscape:connector-curvature="0"
         id="path4972"
         style="fill:#000000;fill-opacity:1;fill-rule:nonzero;stroke:none"
         d="m 0,0 c -0.543,6.562 -0.656,13.174 -0.77,19.748 -9.805,-2.75 -17.679,-9.918 -17.426,-20.732 0,-0.076 -0.026,-0.139 -0.038,-0.202 2.675,0.467 5.476,0.227 8.177,0.366 C -6.688,-0.656 -3.357,-0.227 0,0 M 1.287,20.506 C 1.464,13.641 1.678,6.751 1.426,-0.101 1.413,-0.24 1.375,-0.341 1.325,-0.442 c 0.202,-0.467 0.063,-1.11 -0.53,-1.224 -5.843,-1.173 -14.348,-2.347 -20.089,-0.454 -0.24,0.076 -0.328,0.379 -0.202,0.568 -0.114,0.088 -0.215,0.202 -0.265,0.366 -3.432,10.928 9.325,21.061 19.105,22.196 0.429,0.795 1.905,0.631 1.943,-0.504" />
    </g>
    <g
       transform="matrix(6.6928008,0,0,-6.6928008,345.00299,370.06474)"
       id="g4974">
      <path
         inkscape:connector-curvature="0"
         id="path4976"
         style="fill:#d6f0fb;fill-opacity:1;fill-rule:nonzero;stroke:none"
         d="m 0,0 c 0.114,-6.574 0.227,-13.187 0.77,-19.748 -3.357,-0.228 -6.688,-0.657 -10.057,-0.821 -2.701,-0.139 -5.502,0.101 -8.177,-0.366 0.012,0.063 0.037,0.127 0.037,0.202 C -17.679,-9.918 -9.805,-2.751 0,0" />
    </g>
    <g
       transform="matrix(6.6928008,0,0,-6.6928008,333.26382,538.55332)"
       id="g4978">
      <path
         inkscape:connector-curvature="0"
         id="path4980"
         style="fill:#000000;fill-opacity:1;fill-rule:nonzero;stroke:none"
         d="M 0,0 C 0.656,0.164 1.022,-0.732 0.454,-1.073 -0.48,-1.64 -2.12,-2.17 -3.104,-1.514 c -0.455,0.315 -0.366,0.946 0.151,1.135 0.505,0.177 0.947,0.089 1.451,0.089 0.518,0.012 1.01,0.151 1.502,0.29" />
    </g>
    <g
       transform="matrix(6.6928008,0,0,-6.6928008,235.71759,674.94858)"
       id="g4982">
      <path
         inkscape:connector-curvature="0"
         id="path4984"
         style="fill:#706f6f;fill-opacity:1;fill-rule:nonzero;stroke:none"
         d="M 0,0 C 0.088,1.855 -1.804,4.215 -3.824,3.596 -3.975,3.558 -4.089,3.458 -4.177,3.344 -5.401,3.243 -6.486,2.082 -6.701,0.782 -7.003,-1.047 -5.779,-2.902 -3.887,-3.092 -2.044,-3.268 -0.088,-1.931 0,0 M -2.688,7.458 C 2.65,9.54 5.666,3.584 4.442,-0.946 3.344,-5.022 -0.429,-7.773 -4.669,-6.6 c -3.659,1.01 -5.704,5.01 -4.984,8.619 0.681,3.458 3.116,4.896 5.893,5.918 0.214,-0.391 0.605,-0.669 1.072,-0.479" />
    </g>
    <g
       transform="matrix(6.6928008,0,0,-6.6928008,212.07058,685.7588)"
       id="g4986">
      <path
         inkscape:connector-curvature="0"
         id="path4988"
         style="fill:#000000;fill-opacity:1;fill-rule:nonzero;stroke:none"
         d="M 0,0 C 1.022,0.025 2.069,0.82 1.994,1.905 1.905,3.243 0.795,3.622 -0.29,3.899 -0.328,3.912 -0.353,3.937 -0.379,3.95 -2.208,3.596 -2.334,-0.05 0,0 M -0.29,5.212 C 1.729,5.83 3.622,3.47 3.533,1.615 3.445,-0.315 1.489,-1.653 -0.353,-1.476 c -1.893,0.189 -3.117,2.044 -2.814,3.874 0.214,1.299 1.299,2.46 2.523,2.561 0.089,0.114 0.202,0.215 0.354,0.253" />
    </g>
    <g
       transform="matrix(6.6928008,0,0,-6.6928008,225.41399,673.00634)"
       id="g4990">
      <path
         inkscape:connector-curvature="0"
         id="path4992"
         style="fill:#3c3c3b;fill-opacity:1;fill-rule:nonzero;stroke:none"
         d="M 0,0 C 0.076,-1.085 -0.972,-1.88 -1.994,-1.905 -4.328,-1.956 -4.202,1.691 -2.372,2.044 -2.347,2.032 -2.322,2.006 -2.284,1.994 -1.199,1.716 -0.088,1.338 0,0" />
    </g>
  </g>
</svg>
